<?xml version="1.0" standalone="no"?>
<!DOCTYPE svg PUBLIC "-//W3C//DTD SVG 20010904//EN"
 "http://www.w3.org/TR/2001/REC-SVG-20010904/DTD/svg10.dtd">
<svg version="1.0" xmlns="http://www.w3.org/2000/svg"
 width="300.000000pt" height="533.000000pt" viewBox="0 0 300.000000 533.000000"
 preserveAspectRatio="xMidYMid meet">
<metadata>
Created by potrace 1.10, written by Peter Selinger 2001-2011
</metadata>
<g transform="translate(0.000000,533.000000) scale(0.050000,-0.050000)"
fill="#000000" stroke="none">
<path class="outline" d="M2590 10469 c-598 -110 -901 -295 -1254 -769 -62 -82 -150 -199 -196
-260 -277 -361 -310 -668 -107 -1003 61 -102 71 -140 96 -370 16 -142 47 -314
70 -384 22 -70 41 -143 41 -162 0 -20 37 -155 81 -301 80 -259 88 -330 33
-309 -148 57 -190 -254 -75 -561 21 -55 45 -136 54 -180 19 -91 57 -108 146
-63 l59 29 12 -93 c6 -51 29 -214 50 -363 47 -326 62 -1043 24 -1114 -61 -112
-458 -403 -854 -625 -515 -290 -770 -491 -770 -610 0 -40 8 -68 19 -62 10 7
26 -2 36 -19 13 -24 29 -15 82 49 68 82 123 90 123 18 0 -22 9 -34 20 -27 12
7 15 23 7 34 -7 12 3 34 24 49 20 15 27 27 16 27 -11 0 -20 13 -20 28 0 17 12
24 30 17 18 -8 24 -3 16 11 -8 12 4 32 26 44 23 12 41 13 41 3 0 -9 23 -13 51
-8 37 7 46 16 30 32 -36 36 -23 58 30 48 37 -7 48 -2 41 17 -7 17 1 22 24 14
19 -7 27 -5 19 4 -20 22 112 110 164 110 25 0 41 13 41 34 0 26 6 28 23 11 18
-18 16 -32 -5 -58 -20 -25 -8 -22 37 10 36 25 65 58 65 72 0 39 53 78 70 52 7
-12 22 -16 34 -9 13 8 11 19 -7 30 -15 10 -18 17 -7 17 52 0 81 -39 45 -60
-19 -12 -35 -36 -34 -55 0 -32 2 -32 27 1 27 36 52 27 52 -18 0 -15 -16 -27
-35 -27 -30 -1 -30 -3 -5 -19 22 -14 36 -8 53 25 16 30 17 48 3 57 -12 7 -15
22 -8 33 7 12 -11 40 -41 62 -57 46 -49 55 17 20 27 -15 36 -15 28 -1 -7 12 5
31 27 43 24 12 41 14 41 2 0 -10 -11 -22 -24 -27 -28 -9 -3 -55 30 -55 15 0
12 8 -6 19 -24 16 -20 22 19 37 31 11 40 22 24 32 -34 21 -28 58 8 44 21 -8
29 -1 25 23 -4 23 12 38 54 47 33 7 52 14 41 16 -20 2 49 60 73 61 8 1 9 -14
2 -32 -9 -23 -5 -29 11 -19 12 8 23 5 23 -7 0 -11 -8 -21 -18 -21 -10 0 8 -28
40 -62 32 -34 53 -70 48 -79 -6 -9 5 -28 25 -43 19 -14 35 -44 35 -66 0 -22
11 -38 25 -35 14 3 25 -4 25 -15 0 -11 -14 -20 -31 -20 -25 0 -26 -5 -5 -28
19 -20 30 -21 41 -5 9 14 15 7 15 -18 0 -41 64 -109 102 -109 12 0 17 -13 11
-30 -7 -16 -2 -30 9 -30 11 0 15 -9 8 -20 -7 -11 2 -20 20 -20 18 0 26 -10 19
-21 -7 -12 -1 -20 14 -18 55 8 73 -2 87 -46 11 -36 16 -38 23 -12 8 29 19 28
96 -14 48 -25 93 -40 100 -33 7 7 7 -5 -1 -27 -11 -32 -9 -35 13 -14 38 35 60
31 45 -8 -9 -23 -5 -29 11 -19 12 8 23 4 23 -9 0 -13 13 -18 29 -12 17 6 35 2
42 -8 6 -11 21 -14 33 -7 13 8 11 19 -7 31 -43 30 126 0 172 -30 52 -34 135
-55 120 -31 -6 10 -7 18 -2 18 5 0 25 6 43 13 26 10 32 3 27 -33 -4 -26 3 -50
15 -54 15 -5 20 15 16 56 -7 53 -3 59 21 39 32 -27 113 -21 136 9 9 12 15 10
15 -6 0 -18 14 -22 40 -14 26 8 40 4 40 -14 0 -14 18 3 40 39 22 36 44 65 51
65 20 0 -1 -70 -27 -91 -21 -16 -17 -20 15 -20 22 0 41 10 41 24 0 13 11 28
25 34 19 8 19 14 -2 29 -19 13 -21 23 -5 33 12 7 22 4 22 -9 0 -15 11 -15 40
0 24 13 40 14 40 2 0 -10 -16 -22 -35 -27 -21 -4 -9 -12 29 -18 59 -9 64 -6
54 34 -6 25 0 51 13 60 17 10 20 7 9 -11 -12 -20 -7 -23 17 -14 21 8 33 3 33
-17 0 -16 9 -29 19 -29 11 0 15 12 9 27 -6 17 7 32 35 40 63 16 70 1 26 -52
-21 -25 -26 -34 -11 -22 15 13 39 19 54 13 18 -6 28 4 28 27 1 31 4 32 21 7
18 -27 20 -27 17 0 -7 66 3 100 31 100 15 0 51 29 78 64 50 63 51 64 92 27 22
-20 41 -27 41 -15 0 12 16 26 36 33 52 16 186 148 164 161 -10 6 -33 -12 -51
-39 -19 -28 -51 -51 -71 -51 -23 0 -38 -14 -39 -35 0 -33 -1 -33 -21 0 -15 26
-12 44 11 67 17 17 41 48 52 70 11 21 41 38 65 38 36 0 51 18 72 92 19 63 33
83 44 65 13 -22 24 -19 52 11 34 35 34 37 1 25 -52 -18 -42 18 15 55 28 19 50
52 50 77 0 25 9 59 20 75 16 24 19 22 20 -14 0 -32 9 -41 30 -33 17 6 30 0 30
-14 0 -14 6 -20 13 -13 7 7 1 28 -14 46 -40 48 -41 87 -2 74 27 -10 28 -7 8
15 -38 41 -31 52 32 47 95 -6 148 -45 138 -99 -11 -56 21 -44 44 18 16 40 18
41 32 6 9 -24 5 -43 -13 -55 -18 -11 -20 -17 -4 -18 13 0 29 9 36 20 18 30 50
24 50 -9 0 -53 76 -88 152 -70 49 10 73 8 78 -8 23 -76 27 -82 28 -45 2 35 5
34 42 -8 22 -25 40 -39 40 -31 0 9 11 7 25 -4 14 -11 67 -18 119 -16 52 2 90
-3 84 -12 -14 -22 61 -57 126 -57 43 -1 49 -5 26 -19 -25 -17 -26 -23 -2 -45
20 -19 24 -19 14 -1 -9 16 -4 21 15 13 18 -7 33 3 39 26 7 29 10 27 12 -9 1
-25 -8 -45 -21 -45 -13 0 -19 -5 -13 -11 6 -5 34 -1 63 10 56 21 69 5 29 -35
-13 -13 -15 -24 -4 -24 11 0 30 10 43 23 18 18 30 18 51 0 15 -12 34 -17 41
-9 7 7 14 -9 15 -36 0 -26 6 -37 11 -23 16 39 93 -10 78 -49 -10 -26 -6 -27
17 -8 23 19 31 16 41 -15 18 -57 70 -72 55 -17 -10 39 -7 41 22 17 26 -21 28
-36 12 -67 -12 -22 -17 -44 -12 -49 5 -5 22 18 37 52 28 63 48 77 61 40 4 -12
22 -15 41 -8 54 21 47 140 -10 178 -111 72 -670 313 -934 402 -167 56 -333
126 -390 165 -154 104 -190 118 -341 133 -366 36 -450 136 -450 539 l0 305 83
137 c93 154 166 322 216 500 l35 120 74 -7 c132 -11 193 105 263 503 55 311
40 394 -74 421 l-53 13 58 225 c53 210 94 546 128 1045 7 99 26 248 43 330 19
94 27 200 20 280 -6 72 -18 230 -27 352 -21 276 -18 271 -439 700 -373 378
-359 369 -594 377 -166 6 -201 15 -373 92 -222 100 -354 115 -610 68z m298
-164 c23 -22 100 -19 118 4 9 12 11 1 4 -24 -9 -33 -4 -45 20 -45 19 0 27 10
19 25 -7 14 5 3 27 -23 28 -35 51 -45 85 -36 64 17 104 -19 78 -68 -15 -28
-14 -38 5 -39 16 0 11 -12 -13 -29 -21 -16 -32 -36 -24 -44 8 -7 27 6 44 29
19 28 42 39 63 31 20 -8 28 -5 20 8 -8 12 2 34 20 49 23 18 29 19 19 2 -25
-41 4 -68 48 -44 28 14 39 14 39 -2 0 -12 14 -35 30 -52 27 -27 30 -26 30 3 0
18 10 26 21 19 33 -20 119 -25 107 -6 -16 26 17 19 58 -12 20 -15 53 -22 74
-17 40 11 148 -85 130 -114 -5 -9 5 -21 22 -28 18 -7 27 -25 21 -42 -7 -18 0
-30 18 -30 35 0 38 -23 6 -55 -17 -17 -13 -20 18 -12 25 6 56 -4 78 -26 20
-20 48 -37 62 -37 14 0 25 -7 25 -15 0 -8 0 -24 0 -34 0 -11 -13 -15 -30 -8
-35 13 -40 -28 -8 -73 16 -23 18 -19 7 18 -9 33 -6 43 10 33 13 -9 37 1 54 22
16 20 24 25 16 11 -7 -15 2 -38 20 -51 28 -20 30 -34 11 -82 -15 -40 -15 -64
-1 -78 20 -20 31 18 22 82 -1 14 7 25 18 25 12 0 21 -10 21 -21 0 -12 9 -16
20 -9 11 7 14 -1 8 -19 -7 -17 -20 -31 -30 -31 -10 0 -18 -10 -18 -23 0 -13
19 -6 43 15 24 21 36 25 27 10 -12 -22 -8 -26 17 -16 29 11 31 7 12 -28 -13
-23 -34 -36 -51 -30 -15 6 -28 3 -28 -7 0 -10 19 -24 42 -32 32 -10 39 -24 29
-60 -9 -37 -5 -45 19 -36 19 7 30 0 30 -21 0 -44 -59 -65 -82 -30 -10 16 -18
18 -18 5 0 -31 54 -73 77 -59 10 7 24 -2 30 -18 8 -20 -5 -34 -38 -42 -27 -7
-44 -19 -39 -28 6 -9 30 -11 55 -5 44 11 44 10 -5 -33 l-50 -44 48 13 c30 9
42 6 34 -8 -7 -11 3 -31 23 -43 22 -15 24 -20 5 -14 -33 10 -43 -113 -13 -161
8 -14 8 -36 0 -50 -9 -14 -13 -46 -10 -72 4 -26 -2 -43 -11 -37 -37 23 -73
-24 -70 -93 2 -41 -11 -85 -28 -102 -17 -17 -21 -31 -9 -31 11 0 21 -9 21 -20
0 -31 -34 -23 -48 11 -6 17 3 53 21 80 18 27 22 49 10 49 -11 0 -26 -9 -33
-20 -7 -12 -22 -15 -34 -8 -13 9 -12 18 5 28 46 29 6 85 -43 59 -37 -20 -40
-18 -29 17 12 40 -32 104 -72 104 -10 0 -14 9 -7 20 7 12 26 10 51 -5 31 -20
49 -18 97 11 58 34 102 38 123 10 5 -8 20 -7 33 0 16 10 12 29 -16 64 -23 30
-34 36 -26 15 9 -25 2 -35 -25 -35 -21 0 -58 -14 -83 -31 -24 -17 -44 -23 -44
-12 0 11 -18 15 -40 9 -23 -6 -40 -1 -40 13 0 13 -9 18 -20 11 -11 -7 -20 -3
-20 9 0 29 -55 26 -67 -4 -5 -14 -11 -9 -11 13 -2 32 9 36 83 25 74 -10 78 -9
35 11 -27 12 -61 20 -75 18 -14 -2 -20 9 -13 27 17 42 -31 39 -66 -4 -25 -32
-26 -31 -6 10 12 25 17 45 12 45 -5 0 -25 6 -44 13 -27 11 -32 6 -22 -19 7
-18 4 -38 -7 -45 -11 -6 -19 20 -19 61 0 44 -8 67 -20 60 -12 -7 -16 -21 -10
-30 6 -10 -7 -28 -29 -40 -23 -12 -41 -13 -41 -3 0 10 -28 24 -62 30 -47 10
-59 21 -50 45 9 23 4 29 -17 21 -19 -7 -25 -1 -19 16 22 57 128 57 128 0 0
-16 9 -29 20 -29 11 0 20 19 20 41 0 23 -9 36 -20 29 -11 -7 -20 -2 -20 11 0
15 -18 19 -53 10 -42 -11 -50 -7 -40 18 10 26 5 28 -26 12 -26 -15 -40 -14
-45 2 -4 12 -32 22 -61 22 -35 0 -49 8 -41 23 8 12 -1 10 -20 -5 -28 -23 -35
-23 -45 2 -7 18 -29 26 -57 20 -58 -11 -88 47 -33 65 40 12 71 68 49 88 -8 7
-17 1 -22 -13 -5 -14 -18 -25 -29 -25 -11 0 -12 11 -4 25 9 14 -10 9 -41 -12
-30 -20 -61 -31 -67 -25 -6 7 -24 1 -39 -12 -41 -34 -132 -40 -120 -8 6 14 2
38 -8 54 -13 21 -17 17 -18 -18 0 -28 -9 -41 -21 -33 -12 7 -17 24 -12 38 6
16 -11 24 -49 24 -42 0 -52 -6 -38 -23 30 -36 0 -52 -34 -19 -38 38 -66 37
-66 -2 0 -17 -9 -26 -20 -19 -12 7 -15 21 -9 32 7 10 0 17 -15 13 -17 -3 -24
11 -20 40 5 32 -2 42 -23 34 -16 -7 -24 -27 -19 -47 16 -61 -44 -90 -70 -33
-18 39 -17 47 4 39 15 -6 33 5 40 24 19 49 -1 58 -41 18 -23 -23 -38 -27 -43
-13 -10 30 -78 30 -96 0 -8 -13 1 -34 20 -48 19 -14 26 -30 15 -37 -10 -6 -30
3 -45 20 -23 28 -27 27 -41 -10 -9 -23 -27 -42 -41 -42 -20 1 -20 5 1 18 22
14 22 20 1 33 -15 9 -29 6 -33 -7 -5 -13 -27 -24 -49 -24 -28 0 -37 -9 -29
-30 7 -16 7 -30 1 -30 -6 0 -24 14 -41 30 -27 27 -26 30 2 30 17 0 31 11 31
25 0 14 -23 25 -51 25 -39 0 -49 -8 -42 -35 6 -22 -6 -44 -31 -57 -30 -16 -37
-16 -27 0 15 25 8 27 -37 10 -18 -7 -27 -20 -20 -31 6 -10 0 -16 -13 -12 -13
3 -28 -6 -33 -20 -5 -14 1 -25 14 -25 13 0 10 -13 -10 -32 -17 -18 -38 -27
-45 -19 -8 7 -1 22 16 32 24 15 23 18 -8 19 -20 0 -41 -18 -47 -40 -13 -49
-41 -52 -50 -6 -5 30 -9 30 -36 2 -68 -71 -98 -116 -79 -116 12 0 16 -9 9 -20
-21 -34 -45 -22 -58 30 -16 62 -52 66 -52 5 1 -37 4 -40 22 -15 17 23 19 16
12 -30 -16 -100 14 -153 42 -74 12 35 32 64 45 64 13 0 18 -14 11 -31 -6 -18
-3 -26 8 -19 11 7 20 -1 20 -18 0 -42 33 -58 47 -22 6 16 -2 43 -19 59 -17 17
-25 40 -18 51 18 29 50 24 50 -8 0 -15 14 -33 31 -40 18 -7 26 -3 19 8 -7 11
1 25 17 32 42 16 18 69 -24 54 -18 -7 -27 -6 -20 2 21 24 85 29 110 9 14 -12
27 -7 34 14 9 21 4 27 -12 17 -20 -11 -20 -8 -1 13 14 14 45 28 70 31 73 9
146 23 146 27 0 2 54 8 120 13 66 5 145 17 175 27 40 14 55 12 57 -5 1 -19 3
-19 11 0 7 17 24 19 63 4 29 -11 75 -16 103 -10 28 6 38 5 21 -2 -47 -20 161
-60 232 -45 38 8 81 3 110 -13 26 -15 69 -27 94 -27 29 -1 41 -9 33 -23 -10
-15 0 -18 28 -9 25 8 43 5 43 -7 0 -11 14 -16 30 -9 19 7 30 -1 30 -22 0 -18
9 -28 20 -21 11 7 20 3 20 -9 0 -11 8 -19 18 -16 10 3 44 -15 75 -40 146 -115
182 -139 247 -164 39 -15 95 -54 125 -87 44 -47 55 -52 55 -24 0 20 -16 48
-35 62 -23 18 -26 27 -9 27 14 1 41 -27 60 -62 19 -35 50 -80 69 -100 24 -25
27 -38 10 -39 -19 -1 -19 -4 -1 -11 13 -5 19 -23 13 -38 -7 -17 1 -29 16 -29
42 0 102 -151 76 -190 -12 -17 -11 -102 2 -130 3 -5 6 -43 7 -82 2 -40 16 -88
31 -107 23 -28 24 -42 3 -75 -14 -22 -16 -35 -6 -29 31 20 73 -220 48 -275
-15 -34 -15 -53 1 -69 14 -14 15 -31 2 -47 -10 -14 -20 -48 -22 -76 -12 -195
-31 -319 -47 -309 -10 6 -18 2 -18 -10 0 -11 10 -21 23 -21 13 0 18 -6 11 -13
-7 -7 -4 -29 7 -50 25 -45 15 -46 -67 -5 l-64 31 58 -48 c57 -47 87 -115 50
-115 -10 0 -16 -7 -14 -15 11 -41 -30 -249 -54 -272 -17 -17 -25 -61 -21 -120
6 -87 -3 -103 -54 -95 -25 4 -17 -54 9 -63 13 -4 17 -22 9 -43 -8 -22 -25 -32
-43 -25 -17 7 -30 3 -30 -8 0 -10 12 -19 27 -19 23 0 22 -13 -5 -69 -17 -39
-42 -67 -53 -62 -12 4 -33 -10 -46 -32 -13 -21 -35 -32 -47 -24 -15 9 -18 2
-9 -21 7 -19 3 -53 -9 -75 -19 -37 -17 -39 25 -26 42 13 44 12 18 -19 -15 -19
-29 -57 -30 -85 -1 -28 -18 -59 -37 -70 -19 -10 -34 -42 -34 -69 0 -77 -37
-135 -69 -109 -32 27 -59 -23 -29 -53 29 -29 -1 -135 -53 -191 -26 -28 -41
-56 -34 -63 6 -7 1 -12 -12 -12 -12 0 -24 11 -25 25 -1 20 -3 20 -11 0 -6 -14
-23 -25 -39 -25 -34 0 -37 -43 -5 -75 17 -17 10 -26 -30 -36 -29 -7 -53 -26
-53 -41 0 -48 -60 -31 -62 17 -2 32 -5 35 -12 11 -5 -20 -21 -29 -37 -23 -18
7 -29 -1 -29 -21 0 -34 -89 -46 -109 -14 -16 26 -134 39 -125 14 4 -12 31 -19
59 -16 33 4 59 -6 71 -28 17 -31 24 -31 80 -3 68 34 84 28 84 -31 0 -31 -6
-34 -28 -15 -23 18 -31 15 -42 -18 -9 -28 -41 -48 -102 -64 -49 -12 -94 -30
-100 -39 -21 -35 -38 -17 -40 42 -2 63 25 81 45 29 8 -21 19 -24 36 -10 14 12
31 15 38 7 7 -7 13 -1 13 13 0 14 -13 20 -29 14 -17 -6 -35 -3 -41 7 -6 10
-43 18 -82 16 -38 -1 -62 -8 -52 -14 26 -18 51 -128 25 -112 -12 7 -22 1 -23
-14 -1 -20 -3 -20 -11 -1 -11 26 -71 34 -93 12 -8 -7 -4 -25 9 -40 14 -18 15
-27 1 -27 -11 0 -25 11 -31 25 -6 16 -16 18 -26 5 -10 -11 -26 -22 -37 -24
-11 -1 -36 -9 -55 -17 -19 -7 -35 -5 -35 5 0 9 -19 19 -43 21 -23 1 -60 22
-81 45 -31 33 -45 37 -68 19 -20 -17 -28 -18 -28 -1 0 12 9 22 20 22 28 0 25
26 -10 71 -25 33 -28 33 -18 4 7 -20 3 -35 -10 -35 -12 0 -22 9 -22 20 0 11
-22 20 -49 20 -31 0 -58 17 -73 45 -13 25 -36 52 -50 61 -15 8 -21 28 -15 45
7 17 -1 29 -19 29 -16 0 -35 13 -41 29 -8 20 -1 26 23 18 27 -8 26 -3 -6 22
-22 18 -37 48 -34 67 4 25 -6 20 -37 -16 -29 -33 -39 -38 -31 -15 6 22 0 35
-16 35 -15 0 -34 15 -41 34 -11 28 -16 30 -30 8 -25 -41 -62 39 -47 100 12 43
10 45 -22 20 -40 -34 -77 -6 -102 76 -12 38 -8 46 15 37 17 -7 40 -2 53 11 23
23 32 -2 23 -64 -3 -17 7 -23 27 -15 18 6 32 3 32 -8 0 -10 10 -19 21 -19 12
0 16 9 9 20 -7 11 2 20 19 20 17 0 31 9 31 20 0 12 -22 17 -49 12 -36 -7 -53
1 -61 29 -7 22 -20 39 -29 39 -22 0 -102 153 -88 167 6 5 -7 21 -29 35 -22 14
-35 37 -30 52 6 14 -2 26 -17 26 -18 1 -20 6 -5 15 34 23 -6 140 -53 155 -48
15 -34 50 16 38 53 -13 85 18 72 68 -16 61 -54 56 -42 -6 5 -27 2 -50 -8 -50
-9 0 -17 18 -17 40 0 46 -20 51 -58 15 -21 -20 -24 -13 -13 40 9 41 6 65 -7
65 -11 0 -16 12 -10 27 6 17 -8 33 -36 40 -37 11 -40 17 -17 32 25 16 24 24
-8 60 -23 25 -28 41 -13 41 13 0 18 10 11 21 -20 33 -25 119 -6 107 9 -6 17 3
17 20 0 16 -15 38 -33 48 -22 13 -25 23 -10 32 13 8 23 5 23 -6 0 -11 15 -15
32 -8 28 10 27 15 -10 35 -89 48 -157 231 -86 231 24 0 24 5 3 31 -19 23 -20
36 -2 54 17 17 30 13 52 -16 27 -35 31 -31 31 26 0 8 -7 16 -15 17 -39 4 -96
41 -100 64 -4 15 3 21 15 14 11 -7 20 5 20 27 0 61 -22 104 -45 90 -14 -8 -16
11 -7 59 8 42 5 76 -7 84 -12 7 -21 38 -21 70 0 32 -9 63 -20 70 -11 7 -20 23
-20 35 0 12 12 7 26 -13 23 -32 26 -27 28 38 1 45 -8 77 -26 84 -15 5 -28 19
-28 29 0 11 11 13 25 4 18 -10 17 -5 -2 18 -27 34 -15 115 17 115 23 0 3 108
-21 117 -11 3 -14 14 -8 24 5 9 23 12 38 7 21 -8 25 1 18 35 -8 38 -6 41 11
17 18 -26 21 -25 22 5 0 19 10 35 22 35 13 0 18 18 11 43 -6 24 -2 61 10 83
14 26 14 35 0 26 -11 -7 -25 -4 -32 6 -6 10 4 23 21 30 18 7 27 25 21 41 -6
16 0 32 13 36 18 6 17 17 -3 42 -40 47 -52 42 -74 -32 -12 -40 -31 -63 -49
-60 -21 4 -18 -4 9 -25 34 -26 34 -30 5 -30 -37 0 -46 -30 -14 -50 11 -7 20
-3 20 8 0 11 15 15 33 8 29 -11 27 -15 -10 -29 -24 -9 -43 -32 -42 -51 0 -33
3 -33 30 3 29 38 29 38 29 0 0 -22 -22 -49 -51 -62 -42 -20 -49 -19 -44 8 3
17 -6 35 -20 40 -20 6 -21 -4 -4 -47 15 -40 14 -59 -3 -69 -13 -8 -17 -24 -10
-35 7 -12 4 -27 -8 -34 -11 -7 -20 -2 -20 11 0 13 -12 18 -28 13 -19 -8 -24 0
-17 27 5 21 17 34 25 29 28 -17 11 59 -18 82 -23 18 -18 25 25 35 50 13 77 73
33 73 -11 0 -20 -12 -20 -26 0 -14 -19 -27 -42 -29 -38 -3 -39 1 -13 31 32 37
59 124 38 121 -40 -5 -64 6 -52 24 7 12 26 17 41 11 17 -6 28 2 28 20 0 24
-13 28 -58 18 -32 -7 -64 -4 -70 7 -17 27 8 85 30 72 10 -6 12 3 6 20 -7 17
-20 31 -30 31 -10 0 -18 14 -18 30 0 42 -35 38 -46 -5 -5 -19 -9 -10 -7 20 1
30 13 55 27 55 40 0 8 55 -40 67 -23 6 -36 18 -28 25 7 8 -5 29 -26 48 -43 37
-8 100 39 71 12 -8 21 -4 21 8 0 11 -22 21 -50 21 -37 0 -50 11 -50 41 0 23
-9 58 -20 79 -14 27 -13 42 5 52 14 8 18 7 10 -2 -8 -9 4 -30 27 -46 33 -23
36 -33 16 -45 -35 -22 -13 -43 29 -27 27 10 28 19 8 55 -13 24 -21 56 -18 71
3 15 -2 33 -12 40 -10 7 -11 35 -3 62 13 47 29 11 20 -45 -1 -8 6 -15 17 -15
37 0 43 42 13 102 -21 42 -23 58 -6 53 32 -12 98 66 89 104 -4 17 9 47 29 66
20 19 36 25 36 14 0 -12 8 -16 19 -10 10 7 27 -3 37 -21 12 -21 23 -25 32 -12
7 12 4 27 -7 33 -10 7 -14 25 -8 42 6 16 1 29 -12 29 -13 0 -18 -9 -11 -20 7
-11 2 -20 -10 -20 -13 0 -20 16 -16 35 4 19 22 34 40 32 20 -1 29 9 22 25 -6
17 3 28 23 28 18 0 28 9 21 20 -7 12 2 14 22 6 27 -10 32 -5 22 20 -15 39 -2
49 88 64 37 7 77 21 88 32 13 14 8 16 -17 6 -33 -12 -34 -9 -11 28 14 23 33
37 42 32 9 -6 16 -1 16 11 0 27 -34 27 -51 0 -7 -12 -26 -17 -42 -10 -22 8
-26 1 -17 -29 10 -30 5 -37 -19 -28 -17 7 -31 2 -31 -10 0 -12 -9 -22 -20 -22
-33 0 -23 37 22 82 23 23 55 36 72 29 22 -8 27 -2 18 20 -9 25 0 30 49 22 41
-7 59 -2 53 14 -4 12 -27 22 -52 21 -24 -2 -38 3 -31 10 7 6 16 10 20 7 17 -9
109 99 98 116 -6 11 7 19 30 19 23 0 41 13 41 30 0 17 7 29 15 28 49 -8 69 6
60 41 -7 25 -2 35 15 28 14 -5 32 0 39 12 16 25 51 28 51 3 0 -9 -18 -22 -40
-28 -22 -6 -40 -20 -40 -32 0 -31 39 -28 42 3 2 14 8 -1 15 -33 7 -32 27 -62
43 -67 23 -6 24 -4 5 10 -17 11 -22 45 -16 94 10 79 31 123 31 64 0 -18 9 -33
19 -33 11 0 14 16 7 35 -7 19 -5 28 4 20 9 -8 29 1 45 20 15 19 22 24 15 10
-8 -16 -1 -20 19 -13 17 7 26 19 21 28 -6 9 7 12 28 6 20 -5 44 1 52 13 10 17
21 17 40 1 18 -15 30 -15 39 -1 8 12 2 21 -13 22 -15 0 -11 9 11 22 26 15 43
15 59 -1 30 -30 54 -28 54 6 0 16 11 33 25 37 35 13 77 -6 64 -27 -22 -35 32
-17 73 24 23 23 47 36 54 29 7 -7 0 -22 -17 -33 -22 -16 -18 -18 16 -8 31 9
49 3 57 -19 7 -17 21 -25 33 -18 12 8 7 20 -12 31 -49 27 -41 62 7 36 32 -17
43 -15 52 9 13 33 51 41 76 16z m698 -180 c-12 -31 -9 -32 21 -7 29 23 39 24
59 2 19 -20 19 -23 -1 -12 -14 8 -25 6 -25 -5 0 -11 -16 -16 -35 -13 -19 4
-53 8 -75 9 -39 2 -39 3 -1 32 52 39 73 37 57 -6z m795 -1793 c-18 -23 -16
-31 13 -39 22 -6 17 -9 -14 -7 -38 3 -49 -5 -44 -31 3 -19 -6 -35 -20 -35 -19
-1 -18 -6 3 -19 16 -10 36 -14 45 -8 9 5 16 0 16 -11 0 -37 -37 -43 -68 -11
-37 37 -42 69 -10 69 17 0 16 8 -1 28 -18 23 -15 31 18 42 23 7 41 21 41 31 0
11 10 19 22 19 17 0 16 -8 -1 -28z m-2917 -499 c12 7 1 -15 -25 -50 -45 -61
-46 -61 -74 -21 -16 22 -26 43 -22 46 35 29 88 46 94 31 3 -11 16 -13 27 -6z
m2946 -1130 c0 -137 -5 -163 -33 -163 -56 0 -73 131 -36 266 36 129 69 79 69
-103z m-2976 -14 c14 -55 21 -121 15 -149 -6 -30 -4 -40 6 -25 24 35 77 -33
69 -90 -8 -52 -104 -7 -104 48 0 16 -8 24 -18 18 -42 -26 -103 81 -67 117 16
16 17 26 22 129 4 96 46 70 77 -48z m2866 -149 c0 -49 -41 -140 -63 -140 -24
0 -21 47 6 114 13 31 22 63 20 72 -2 10 5 11 17 4 11 -7 20 -29 20 -50z
m-2775 -272 c10 -48 9 -49 -33 -14 -23 20 -45 37 -49 39 -4 3 -1 14 6 25 20
33 66 3 76 -50z m2815 56 c0 -28 -47 -64 -84 -64 -41 0 -49 51 -11 67 40 16
95 14 95 -3z m-2480 -706 c0 -19 5 -51 12 -71 7 -22 5 -28 -5 -16 -9 12 -35
29 -57 39 -37 15 -37 17 -4 25 26 6 31 15 15 33 -15 18 -12 25 9 25 17 0 30
-15 30 -35z m-74 -271 c-10 -26 -5 -31 22 -21 20 8 47 1 65 -16 17 -17 38 -25
48 -19 10 6 13 -3 7 -20 -9 -22 1 -31 35 -32 39 -2 41 -4 11 -16 -32 -13 -32
-18 -5 -53 37 -49 38 -65 6 -76 -14 -4 -4 -5 23 0 56 10 140 -63 93 -81 -15
-6 -33 2 -39 18 -6 16 -27 28 -46 27 -22 -1 -26 -5 -11 -11 14 -6 19 -21 12
-34 -7 -13 -6 -16 3 -8 9 8 28 5 43 -8 15 -12 27 -14 27 -4 0 9 9 4 20 -13 16
-25 25 -26 61 -4 24 15 38 18 31 8 -6 -11 2 -31 18 -44 36 -30 40 -67 5 -54
-14 5 -23 17 -21 27 6 32 -70 26 -83 -7 -8 -21 -2 -27 19 -19 16 7 30 3 30 -8
0 -11 -25 -30 -55 -42 l-55 -22 65 -18 c75 -21 125 -92 82 -119 -24 -16 -19
-21 16 -16 7 1 20 -11 29 -25 12 -20 22 -21 40 -3 12 12 37 18 54 11 23 -9 28
-3 18 22 -7 18 -3 33 8 33 11 0 16 7 11 16 -6 9 -3 27 5 41 19 31 88 7 75 -27
-7 -17 3 -22 28 -15 23 5 39 0 39 -15 0 -13 13 -19 29 -13 17 6 36 1 43 -11 9
-13 5 -17 -8 -9 -12 8 -32 -5 -45 -28 -20 -39 -25 -40 -57 -11 -46 42 -117 45
-83 3 20 -24 9 -28 -75 -23 -78 5 -105 -2 -126 -31 -50 -69 -211 -6 -167 65
10 15 7 19 -8 10 -13 -8 -23 -27 -23 -42 0 -21 -14 -23 -62 -10 -53 16 -58 14
-37 -11 13 -16 16 -29 6 -30 -22 0 55 -59 79 -59 10 0 13 13 7 29 -7 19 -1 25
16 18 16 -5 33 -23 39 -39 6 -15 28 -28 50 -28 22 0 45 -9 52 -20 7 -11 21
-20 32 -20 11 0 15 9 8 20 -18 28 17 25 49 -5 22 -20 24 -19 10 5 -14 26 -12
26 17 3 19 -16 34 -44 34 -63 0 -21 14 -34 33 -33 18 2 37 -10 42 -25 6 -17 1
-22 -12 -14 -36 23 -27 -18 16 -67 27 -31 36 -62 28 -100 -7 -35 0 -66 20 -85
17 -17 26 -36 20 -42 -16 -16 71 -58 92 -44 11 6 16 -19 12 -60 -8 -88 10
-101 68 -47 42 39 44 39 37 5 -5 -21 -19 -36 -32 -33 -13 3 -24 -2 -24 -11 0
-9 33 -17 74 -18 41 -1 78 -12 82 -25 6 -17 15 -16 36 1 22 18 23 30 6 51 -18
21 -14 27 20 27 37 0 40 -6 22 -40 -25 -47 15 -126 55 -111 20 8 21 1 6 -27
-15 -28 -12 -44 9 -62 17 -14 30 -37 30 -52 0 -43 51 -11 55 35 1 23 17 57 34
76 17 19 31 54 31 78 0 23 8 43 19 43 10 0 17 16 16 35 -2 22 -19 35 -49 35
-49 0 -60 -28 -25 -63 15 -15 10 -25 -20 -32 -26 -7 -36 -3 -28 10 7 11 -9 38
-35 59 -47 38 -47 39 -4 30 26 -6 48 2 54 18 8 21 -8 28 -60 28 -42 0 -65 8
-58 20 17 27 -36 26 -64 -2 -34 -34 -267 132 -266 191 0 12 9 8 20 -9 16 -25
19 -24 20 6 0 20 -14 51 -31 68 -23 23 -25 36 -9 46 16 10 13 24 -11 49 -28
27 -38 29 -52 7 -11 -18 -17 -11 -18 24 -2 44 -4 45 -17 11 -20 -51 -43 2 -40
96 0 34 6 50 13 33 6 -16 21 -37 33 -45 33 -22 76 -18 62 5 -7 12 -21 15 -31
9 -11 -6 -19 -3 -19 8 0 10 14 24 30 30 17 7 30 4 30 -5 0 -28 57 -42 72 -18
9 13 5 17 -9 8 -13 -8 -23 -2 -23 16 0 43 34 57 48 19 11 -28 18 -26 52 13 28
32 95 59 225 91 205 50 237 61 419 146 92 43 166 101 272 212 80 84 155 146
167 139 12 -7 14 -19 4 -25 -9 -7 -17 -40 -16 -73 1 -33 -8 -73 -20 -89 -16
-21 -15 -25 4 -14 24 15 17 -171 -8 -212 -5 -8 3 -15 19 -15 38 0 58 -149 29
-214 -17 -36 -17 -58 0 -85 16 -27 16 -42 0 -58 -17 -17 -16 -23 3 -23 18 0
21 -9 9 -25 -28 -40 -20 -160 11 -171 20 -7 24 1 15 25 -10 26 -6 32 16 24 32
-12 66 106 43 144 -7 11 -3 26 8 33 12 7 16 31 9 52 -23 72 8 127 51 88 20
-18 48 -30 63 -27 323 63 -61 -564 -497 -809 -301 -170 -802 -259 -1096 -195
-293 64 -456 138 -490 222 -14 32 -31 59 -40 59 -22 0 -180 218 -180 250 0 15
-8 33 -18 39 -29 17 -67 207 -54 261 29 116 107 28 115 -129 5 -117 8 -120 77
-100 47 14 47 15 6 17 -59 3 -39 61 21 64 34 2 36 5 8 12 -40 10 -49 105 -10
108 20 1 20 3 0 11 -14 6 -25 24 -25 40 0 16 9 24 20 17 11 -7 20 -3 20 9 0
34 -9 51 -25 46 -8 -3 -20 18 -27 45 -7 28 -23 50 -35 50 -13 0 -9 9 7 20 25
17 26 23 2 38 -21 14 -18 21 17 32 24 7 39 18 34 24 -6 6 -2 33 9 61 14 37 13
56 -4 66 -13 8 -18 31 -10 50 12 33 15 32 52 -1 25 -22 40 -27 40 -12 0 13
-26 35 -57 48 -46 19 -54 32 -41 64 8 22 16 30 17 17 1 -20 28 -22 81 -7 6 1
-9 10 -32 20 -49 19 -99 173 -61 186 16 5 15 17 -4 40 -14 18 -21 41 -14 52 6
10 3 25 -8 31 -10 7 -14 27 -7 44 11 30 15 30 37 -1 22 -30 25 -29 35 10 6 23
7 37 1 32 -27 -28 -87 60 -86 125 1 63 4 66 20 26 10 -25 12 -60 5 -78z m438
-541 c-9 -49 -11 -50 -37 -15 -15 20 -27 29 -27 19 0 -9 -5 -11 -12 -5 -18 18
38 71 64 61 12 -4 18 -31 12 -60z m123 11 c25 4 33 -2 25 -20 -6 -15 -18 -43
-24 -62 -18 -49 -33 -44 -71 24 -34 59 -29 91 11 66 12 -8 39 -11 59 -8z
m-614 -419 c1 -10 4 -20 6 -23 25 -30 11 -69 -21 -60 -54 14 -63 37 -34 83 24
39 43 39 49 0z m-837 -575 c14 -9 20 -31 13 -49 -7 -19 -21 -29 -31 -23 -10 7
-13 20 -7 30 6 11 2 19 -10 19 -11 0 -21 9 -21 20 0 24 21 25 56 3z"/>
<path d="M2108 10054 c-36 -40 -38 -49 -13 -94 l28 -50 -11 49 c-6 31 2 63 22
85 47 53 23 61 -26 10z"/>
<path d="M1857 9920 c-32 -35 -29 -60 6 -60 10 0 17 14 17 31 0 16 20 38 45
48 41 17 41 18 5 18 -22 0 -55 -17 -73 -37z"/>
<path d="M3140 9929 c0 -17 -7 -27 -16 -21 -9 5 -28 -10 -42 -34 -22 -36 -22
-40 0 -19 39 37 58 31 60 -20 2 -41 4 -41 12 -5 6 22 19 51 31 65 14 17 13 25
-4 25 -13 0 -18 9 -11 20 7 11 3 20 -9 20 -11 0 -21 -14 -21 -31z"/>
<path d="M3400 9916 c-1 -82 71 -138 85 -66 10 54 -14 88 -32 45 -7 -19 -15
-18 -31 5 -12 17 -22 24 -22 16z"/>
<path d="M3657 9830 c-17 -16 28 -110 53 -110 11 0 7 -9 -10 -20 -18 -12 -20
-20 -6 -20 37 0 48 32 27 83 -10 26 -20 38 -21 27 -2 -11 -9 -4 -17 16 -8 20
-20 31 -26 24z"/>
<path d="M2957 9664 c-30 -3 -59 -20 -65 -36 -9 -23 -3 -25 27 -8 27 14 43 13
53 -3 9 -15 20 -11 33 12 23 41 19 44 -48 35z"/>
<path d="M2171 9621 c-7 -11 -25 -15 -40 -9 -15 6 -33 1 -40 -11 -8 -12 -22
-16 -32 -10 -11 6 -19 3 -19 -6 0 -36 26 -42 55 -13 37 37 60 20 26 -21 -27
-32 -13 -71 25 -71 17 1 16 5 -2 17 -21 13 -20 22 5 42 17 14 25 35 17 47 -8
13 0 16 20 8 22 -8 29 -3 21 17 -13 34 -20 36 -36 10z"/>
<path d="M1612 9483 c-6 -10 -34 -18 -62 -18 -82 0 -143 -68 -81 -92 20 -7 26
1 20 30 -6 35 -3 37 26 14 28 -23 30 -23 16 1 -13 21 -9 26 12 17 16 -6 51 6
78 27 27 20 38 37 25 38 -13 0 -29 -8 -34 -17z"/>
<path d="M2380 9444 c0 -26 -8 -41 -19 -35 -29 18 -40 -16 -13 -41 31 -28 75
56 50 95 -13 19 -17 14 -18 -19z"/>
<path d="M1814 9405 c-5 -8 -2 -33 6 -55 15 -38 16 -38 31 -3 13 33 17 34 33
5 24 -43 47 -41 47 5 0 29 -12 35 -56 30 -34 -4 -52 2 -45 13 7 11 8 20 2 20
-5 0 -14 -7 -18 -15z"/>
<path d="M1667 9271 c6 -15 3 -31 -5 -35 -27 -10 -47 -96 -23 -96 11 0 21 17
21 39 0 21 9 44 20 51 27 17 25 70 -2 70 -12 0 -17 -13 -11 -29z"/>
<path d="M4177 9242 c22 -13 22 -26 3 -61 -13 -25 -19 -49 -13 -54 5 -6 15 8
22 30 8 24 25 37 40 31 15 -6 34 0 42 14 11 17 6 21 -18 12 -21 -8 -33 -3 -33
17 0 16 -16 29 -35 29 -27 -1 -29 -4 -8 -18z"/>
<path d="M3655 9183 c-8 -30 1 -37 46 -35 54 2 54 3 18 37 -47 44 -52 44 -64
-2z"/>
<path d="M1311 9082 c-6 -10 21 -21 59 -26 78 -9 95 13 25 31 -61 17 -71 16
-84 -5z"/>
<path d="M3964 8981 c2 -34 16 -61 30 -61 31 0 34 32 6 50 -12 7 -16 21 -10
30 6 9 1 23 -10 30 -13 8 -19 -10 -16 -49z"/>
<path d="M2694 8994 c6 -9 22 -12 37 -6 16 6 37 -5 47 -24 11 -19 26 -26 35
-16 10 10 6 22 -8 26 -14 5 -20 17 -14 27 6 10 -16 16 -48 13 -33 -2 -55 -11
-49 -20z"/>
<path d="M1679 8990 c-16 -94 -11 -149 16 -159 45 -17 46 -9 15 90 -15 49 -29
80 -31 69z"/>
<path d="M3247 8825 c10 -17 2 -25 -26 -25 -22 0 -41 -12 -41 -28 0 -38 80
-56 93 -21 6 16 19 24 29 18 10 -6 18 4 18 23 0 19 -6 29 -13 22 -7 -8 -27 -2
-44 11 -24 20 -28 20 -16 0z"/>
<path d="M1695 8785 c7 -20 -2 -21 -43 -6 -49 19 -51 17 -33 -18 30 -56 26
-75 -19 -87 -26 -6 -40 -27 -40 -57 -1 -37 -5 -41 -19 -17 -15 24 -24 25 -44
5 -17 -17 -18 -25 -2 -25 15 0 19 -26 12 -75 -8 -55 -5 -67 10 -46 12 17 27
23 36 15 8 -8 4 -25 -9 -38 -35 -35 -29 -65 6 -36 17 14 30 38 30 53 0 16 15
51 33 79 25 37 26 48 6 44 -15 -3 -30 11 -35 32 -6 28 0 35 24 26 31 -12 82
49 60 72 -6 6 6 20 28 32 38 20 64 12 64 -21 0 -9 -13 -11 -30 -4 -18 7 -30 0
-30 -17 0 -15 18 -29 40 -30 21 -2 37 7 35 20 -3 13 11 21 30 18 39 -6 49 28
11 41 -13 4 -16 18 -7 33 12 20 19 21 31 2 10 -16 19 -17 28 -4 7 12 -7 27
-30 35 -27 8 -49 3 -60 -14 -10 -15 -18 -18 -18 -6 0 11 -17 20 -38 20 -23 0
-33 -10 -27 -26z"/>
<path d="M1986 8773 c7 -19 -1 -39 -19 -50 -18 -9 -24 -23 -14 -29 11 -6 29
-5 41 2 34 21 39 89 8 100 -20 6 -24 -1 -16 -23z"/>
<path d="M2885 8776 c-53 -26 -57 -47 -12 -64 43 -17 64 5 26 29 -16 10 -23
19 -16 19 8 0 27 5 43 11 18 7 34 -6 43 -35 14 -41 16 -42 25 -8 16 61 -35 83
-109 48z"/>
<path d="M1120 8723 c0 -12 22 -28 50 -35 27 -7 45 -20 40 -29 -6 -9 0 -23 13
-31 14 -9 18 -6 9 9 -9 14 -2 23 17 23 17 0 31 9 31 19 0 11 -13 15 -30 8 -16
-6 -30 -1 -30 12 0 13 -9 18 -21 10 -11 -7 -34 -2 -50 12 -20 16 -29 17 -29 2z"/>
<path d="M2226 8688 c1 -29 12 -39 36 -33 18 5 40 -1 47 -13 20 -33 51 -26 38
8 -6 16 -19 25 -29 19 -10 -6 -18 -1 -18 12 0 13 -13 18 -29 12 -15 -6 -33 0
-38 13 -5 13 -8 5 -7 -18z"/>
<path d="M3567 8635 c-7 -10 3 -33 21 -51 21 -21 32 -24 32 -8 0 13 14 24 32
24 17 0 28 11 24 23 -10 29 -93 38 -109 12z"/>
<path d="M2175 8586 c-19 -5 -35 -22 -35 -37 0 -16 -9 -29 -20 -29 -11 0 -20
-11 -19 -25 0 -14 18 -4 39 21 21 25 43 45 49 45 39 -3 51 1 51 19 0 21 -7 21
-65 6z"/>
<path d="M1663 8524 c-27 -38 -34 -65 -22 -85 15 -23 18 -21 19 12 0 22 18 53
40 69 42 30 53 60 21 60 -10 0 -36 -25 -58 -56z"/>
<path d="M3680 8528 c0 -21 -11 -28 -32 -20 -55 21 -73 -11 -24 -45 47 -33 70
-33 61 0 -3 10 4 36 15 58 15 27 15 39 1 39 -12 0 -21 -14 -21 -32z"/>
<path d="M2774 8468 c11 -29 4 -33 -51 -22 l-63 13 34 -52 c29 -45 36 -48 57
-19 12 17 27 27 32 23 5 -5 10 8 12 29 1 22 -6 44 -16 51 -10 6 -13 -4 -5 -23z"/>
<path d="M2890 8480 c-7 -11 -2 -20 10 -20 12 0 19 -11 17 -25 -3 -14 6 -46
20 -72 15 -25 20 -52 12 -60 -8 -7 -18 -2 -23 12 -11 30 -66 34 -66 5 0 -11
12 -20 26 -20 14 0 25 -18 25 -40 0 -25 -10 -37 -25 -31 -31 12 -35 -21 -5
-40 37 -23 87 8 61 38 -21 26 -11 53 20 53 22 0 14 -87 -10 -104 -36 -24 1
-38 50 -18 26 11 36 20 21 21 -23 1 -23 7 -3 31 17 21 18 30 2 30 -12 0 -22
13 -22 29 0 18 12 25 30 18 17 -6 30 -2 30 9 0 31 -58 84 -91 84 -16 0 -29 14
-29 30 0 17 15 30 32 30 27 0 28 5 8 30 -29 34 -72 39 -90 10z"/>
<path d="M2098 8445 c-2 -8 -2 -21 -1 -28 2 -16 -97 -45 -132 -39 -14 2 -25
-6 -25 -17 0 -27 4 -27 132 10 59 18 108 41 108 52 0 11 -19 14 -43 6 -28 -9
-38 -6 -28 9 7 12 8 22 2 22 -6 0 -12 -7 -13 -15z"/>
<path d="M1419 8375 c34 -35 61 -76 61 -93 0 -22 6 -24 22 -8 12 12 16 41 8
67 -11 35 -18 38 -32 17 -14 -22 -21 -19 -30 15 -6 24 -29 48 -51 53 -30 8
-25 -3 22 -51z"/>
<path d="M1669 8419 c-7 -12 -26 -17 -41 -11 -43 16 -33 -24 11 -47 52 -28 52
-28 56 29 5 53 -4 63 -26 29z"/>
<path d="M3535 8376 c-9 -24 -1 -38 27 -47 25 -7 37 -24 30 -41 -7 -19 4 -28
39 -28 27 0 49 -10 49 -23 0 -13 5 -19 10 -13 23 22 -15 73 -70 96 -32 13 -61
39 -65 57 -6 30 -7 30 -20 -1z"/>
<path d="M3086 8305 c1 -41 -6 -93 -15 -115 -16 -36 -13 -36 22 4 37 40 43 41
72 13 65 -65 84 38 20 111 -72 83 -101 79 -99 -13z"/>
<path d="M3230 8332 c-36 -26 -36 -27 4 -40 23 -8 47 -27 54 -43 15 -41 43
-36 43 7 0 64 -58 108 -101 76z"/>
<path d="M1929 8301 c9 -14 -5 -47 -32 -77 -37 -42 -38 -46 -5 -19 23 19 47
29 55 22 7 -8 13 1 13 20 0 18 1 40 2 48 0 7 -10 18 -23 22 -15 5 -19 -1 -10
-16z"/>
<path d="M2573 8306 c-20 -20 -15 -86 6 -86 11 0 14 15 7 33 -9 22 -4 29 16
22 15 -5 25 -22 22 -36 -5 -20 1 -20 27 2 26 22 28 29 6 36 -15 5 -37 16 -49
26 -12 9 -28 11 -35 3z"/>
<path d="M2539 8025 c-11 -30 -32 -80 -46 -110 l-26 -55 -23 50 c-15 33 -16
50 -3 50 40 0 -16 67 -58 70 -23 2 -36 -5 -29 -16 7 -12 -14 -16 -51 -10 -35
5 -63 1 -63 -10 0 -10 -13 -8 -29 5 -16 13 -56 19 -89 14 -40 -6 -59 -1 -56
14 8 44 -257 41 -299 -3 -21 -21 -62 -54 -92 -73 -30 -20 -55 -47 -55 -61 0
-14 -13 -31 -29 -37 -16 -6 -28 -27 -28 -47 0 -31 -16 -123 -29 -164 -2 -6 13
-34 33 -62 l36 -50 -5 60 c-5 75 20 170 45 170 11 0 13 -10 6 -22 -10 -15 1
-18 33 -8 65 20 98 49 98 85 0 21 7 24 25 10 14 -11 52 -25 85 -31 72 -12 210
-62 321 -115 45 -22 90 -39 100 -39 11 -1 59 -28 108 -61 49 -33 101 -56 115
-50 16 6 26 -6 26 -30 0 -32 -9 -37 -50 -27 -65 16 -67 -27 -2 -51 27 -11 58
-35 70 -55 14 -25 21 -27 21 -8 1 39 27 10 35 -37 3 -22 -15 -55 -41 -75 -25
-20 -42 -48 -38 -61 5 -14 -28 -60 -73 -103 -77 -74 -103 -122 -66 -122 8 0
31 18 49 40 37 43 75 53 75 20 0 -11 -7 -20 -16 -20 -8 0 -12 -36 -7 -80 5
-52 -1 -80 -16 -80 -13 0 -17 10 -9 23 9 15 5 18 -10 8 -18 -11 -18 -21 -1
-43 17 -20 18 -28 1 -28 -12 0 -22 -9 -22 -19 0 -10 -45 -79 -101 -152 -135
-179 -129 -246 25 -278 29 -6 65 -22 80 -36 14 -14 58 -28 96 -31 39 -3 88 -8
110 -11 21 -4 51 5 65 19 18 19 41 21 74 9 26 -10 53 -13 60 -6 6 7 25 15 41
17 73 11 149 59 140 89 -8 23 16 39 92 62 131 40 151 6 51 -87 -122 -114 -83
-276 73 -301 41 -7 103 -27 138 -44 34 -17 70 -31 81 -31 30 0 72 -52 86 -108
15 -59 17 -60 66 -29 24 15 33 39 27 70 -7 41 -14 44 -40 22 -27 -22 -29 -16
-19 48 12 75 -2 93 -85 108 -56 10 -190 67 -161 68 20 1 16 12 -15 41 -23 22
-50 39 -58 38 -54 -9 -68 3 -39 32 17 17 40 30 53 30 21 0 70 97 100 202 18
60 -17 155 -89 240 -27 33 -45 70 -41 84 5 13 -26 46 -69 72 -44 27 -76 54
-72 61 10 16 -34 70 -63 76 -16 3 -24 -21 -22 -70 3 -74 33 -125 74 -125 12 0
44 -46 73 -102 44 -87 56 -98 82 -75 26 21 36 19 59 -13 60 -82 38 -108 -93
-107 -108 0 -127 -6 -184 -62 -44 -43 -78 -59 -114 -54 -29 4 -60 -6 -73 -23
-28 -39 -128 42 -128 105 0 22 -7 50 -15 62 -18 25 -110 34 -95 9 14 -22 -39
-50 -124 -67 -83 -15 -94 6 -55 104 36 89 88 128 74 56 -5 -27 8 -59 34 -82
41 -37 41 -37 41 21 0 33 13 78 29 101 16 23 25 47 19 52 -6 6 5 10 25 8 28
-2 39 18 50 95 8 54 26 106 41 115 14 9 17 17 6 17 -11 0 -6 9 10 20 25 17 26
23 3 38 -16 9 -24 30 -19 45 5 14 -3 39 -18 54 -23 23 -23 35 4 76 17 26 26
57 20 68 -7 10 -3 19 8 19 14 0 15 17 2 50 -10 28 -12 50 -5 50 8 0 3 8 -13
18 -15 10 -29 39 -30 65 -2 26 -15 45 -28 42 -13 -3 -24 6 -24 20 0 14 -19 37
-43 52 -24 15 -34 33 -24 40 22 15 74 183 61 196 -10 9 -80 -99 -100 -153 -6
-16 -12 -1 -12 34 -1 35 -12 70 -25 78 -15 9 -12 19 10 32 19 10 33 43 33 76
0 32 9 63 20 70 31 19 24 70 -10 70 -17 0 -40 -25 -51 -55z m114 -1646 c-24
-6 -53 -2 -66 10 -17 15 -11 24 20 32 24 6 53 2 66 -10 17 -15 11 -24 -20 -32z"/>
<path d="M3733 8010 c-13 -34 -84 -40 -104 -9 -7 12 -22 14 -36 3 -53 -40
-281 -109 -289 -87 -4 13 -17 23 -28 23 -11 0 -15 -13 -10 -28 7 -16 -4 -32
-26 -38 -26 -6 -34 -1 -26 18 20 53 -46 28 -92 -34 -51 -69 -31 -127 27 -79
18 15 31 17 31 5 0 -11 -11 -26 -25 -32 -20 -10 -20 -14 0 -24 14 -6 25 -20
25 -30 0 -12 -16 -11 -40 2 -46 25 -54 -3 -11 -39 16 -13 24 -37 17 -53 -6
-16 -15 -25 -21 -20 -23 23 -61 -38 -39 -65 16 -19 14 -31 -7 -43 -91 -57 -74
-416 20 -403 26 4 60 19 76 35 37 37 36 39 32 -47 -3 -69 -1 -71 25 -36 43 59
8 162 -79 233 -35 28 -38 38 -16 65 15 17 21 41 14 52 -8 13 7 21 38 21 28 0
51 10 51 21 0 12 -19 17 -45 11 -25 -7 -34 -6 -20 0 14 6 21 19 15 28 -6 10 8
30 31 47 26 18 34 34 20 42 -28 18 -27 91 1 91 13 0 18 -18 12 -40 -6 -22 -2
-40 8 -40 10 0 18 9 18 20 0 11 14 20 30 20 17 0 30 8 30 17 0 10 38 24 84 31
46 8 125 32 175 55 95 44 113 47 319 69 109 12 132 9 154 -21 14 -20 52 -65
84 -100 44 -48 55 -73 41 -98 -11 -20 -12 -33 -1 -33 10 0 16 -23 13 -50 -3
-28 2 -45 12 -39 9 5 12 23 6 40 -6 16 -1 29 12 29 13 0 18 8 12 18 -6 10 0
23 14 29 18 7 19 15 3 26 -12 10 -22 46 -22 82 1 95 -138 326 -174 290 -7 -6
-12 -3 -12 8 0 12 -23 31 -51 44 -62 28 -75 29 -60 4 7 -11 -12 -12 -48 -1
-36 10 -65 10 -72 -1 -20 -33 -89 -22 -76 11 6 17 7 30 1 30 -5 0 -15 -13 -21
-30z"/>
<path d="M2621 7926 c-28 -102 -11 -106 36 -8 30 63 33 82 12 82 -15 0 -36
-33 -48 -74z"/>
<path d="M3000 7820 c0 -26 -65 -88 -101 -96 -45 -11 -126 -107 -84 -100 20 4
33 -5 30 -20 -4 -20 4 -21 35 -4 22 12 40 30 40 41 0 10 12 19 28 19 15 0 36
11 47 25 29 37 47 155 25 155 -11 0 -20 -9 -20 -20z"/>
<path d="M1752 7577 c-23 -26 -38 -78 -40 -134 -2 -50 -14 -94 -28 -98 -13 -5
-23 -23 -22 -42 1 -20 5 -24 11 -8 16 38 47 30 47 -13 0 -28 -11 -36 -38 -28
-41 10 -38 -82 3 -107 13 -8 15 -3 5 13 -10 17 -6 22 12 16 15 -5 31 -26 34
-48 11 -66 154 -118 327 -118 119 0 150 5 142 26 -8 21 5 25 52 17 35 -5 68
-1 74 9 6 10 1 18 -12 18 -18 0 -18 8 1 30 14 17 37 30 52 30 33 0 36 38 6 80
-16 24 -18 21 -9 -13 14 -48 -22 -70 -87 -53 -23 6 -42 3 -42 -7 0 -10 -36
-15 -80 -10 -64 6 -80 1 -80 -26 0 -18 -9 -28 -20 -21 -12 7 -16 21 -10 30 6
10 -5 18 -25 18 -38 0 -185 37 -159 40 8 1 7 19 -4 39 -14 25 -13 44 3 60 33
33 94 28 108 -8 38 -100 205 -92 251 13 14 32 37 58 50 58 55 0 126 -48 126
-86 0 -33 9 -37 64 -26 111 22 100 49 -49 125 -102 51 -282 58 -565 21 -33 -4
-67 -4 -76 1 -16 9 60 145 95 170 21 14 1 23 -36 17 -10 -2 -13 10 -6 27 17
46 -32 38 -75 -12z"/>
<path d="M3423 7495 c-29 -19 -68 -35 -86 -35 -30 0 -67 -77 -46 -97 5 -6 9 1
9 14 0 13 17 23 37 23 21 0 61 18 89 40 28 22 92 46 143 53 125 17 129 37 7
37 -62 0 -121 -13 -153 -35z"/>
<path d="M3811 7522 c-11 -19 33 -42 80 -42 38 0 109 -62 109 -94 0 -31 -71
-33 -186 -7 -106 25 -394 37 -394 16 0 -8 -21 -15 -46 -15 -26 0 -72 -27 -103
-59 l-57 -60 53 -20 c29 -11 85 -53 125 -94 40 -42 95 -87 123 -101 59 -31 87
-34 45 -4 -23 16 -18 17 20 7 28 -8 55 -21 60 -28 10 -14 182 -12 240 2 38 9
80 49 80 76 0 11 9 21 20 21 11 0 20 12 20 28 0 15 14 38 30 52 35 29 40 100
7 100 -14 0 -18 24 -11 68 10 61 -45 158 -78 137 -24 -15 -109 -2 -98 15 7 11
3 20 -8 20 -11 0 -25 -8 -31 -18z m-321 -197 c12 -8 31 -39 44 -68 46 -104
221 -88 256 23 12 39 15 39 71 6 69 -41 74 -59 19 -76 -22 -7 -40 -21 -40 -31
0 -11 -13 -19 -29 -19 -15 0 -42 -14 -60 -31 -21 -21 -46 -27 -76 -17 -25 8
-58 16 -75 18 -91 12 -140 37 -140 72 0 21 -13 38 -30 38 -36 0 -39 43 -6 76
28 28 38 29 66 9z m-110 -44 c0 -30 -37 -45 -80 -31 -60 19 -48 50 20 50 33 0
60 -8 60 -19z"/>
<path d="M3260 7039 c0 -12 9 -16 20 -9 11 7 20 1 20 -14 1 -29 96 -126 111
-112 5 5 -16 42 -46 82 -53 70 -105 96 -105 53z"/>
<path d="M3230 6940 c20 -22 44 -40 53 -40 9 0 17 18 17 40 0 30 -13 40 -53
40 -52 0 -52 -1 -17 -40z"/>
<path d="M3694 6751 c-24 -18 -29 -32 -14 -41 12 -7 35 -3 51 11 23 19 29 18
29 -2 0 -14 5 -21 11 -14 7 6 36 -1 65 -16 57 -30 95 -18 40 13 -19 10 -46 30
-60 43 -37 36 -80 38 -122 6z"/>
<path d="M2110 6674 c-48 -28 -61 -74 -22 -74 33 0 78 51 69 78 -4 11 -23 10
-47 -4z"/>
<path d="M1729 6479 c-7 -12 3 -33 22 -47 19 -14 29 -36 21 -49 -8 -13 -5 -23
6 -23 27 0 44 31 26 49 -7 8 -15 23 -16 33 -2 10 -4 27 -5 38 -4 26 -37 26
-54 -1z"/>
<path d="M2440 6277 c0 -16 -19 -41 -42 -58 -163 -113 -256 -292 -169 -326 15
-6 31 -36 35 -67 l6 -56 290 -4 c160 -2 313 -6 340 -8 28 -2 104 5 170 14 313
47 393 -9 177 -122 -31 -16 -39 -31 -27 -51 15 -23 23 -22 54 4 20 18 46 28
58 24 13 -5 34 19 48 53 51 123 202 130 190 9 -3 -40 5 -77 22 -91 27 -22 38
-4 30 47 -1 8 11 15 28 15 59 0 32 88 -45 150 -41 33 -84 57 -95 53 -64 -22
-108 -19 -170 11 -160 76 -360 96 -360 36 0 -49 -45 -57 -78 -14 -34 45 -139
59 -252 34 -33 -8 -81 -16 -107 -19 -25 -3 -59 -19 -75 -35 -50 -49 -148 -22
-148 41 1 70 29 112 61 92 16 -10 20 -7 11 8 -8 13 -5 23 7 23 11 0 21 13 21
29 0 35 60 71 117 71 30 0 38 12 34 47 -6 62 -29 97 -53 82 -11 -7 -33 -2 -49
12 -23 19 -29 18 -29 -4z"/>
<path d="M2910 6147 c-19 -29 -23 -45 -9 -36 16 10 20 7 11 -8 -8 -13 -32 -23
-53 -23 -54 0 -49 -29 10 -56 64 -29 181 16 197 75 5 23 3 36 -6 31 -10 -6
-23 -2 -30 10 -35 56 -86 59 -120 7z"/>
<path d="M2005 6088 c7 -7 4 -35 -7 -63 -23 -61 4 -101 39 -58 24 28 1 133
-30 133 -7 0 -8 -5 -2 -12z"/>
<path d="M1993 5886 c17 -48 207 -232 207 -201 0 14 -26 53 -58 87 -32 34 -61
79 -65 100 -4 21 -27 41 -52 44 -36 5 -42 -1 -32 -30z"/>
<path d="M2444 5666 c-19 -61 -17 -83 7 -120 27 -41 27 -46 -1 -46 -16 0 -30
-10 -30 -21 0 -12 9 -16 20 -9 28 18 100 -8 95 -34 -5 -22 24 -31 163 -50 60
-8 90 -23 97 -47 19 -76 128 -103 187 -47 29 27 60 48 70 46 36 -9 134 44 172
92 21 28 56 50 77 50 22 0 39 14 39 30 0 34 -71 41 -90 10 -7 -12 -21 -16 -30
-10 -9 6 -23 2 -29 -8 -12 -20 -340 -11 -373 9 -10 6 -18 -3 -18 -20 0 -17 -9
-31 -20 -31 -11 0 -20 14 -20 32 0 20 -11 28 -30 21 -53 -20 -83 5 -75 63 8
54 -15 76 -120 115 -19 8 -35 22 -35 31 0 46 -36 10 -56 -56z"/>
<path d="M2332 5591 c7 -19 1 -31 -15 -32 -17 0 -10 -15 18 -38 52 -43 57 -61
16 -61 -16 0 -39 -18 -51 -40 -15 -27 -15 -40 -1 -40 12 0 21 14 21 31 0 24
10 22 45 -12 71 -67 124 -91 108 -50 -7 19 -13 39 -13 44 0 5 -9 4 -20 -3 -11
-7 -20 2 -20 19 0 17 -8 31 -18 31 -10 0 -14 18 -8 40 6 22 1 40 -12 40 -12 0
-22 17 -22 39 0 21 -9 44 -20 51 -11 7 -14 -1 -8 -19z"/>
<path d="M3532 5553 c6 -17 1 -49 -11 -71 -27 -51 6 -58 52 -12 16 17 20 30 8
30 -11 0 -21 13 -21 29 0 16 -9 34 -20 41 -11 7 -15 -1 -8 -17z"/>
<path d="M3440 5420 c-26 -16 -24 -23 10 -48 34 -25 41 -25 46 -1 4 16 18 29
30 29 14 0 12 9 -6 20 -37 24 -43 24 -80 0z"/>
<path d="M2498 5142 c-60 -61 -68 -89 -18 -62 35 18 49 18 67 -1 18 -19 15
-22 -12 -13 -22 8 -35 3 -35 -14 0 -15 -15 -34 -34 -41 -30 -11 -31 -16 -5
-32 21 -14 22 -18 3 -19 -15 0 -20 -10 -13 -22 9 -14 20 -15 34 -1 30 30 120
-16 105 -54 -6 -17 11 -6 39 24 51 55 66 85 33 64 -10 -6 -23 4 -30 21 -11 30
-17 30 -62 0 -55 -36 -69 -8 -20 41 35 35 39 67 9 67 -12 0 -17 7 -11 16 22
36 -19 57 -50 26z"/>
<path d="M2955 5097 c-59 -22 -76 -63 -22 -53 18 3 37 -5 42 -19 5 -17 -3 -21
-27 -12 -23 10 -30 6 -20 -10 18 -29 97 -30 126 -1 30 30 10 78 -26 65 -20 -8
-25 -2 -16 21 7 17 9 31 5 30 -4 0 -32 -10 -62 -21z"/>
<path d="M3172 4569 c-6 -18 -3 -26 8 -19 11 7 20 3 20 -9 0 -11 -22 -21 -48
-21 -69 0 -112 -20 -112 -52 0 -15 -14 -28 -31 -28 -17 0 -55 -18 -85 -40 -77
-56 -204 -36 -204 33 0 56 -55 65 -74 12 -7 -19 -22 -41 -32 -48 -24 -16 2
-62 27 -46 11 6 19 3 19 -7 0 -35 103 -122 132 -111 15 6 28 1 28 -11 0 -46
58 -20 83 38 16 36 38 56 53 50 14 -5 21 -1 14 10 -7 11 4 20 24 20 21 0 50
18 66 40 16 22 43 40 60 40 43 0 115 53 143 106 22 41 21 42 -13 14 -34 -28
-35 -27 -13 15 21 39 20 45 -14 45 -21 0 -44 -14 -51 -31z"/>
<path d="M2040 4279 c0 -11 -15 -18 -33 -15 -18 3 -37 -7 -43 -22 -5 -17 0
-22 13 -14 14 9 23 1 23 -18 0 -18 -7 -28 -16 -23 -9 6 -17 -7 -19 -29 -1 -23
6 -34 19 -25 15 9 16 4 5 -15 -23 -36 -27 -99 -6 -86 10 6 17 -17 17 -49 0
-33 12 -72 27 -87 14 -14 33 -53 41 -86 8 -33 30 -77 49 -98 18 -22 22 -32 8
-24 -14 8 -25 6 -25 -5 0 -10 14 -24 30 -30 17 -7 30 -26 30 -42 0 -17 14 -31
30 -31 50 0 60 7 54 39 -5 26 -2 26 13 3 11 -16 33 -22 53 -15 28 11 30 19 11
42 -14 16 -19 39 -12 50 8 12 5 21 -5 21 -9 0 -29 24 -42 54 -18 39 -29 47
-41 28 -11 -18 -19 -12 -27 20 -16 60 -4 70 41 36 32 -25 33 -25 8 7 -16 19
-42 35 -59 35 -17 0 -25 6 -18 13 8 7 2 27 -11 44 -17 20 -17 26 -2 17 18 -11
18 -2 0 36 -13 27 -32 50 -43 51 -11 1 -2 10 20 19 31 13 33 17 7 19 -38 1
-64 54 -36 72 31 19 1 49 -35 35 -26 -10 -30 -3 -19 41 8 29 9 53 3 53 -5 0
-10 -9 -10 -21z"/>
<path d="M2860 4057 c0 -10 8 -14 18 -8 10 6 22 1 26 -12 5 -14 23 -18 42 -11
54 20 39 48 -26 50 -33 1 -60 -8 -60 -19z"/>
<path d="M2570 3780 c-7 -11 -2 -20 11 -20 13 0 18 -13 12 -30 -8 -20 5 -34
43 -43 30 -7 61 -23 69 -35 9 -15 14 -13 15 5 0 20 7 22 25 7 19 -16 25 -7 25
38 0 43 -10 58 -36 58 -20 0 -31 -9 -24 -20 7 -11 -2 -20 -19 -20 -17 0 -31 9
-31 20 0 11 -14 20 -31 20 -17 0 -26 9 -19 20 7 11 3 20 -8 20 -11 0 -25 -9
-32 -20z"/>
<path d="M4360 4209 c0 -17 -8 -26 -19 -20 -10 6 -25 0 -33 -14 -8 -14 -7 -19
1 -11 9 8 33 6 53 -5 30 -16 35 -14 25 11 -9 23 -2 27 26 16 35 -13 35 -12 3
20 -41 42 -56 43 -56 3z"/>
<path d="M4689 4002 c6 -10 -7 -22 -29 -28 -23 -6 -39 -26 -38 -47 2 -34 3
-34 12 -2 11 45 39 45 64 0 10 -19 26 -28 35 -19 9 9 3 25 -14 35 -24 16 -24
22 -2 36 21 14 20 20 -6 30 -18 7 -28 5 -22 -5z"/>
<path d="M4286 3942 c-19 -30 -19 -40 0 -47 32 -12 74 4 74 28 0 11 -8 14 -18
8 -11 -6 -22 2 -25 19 -6 26 -11 24 -31 -8z"/>
<path d="M5166 3812 c-42 -23 -42 -25 -5 -48 21 -13 33 -36 28 -50 -6 -15 8
-43 30 -63 23 -21 41 -27 41 -14 0 13 -8 23 -18 23 -10 0 -23 15 -30 32 -9 24
-4 29 23 20 24 -8 20 1 -13 28 -54 46 -42 81 13 38 31 -25 32 -24 10 4 -13 17
-19 38 -11 45 20 20 -19 12 -68 -15z"/>
<path d="M4494 3732 c-14 -36 5 -112 28 -112 10 0 18 19 18 41 0 25 -9 36 -22
28 -15 -10 -18 0 -9 28 15 47 2 60 -15 15z"/>
<path d="M4265 3676 c-1 -19 6 -40 16 -47 11 -6 19 -31 19 -55 1 -33 5 -37 18
-17 14 23 19 23 28 0 7 -18 11 -14 12 11 1 20 -17 53 -39 73 -39 34 -40 37 -5
56 33 19 33 21 -5 18 -24 -2 -42 -18 -44 -39z"/>
<path d="M4055 3640 c14 -15 25 -35 25 -44 0 -26 -56 -18 -67 9 -6 15 -10 12
-11 -9 -1 -22 17 -36 53 -42 54 -8 54 -9 8 -24 -35 -12 -40 -20 -20 -32 53
-34 76 -19 69 42 -4 33 1 60 11 60 9 0 17 10 17 21 0 12 -9 16 -21 8 -11 -7
-36 -1 -55 13 -29 22 -30 22 -9 -2z"/>
<path d="M4653 3629 c6 -16 3 -29 -8 -29 -22 0 -19 -73 4 -95 10 -8 11 -4 3
10 -9 15 -2 25 17 25 17 0 31 10 31 21 0 12 -11 15 -25 7 -20 -11 -20 -8 0 13
33 35 32 52 -4 66 -19 7 -25 1 -18 -18z"/>
<path d="M4800 3595 c1 -46 6 -57 18 -37 10 16 14 39 9 53 -6 16 8 21 47 14
70 -13 55 5 -19 23 -52 12 -55 9 -55 -53z"/>
<path d="M5693 3571 c-6 -15 -1 -61 10 -102 16 -58 14 -78 -6 -91 -21 -14 -20
-17 6 -18 42 0 57 39 33 85 -10 20 -13 44 -7 54 6 10 0 23 -14 29 -14 6 -5 7
20 0 52 -12 57 2 16 43 -35 36 -44 36 -58 0z"/>
<path d="M5485 3510 c-25 -13 -39 -30 -32 -37 8 -7 31 3 53 22 38 34 39 33 25
-11 -9 -28 -4 -58 12 -79 23 -28 22 -31 -7 -20 -19 7 -41 2 -49 -11 -7 -13 -6
-17 4 -9 9 9 28 -9 43 -40 14 -30 23 -42 19 -25 -3 16 6 42 20 56 23 22 22 32
-3 57 -34 34 -39 67 -10 67 11 0 20 8 20 18 0 30 -48 36 -95 12z"/>
<path d="M1633 3490 c5 -14 32 -24 59 -21 62 7 88 30 36 33 -21 0 -53 4 -72 8
-21 4 -29 -4 -23 -20z"/>
<path d="M4644 3423 c-21 -13 -20 -21 3 -41 16 -13 35 -46 41 -73 13 -51 41
-64 62 -29 7 11 1 20 -14 20 -30 0 -80 97 -64 123 13 21 6 21 -28 0z"/>
<path d="M5240 3419 c0 -10 -15 -19 -34 -19 -30 0 -31 -2 -2 -25 17 -14 37
-38 44 -55 7 -16 9 -6 5 24 -5 38 3 56 25 61 28 5 27 8 -3 20 -19 8 -35 5 -35
-6z"/>
<path d="M5040 3360 c0 -22 -1 -47 -1 -54 -1 -8 9 -19 23 -23 15 -5 20 3 12
24 -7 17 -3 37 7 44 22 13 6 49 -22 49 -11 0 -19 -18 -19 -40z"/>
<path d="M1273 3350 c6 -16 19 -30 29 -30 23 0 22 -22 -1 -59 -15 -24 -23 -24
-50 -2 -18 15 -38 21 -45 14 -7 -7 -2 -13 10 -13 13 0 20 -11 17 -25 -4 -14
-3 -19 1 -12 4 7 24 8 44 3 24 -6 40 4 47 27 6 21 17 55 25 77 11 32 10 34 -8
10 -18 -26 -21 -25 -22 5 0 19 -13 35 -29 35 -18 0 -25 -12 -18 -30z"/>
<path d="M354 3347 c-7 -7 6 -39 30 -72 37 -52 44 -55 61 -26 10 19 13 39 7
46 -7 6 -12 1 -12 -12 0 -12 -9 -23 -20 -23 -11 0 -20 14 -20 30 0 17 -10 30
-21 30 -12 0 -16 9 -9 20 14 22 4 27 -16 7z"/>
<path d="M1982 3332 c-18 -21 -17 -35 6 -58 17 -16 25 -35 18 -42 -7 -6 14
-11 46 -11 52 1 54 3 16 19 -52 21 -72 68 -42 98 15 15 15 22 0 22 -11 0 -32
-13 -44 -28z"/>
<path d="M5860 3264 c-1 -29 -3 -30 -20 -4 -16 24 -19 21 -20 -16 0 -39 6 -42
38 -25 28 15 41 14 48 -4 6 -14 9 -5 8 19 -3 53 -54 81 -54 30z"/>
<path d="M4120 3265 c0 -14 1 -31 1 -39 1 -8 -14 -21 -35 -29 -31 -12 -29 -14
10 -16 26 0 41 -10 34 -21 -7 -11 2 -26 20 -33 48 -18 62 10 20 40 -20 15 -31
35 -24 46 6 10 3 32 -7 48 -13 20 -18 21 -19 4z"/>
<path d="M5455 3243 c-5 -21 -1 -52 9 -70 10 -19 10 -33 0 -33 -28 0 -66 -97
-43 -110 10 -7 19 5 19 26 0 57 57 101 81 63 15 -24 18 -23 19 6 0 20 -15 36
-35 37 -21 1 -25 5 -10 11 39 16 29 53 -10 39 -33 -11 -33 -11 0 15 19 15 29
33 21 40 -22 23 -41 14 -51 -24z"/>
<path d="M5540 3219 c0 -11 14 -20 30 -21 56 -5 67 -8 82 -23 8 -8 23 -15 33
-15 10 0 5 13 -11 29 -35 35 -134 57 -134 30z"/>
<path d="M1262 3150 c-1 -50 3 -54 20 -25 11 19 40 36 64 36 42 2 42 2 4 18
-23 9 -45 7 -53 -4 -7 -11 -17 -8 -23 8 -6 15 -11 0 -12 -33z"/>
<path d="M1647 3185 c8 -13 -5 -25 -30 -29 -24 -3 -48 -19 -52 -36 -7 -27 -6
-27 13 0 19 25 25 26 40 2 14 -22 22 -19 40 14 16 31 16 45 -1 56 -14 8 -18 5
-10 -7z"/>
<path d="M2895 3175 c-8 -19 -31 -35 -53 -35 -22 0 -46 -11 -54 -23 -10 -16
-4 -20 18 -11 18 7 38 4 45 -7 18 -29 73 35 65 76 -7 33 -8 33 -21 0z"/>
<path d="M3518 3115 c-69 -59 -76 -162 -10 -145 41 12 41 11 4 -19 -28 -21
-46 -24 -64 -10 -19 16 -22 11 -14 -25 9 -38 7 -42 -15 -21 -35 32 -52 32 -52
-1 0 -22 36 -28 93 -15 61 14 130 149 70 137 -40 -8 -36 18 9 63 35 35 39 35
47 5 6 -20 10 -10 12 21 2 67 -12 69 -80 10z"/>
<path d="M5595 3128 c-22 -21 3 -47 34 -36 21 8 25 -1 16 -34 -7 -27 -4 -39 9
-32 31 20 20 103 -15 109 -17 4 -37 0 -44 -7z"/>
<path d="M4435 3058 c6 -24 3 -39 -7 -33 -10 6 -30 -2 -44 -17 -27 -30 39 -32
69 -2 7 8 31 14 51 14 31 0 33 5 12 28 -14 15 -30 24 -34 20 -5 -4 -20 2 -34
13 -19 16 -22 11 -13 -23z"/>
<path d="M759 3049 c-16 -19 -17 -29 -3 -29 12 0 27 9 34 20 12 20 87 -12 115
-50 8 -11 15 -5 15 14 0 62 -119 95 -161 45z"/>
<path d="M3089 3005 c-27 -45 -15 -98 25 -114 26 -10 27 -6 8 17 -14 16 -18
50 -11 80 15 60 7 67 -22 17z"/>
<path d="M5948 3017 c-8 -14 -5 -18 7 -10 27 16 23 -92 -4 -111 -11 -8 -13
-21 -4 -29 23 -24 52 35 53 108 0 65 -25 85 -52 42z"/>
<path d="M4175 2949 c12 -61 -10 -64 -34 -4 -14 33 -19 36 -20 11 -1 -39 85
-108 96 -76 3 11 15 15 24 9 10 -6 13 4 6 22 -10 26 -16 27 -29 6 -13 -20 -17
-15 -18 17 0 24 -8 48 -17 54 -10 6 -13 -11 -8 -39z"/>
<path d="M2972 2829 c-6 -18 -3 -26 8 -19 11 7 20 3 20 -8 0 -11 -16 -30 -35
-42 -29 -19 -25 -20 22 -10 36 7 52 4 43 -9 -7 -12 -3 -21 9 -21 27 0 27 2
-10 77 -37 72 -40 74 -57 32z"/>
<path d="M4470 2820 c12 -19 -17 -29 -58 -21 -10 2 -6 -12 9 -30 17 -21 30
-25 35 -11 4 12 15 18 23 12 9 -5 21 8 27 30 7 27 0 40 -19 40 -16 0 -24 -9
-17 -20z"/>
<path d="M5118 2830 c-1 -11 -1 -36 1 -55 2 -20 -10 -35 -28 -35 -17 0 -31 -9
-31 -21 0 -28 72 11 86 47 6 15 2 40 -8 56 -9 15 -19 19 -20 8z"/>
<path d="M5940 2817 c0 -12 -16 -35 -35 -49 -21 -16 -25 -27 -10 -27 14 -1 25
-11 25 -23 0 -13 -17 -18 -38 -13 -28 8 -41 -2 -47 -37 -6 -28 -1 -42 11 -34
12 7 15 -10 8 -46 -7 -32 -8 -47 -1 -33 6 14 18 21 27 15 10 -6 5 -35 -11 -64
-16 -32 -23 -82 -17 -122 8 -51 5 -64 -14 -53 -15 10 -19 7 -10 -8 8 -13 21
-20 29 -15 8 5 32 -17 54 -49 21 -33 46 -59 54 -59 30 0 14 34 -37 78 -37 32
-49 59 -43 94 5 26 2 48 -7 48 -10 0 -7 23 6 50 12 28 28 50 35 50 7 0 14 17
15 39 2 26 -6 35 -26 28 -24 -10 -25 -2 -8 44 35 92 47 101 62 49 l14 -50 2
55 c1 30 -6 55 -15 55 -10 0 -13 23 -8 50 5 28 4 50 -3 50 -6 0 -12 -10 -12
-23z"/>
<path d="M2234 2765 c-7 -35 -7 -80 0 -98 21 -56 46 39 28 106 l-15 57 -13
-65z"/>
<path d="M5560 2709 c0 -44 -7 -50 -45 -39 -43 12 -43 11 5 -28 54 -44 120
-55 120 -21 0 13 -17 16 -40 9 -23 -7 -40 -4 -40 9 0 11 8 21 18 21 9 0 17 23
17 50 0 28 -8 50 -17 50 -10 0 -18 -23 -18 -51z"/>
<path d="M4189 2691 c1 -46 41 -109 58 -90 12 15 -27 139 -44 139 -8 0 -14
-22 -14 -49z"/>
<path d="M2940 2680 c0 -11 10 -20 22 -20 12 0 17 -13 11 -30 -7 -16 -1 -30
13 -31 13 0 8 -9 -11 -21 -19 -11 -35 -35 -35 -54 1 -29 3 -30 20 -4 13 20 19
22 20 5 0 -14 9 -25 19 -25 11 0 15 33 10 73 -6 42 1 86 16 105 22 28 21 29
-10 5 -23 -18 -35 -20 -35 -5 0 12 -9 22 -20 22 -11 0 -20 -9 -20 -20z"/>
<path d="M5295 2688 c-7 -7 -7 -25 -1 -40 5 -15 -1 -28 -14 -28 -19 0 -18 -9
3 -34 18 -23 19 -29 2 -19 -14 9 -25 6 -25 -7 0 -13 16 -20 35 -16 21 5 33 23
30 47 -3 21 -7 55 -9 74 -5 39 -5 39 -21 23z"/>
<path d="M2111 2645 c-6 -16 -5 -38 1 -49 7 -11 1 -28 -14 -38 -16 -10 -18
-18 -6 -18 12 0 38 18 59 41 32 36 33 39 3 28 -43 -17 -44 9 -1 40 29 22 29
24 1 24 -18 0 -37 -12 -43 -28z"/>
<path d="M3709 2639 c-7 -12 -28 -16 -46 -9 -26 10 -28 7 -8 -13 14 -14 26
-48 28 -76 2 -47 3 -48 11 -6 5 25 15 42 22 37 8 -4 14 13 14 40 0 54 -2 57
-21 27z"/>
<path d="M1620 2620 c-27 -9 -41 -18 -30 -19 11 -2 2 -12 -20 -21 -35 -15 -32
-17 18 -19 32 0 53 5 46 12 -8 7 2 25 21 39 39 30 36 31 -35 8z"/>
<path d="M2513 2564 c-37 -42 -44 -104 -11 -104 12 0 17 15 10 33 -8 19 2 42
23 58 19 14 30 31 23 37 -6 7 -27 -4 -45 -24z"/>
<path d="M5180 2529 c0 -35 -8 -47 -25 -37 -14 8 -18 7 -9 -3 23 -26 62 -27
85 -2 14 16 9 34 -15 58 -34 33 -36 33 -36 -16z"/>
<path d="M4279 2474 c-41 -32 -26 -94 22 -94 41 0 52 29 20 49 -11 7 -14 25
-8 42 14 35 7 36 -34 3z"/>
<path d="M4686 2471 c-13 -15 -36 -31 -50 -37 -20 -7 -18 -17 8 -45 32 -34 33
-33 22 13 -7 26 -5 41 4 33 18 -16 70 19 70 47 0 26 -26 21 -54 -11z"/>
<path d="M3635 2438 c-19 -21 -26 -38 -15 -38 29 0 25 -55 -5 -67 -16 -6 -12
-10 8 -11 19 -1 38 -13 43 -27 5 -15 16 -18 26 -7 11 10 8 21 -6 26 -13 5 -18
22 -12 39 7 17 -1 39 -16 49 -17 10 -19 18 -5 18 12 0 28 14 34 30 16 41 -9
35 -52 -12z"/>
<path d="M1874 2446 c-8 -12 1 -33 18 -47 26 -22 34 -21 49 2 24 39 24 59 -2
59 -12 0 -16 -9 -9 -20 7 -11 4 -20 -7 -20 -11 0 -23 11 -28 24 -5 17 -12 17
-21 2z"/>
<path d="M4220 2361 c0 -12 14 -21 30 -21 17 0 30 -12 30 -28 0 -15 16 -39 35
-55 32 -24 32 -24 8 8 -18 22 -20 35 -6 35 12 0 16 14 10 31 -7 17 -17 26 -22
21 -6 -6 -27 -2 -48 9 -25 14 -37 14 -37 0z"/>
<path d="M3380 2323 c0 -9 -20 -26 -44 -36 -37 -17 -39 -22 -10 -33 22 -8 41
1 55 27 11 22 31 34 43 26 13 -8 17 -4 8 10 -17 27 -52 31 -52 6z"/>
<path d="M480 2260 c0 -11 14 -20 30 -20 36 0 40 -53 5 -66 -14 -5 -18 -16 -9
-26 9 -10 33 4 53 31 37 48 36 49 -13 75 -61 31 -66 32 -66 6z"/>
<path d="M2661 2264 c3 -28 70 -129 84 -127 8 2 23 3 33 3 10 0 23 14 29 30
10 25 5 27 -26 10 -55 -29 -61 -26 -61 28 0 26 -13 53 -30 59 -16 7 -29 5 -29
-3z"/>
<path d="M2870 2255 c-8 -20 -3 -114 8 -155 1 -5 11 3 21 18 10 17 10 48 -1
77 -10 27 -13 57 -7 67 6 10 6 18 0 18 -7 0 -16 -11 -21 -25z"/>
<path d="M4282 2196 c18 -33 18 -46 1 -52 -13 -4 -22 -22 -21 -41 1 -21 5 -24
11 -8 6 14 18 21 26 15 9 -5 28 4 41 20 14 17 16 30 5 30 -11 0 -25 18 -31 40
-6 22 -20 40 -33 40 -16 0 -16 -12 1 -44z"/>
<path d="M3893 2181 c-35 -36 -35 -38 5 -51 23 -7 42 -22 42 -33 0 -10 10 -13
23 -5 15 9 11 20 -11 32 -22 12 -29 33 -22 57 15 47 10 47 -37 0z"/>
<path d="M4760 2199 c0 -12 10 -15 23 -7 13 8 18 3 12 -14 -5 -15 -18 -27 -27
-25 -10 2 -30 -9 -44 -25 -21 -23 -20 -28 3 -28 15 0 40 14 54 31 14 17 31 24
37 15 23 -31 102 -67 102 -46 0 12 -21 29 -47 39 -26 10 -53 32 -60 49 -13 36
-53 44 -53 11z"/>
<path d="M388 2153 c9 -28 5 -34 -19 -26 -29 12 -66 -37 -44 -58 25 -25 94 62
73 91 -18 25 -20 24 -10 -7z"/>
<path d="M5330 2160 c-7 -12 -21 -15 -31 -9 -11 6 -19 -2 -19 -19 0 -16 9 -35
20 -42 11 -7 20 -2 20 10 0 12 8 17 19 11 10 -7 17 6 16 29 -4 45 -7 48 -25
20z"/>
<path d="M5913 2136 c-6 -24 -7 -48 -2 -53 5 -6 9 1 9 14 0 13 14 23 30 23 17
0 30 -7 30 -16 0 -32 -62 -102 -86 -96 -13 3 -17 1 -8 -3 9 -5 1 -26 -18 -47
-22 -24 -25 -38 -10 -38 14 0 18 -10 10 -23 -10 -16 -4 -20 18 -11 23 9 29 3
20 -20 -8 -21 -3 -28 15 -22 45 15 46 58 1 70 -46 12 -58 46 -16 46 89 0 120
218 31 220 -7 0 -18 -20 -24 -44z"/>
<path d="M1861 2071 c-31 -56 -16 -111 30 -111 17 0 26 9 19 20 -7 12 -21 15
-31 9 -11 -6 -19 6 -19 28 0 21 14 44 30 50 17 7 30 21 30 32 0 37 -33 22 -59
-28z"/>
<path d="M2133 2046 c-26 -25 -12 -36 47 -36 33 0 57 8 54 18 -7 22 -84 36
-101 18z"/>
<path d="M600 2002 c0 -40 60 -130 91 -134 30 -5 29 -2 -1 32 -19 21 -28 47
-21 59 8 13 0 16 -21 7 -27 -10 -32 -5 -22 21 7 18 4 33 -7 33 -10 0 -19 -8
-19 -18z"/>
<path d="M1071 1975 c18 -48 86 -79 74 -34 -11 43 25 55 42 14 8 -20 10 -19
11 1 3 37 -59 54 -80 22 -12 -20 -17 -21 -18 -3 0 14 -9 25 -19 25 -11 0 -15
-11 -10 -25z"/>
<path d="M1507 1966 c-6 -24 -21 -41 -34 -38 -13 3 -17 2 -9 -3 8 -4 9 -21 3
-36 -6 -16 -3 -29 6 -29 22 0 71 123 56 138 -6 6 -16 -9 -22 -32z"/>
<path d="M4120 1915 c0 -28 6 -36 16 -21 8 13 31 22 52 20 21 -2 42 10 46 26
8 27 7 27 -12 0 -14 -19 -28 -23 -37 -10 -29 38 -65 30 -65 -15z"/>
<path d="M2594 1923 c2 -5 -13 -23 -34 -40 -57 -49 -5 -92 55 -46 38 31 38 35
8 63 -18 17 -31 27 -29 23z"/>
<path d="M4315 1903 c7 -18 3 -24 -9 -16 -13 7 -25 -12 -30 -47 -5 -33 -5 -55
1 -50 5 5 21 0 35 -12 15 -12 36 -15 48 -8 15 9 11 23 -13 40 -29 21 -32 34
-13 74 17 39 16 49 -4 49 -15 0 -21 -12 -15 -30z"/>
<path d="M5365 1927 c-14 -6 -25 -19 -25 -30 0 -11 11 -13 25 -5 14 8 5 -6
-20 -30 -49 -47 -25 -108 33 -86 18 7 23 2 14 -13 -8 -12 -5 -23 7 -23 29 0
27 66 -3 96 -19 19 -18 24 2 24 20 0 21 7 5 27 -13 15 -17 33 -9 40 14 15 8
15 -29 0z"/>
<path d="M1330 1878 c-6 -17 -3 -53 8 -79 11 -27 21 -40 22 -29 2 11 6 35 9
52 10 49 -23 96 -39 56z"/>
<path d="M4673 1870 c-7 -17 -25 -24 -42 -18 -17 7 -31 2 -31 -10 0 -33 43
-26 110 18 53 35 55 40 17 40 -23 0 -48 -13 -54 -30z"/>
<path d="M4910 1880 c-7 -12 -20 -16 -29 -11 -25 16 -14 -56 13 -84 36 -39 50
-30 25 16 -16 31 -16 49 2 70 13 16 19 29 13 29 -7 0 -17 -9 -24 -20z"/>
<path d="M1157 1855 c-1 -14 -4 -45 -7 -70 -2 -25 3 -45 13 -45 9 0 17 17 17
38 0 21 5 53 12 70 7 18 2 32 -10 32 -12 0 -23 -11 -25 -25z"/>
<path d="M3272 1829 c-7 -27 -22 -49 -34 -49 -11 0 -14 10 -6 23 9 14 5 18 -8
9 -12 -7 -17 -27 -11 -43 8 -21 19 -24 36 -10 14 12 31 14 39 6 8 -7 8 1 2 19
-8 20 -2 35 17 39 24 6 24 11 3 31 -21 19 -29 14 -38 -25z"/>
<path d="M5277 1745 c9 -19 15 -46 12 -60 -3 -15 -1 -17 4 -5 16 31 47 24 35
-9 -8 -20 0 -25 29 -18 33 9 38 3 29 -31 -6 -25 -1 -42 12 -42 17 0 18 -11 3
-39 -15 -27 -14 -43 2 -53 14 -8 18 -5 10 7 -7 12 1 36 18 53 28 28 28 33 2
44 -17 6 -26 23 -21 37 6 14 -3 38 -19 53 -50 49 -113 98 -124 98 -6 0 -2 -16
8 -35z"/>
<path d="M465 1720 c2 -24 15 -31 44 -24 38 10 39 8 11 -28 -28 -35 -27 -36 5
-11 46 37 44 49 -14 75 -41 20 -48 18 -46 -12z"/>
<path d="M4331 1721 c-8 -12 -4 -21 8 -21 11 0 21 -18 21 -40 0 -24 13 -40 32
-40 26 0 28 6 10 28 -13 15 -21 39 -18 52 8 32 -36 49 -53 21z"/>
<path d="M4660 1712 c0 -16 -11 -32 -24 -37 -19 -6 -19 -11 0 -23 13 -8 24 -5
24 7 0 11 24 21 54 21 52 0 52 -1 15 -32 -33 -27 -34 -30 -4 -20 19 6 35 2 35
-9 0 -10 8 -19 18 -19 10 0 13 19 7 43 -8 32 -5 39 15 27 17 -11 21 -8 12 7
-8 13 -23 18 -33 12 -11 -6 -19 0 -19 13 0 14 -6 19 -13 12 -7 -7 -29 -4 -50
7 -28 16 -37 14 -37 -9z"/>
<path d="M1833 1686 c-28 -28 -10 -46 46 -46 32 0 65 10 73 23 9 14 5 18 -8 9
-13 -8 -40 -5 -61 6 -21 11 -43 15 -50 8z"/>
<path d="M2878 1695 c-10 -52 -8 -71 8 -120 17 -53 54 -77 54 -35 0 11 -11 20
-25 20 -20 1 -19 4 1 17 20 13 19 28 -5 75 -17 32 -32 51 -33 43z"/>
<path d="M360 1632 c0 -15 -13 -33 -30 -39 -47 -18 -35 -51 13 -38 32 8 39 5
27 -15 -11 -18 -8 -21 9 -11 15 9 32 5 41 -9 9 -14 27 -18 40 -10 17 10 3 25
-41 43 -51 22 -60 34 -42 52 28 28 30 55 3 55 -11 0 -20 -13 -20 -28z"/>
<path d="M4311 1638 c8 -12 2 -31 -13 -41 -22 -14 -19 -17 10 -13 21 3 42 -5
47 -19 4 -14 -1 -25 -13 -25 -12 0 -22 -16 -22 -35 1 -26 5 -28 17 -9 9 14 31
20 50 13 19 -8 33 -4 33 10 0 13 -11 17 -25 8 -17 -10 -16 -4 2 19 15 18 36
29 45 23 10 -6 18 -2 18 10 0 13 -20 17 -51 9 -41 -10 -54 -5 -63 30 -6 23
-19 42 -30 42 -10 0 -12 -10 -5 -22z"/>
<path d="M4063 1542 c-36 -23 -21 -90 22 -98 19 -4 35 4 35 17 0 13 -13 18
-30 12 -35 -14 -37 -4 -9 48 23 44 21 46 -18 21z"/>
<path d="M5280 1513 c0 -9 9 -32 19 -51 26 -48 3 -127 -32 -114 -15 6 -27 -1
-27 -14 0 -14 17 -25 39 -25 21 0 34 6 30 13 -8 12 65 44 94 41 18 -2 36 75
20 85 -13 8 -52 -27 -59 -53 -7 -28 -34 -12 -28 17 3 16 -8 48 -25 73 -17 24
-31 37 -31 28z"/>
<path d="M621 1455 c-1 -38 1 -38 84 -44 30 -1 55 5 55 15 0 10 -20 14 -43 7
-28 -7 -53 1 -70 23 -24 32 -26 32 -26 -1z"/>
<path d="M1296 1463 c14 -9 20 -30 13 -48 -6 -17 0 -38 13 -47 15 -8 29 -5 34
9 4 13 18 17 31 10 13 -7 1 11 -25 40 -27 29 -59 53 -70 53 -13 0 -11 -8 4
-17z"/>
<path d="M3674 1440 c8 -29 18 -36 32 -22 14 14 29 10 47 -14 29 -38 36 -72
11 -56 -9 5 -29 0 -45 -11 -24 -17 -23 -19 6 -10 19 7 35 3 35 -7 0 -10 14
-14 30 -7 42 16 38 37 -20 99 -27 30 -50 47 -50 38 0 -8 -13 -4 -28 9 -24 19
-27 16 -18 -19z"/>
<path d="M3300 1379 c0 -12 -7 -17 -16 -12 -8 6 -15 -8 -15 -30 0 -36 2 -37
24 -6 14 19 39 29 56 22 17 -6 31 -4 31 5 0 10 -14 23 -32 30 -43 16 -48 15
-48 -9z"/>
<path d="M2479 1348 c-16 -20 -19 -30 -6 -22 12 7 51 -1 86 -18 78 -39 96 -28
38 24 -24 21 -37 27 -29 13 21 -36 -9 -31 -37 7 -21 29 -26 28 -52 -4z"/>
<path d="M4380 1360 c0 -12 8 -17 19 -11 10 6 24 3 31 -9 7 -11 -2 -20 -19
-20 -17 0 -31 -9 -31 -20 0 -12 18 -12 50 0 61 23 64 7 9 -52 -32 -34 -37 -52
-22 -81 11 -20 25 -54 32 -74 9 -29 18 -32 38 -15 15 12 34 15 43 7 9 -8 10
-4 2 10 -8 14 -30 26 -48 27 -21 1 -24 5 -9 11 14 6 24 25 23 44 0 19 -5 23
-11 9 -5 -13 -22 -19 -38 -13 -24 9 -21 22 12 69 35 49 38 63 15 93 -30 40
-96 57 -96 25z"/>
<path d="M2740 1299 c0 -10 10 -19 21 -19 14 0 17 -34 9 -95 l-12 -95 32 68
c17 38 26 84 20 103 -13 38 -70 70 -70 38z"/>
<path d="M5068 1265 c14 -24 -5 -32 -68 -28 -16 1 -10 -8 15 -20 25 -13 46
-33 46 -45 1 -12 10 0 21 26 13 34 12 55 -4 70 -18 16 -20 15 -10 -3z"/>
<path d="M3267 1201 c-8 -39 -21 -55 -39 -47 -18 6 -28 -3 -28 -27 -1 -28 -5
-30 -18 -10 -13 21 -19 20 -29 -5 -15 -42 15 -41 82 3 51 33 52 33 40 0 -8
-19 -6 -35 4 -35 10 0 18 41 18 90 0 103 -13 116 -30 31z"/>
<path d="M3980 1242 c0 -10 11 -23 25 -29 19 -7 18 -15 -5 -31 -26 -19 -26
-21 2 -22 47 0 59 21 37 63 -21 38 -59 51 -59 19z"/>
<path d="M3556 1165 c-28 -58 -71 -65 -59 -10 5 26 1 28 -22 9 -16 -13 -35
-18 -42 -10 -7 7 -13 2 -13 -11 0 -12 14 -23 30 -23 17 0 30 -9 30 -19 0 -11
-13 -15 -30 -8 -17 6 -30 0 -30 -14 0 -14 6 -20 13 -13 7 8 28 3 45 -11 18
-13 25 -16 17 -6 -8 9 1 29 20 43 47 36 72 35 57 -3 -7 -19 -3 -26 9 -18 11 7
15 30 8 52 -7 21 -1 52 12 68 15 19 16 29 3 29 -12 0 -34 -25 -48 -55z"/>
<path d="M5921 1155 c-1 -20 -16 -35 -36 -35 -29 -1 -30 -4 -6 -19 16 -10 37
-14 46 -8 9 6 28 1 42 -10 18 -15 24 -11 24 17 0 20 -6 33 -14 28 -8 -5 -24 7
-35 27 -20 33 -21 33 -21 0z"/>
<path d="M2020 1131 c0 -17 14 -31 31 -31 17 0 26 -9 19 -20 -7 -11 2 -14 21
-7 23 9 25 17 9 27 -13 8 -22 22 -21 32 2 10 -11 21 -28 24 -18 4 -31 -7 -31
-25z"/>
<path d="M3930 1135 c-8 -19 -22 -30 -32 -24 -10 6 -14 -9 -10 -35 5 -25 10
-50 11 -56 1 -5 15 16 32 48 16 32 26 68 22 80 -5 12 -15 6 -23 -13z"/>
<path d="M5390 1100 c-7 -22 -21 -35 -31 -29 -11 6 -19 1 -19 -11 0 -13 16
-19 35 -15 19 4 33 18 30 32 -7 34 56 54 74 24 12 -18 19 -16 28 7 9 25 -2 32
-46 32 -41 0 -62 -12 -71 -40z"/>
<path d="M4128 1077 c-9 -14 -5 -18 9 -9 15 9 23 -1 23 -27 0 -22 -7 -42 -15
-42 -8 -1 -40 -5 -70 -9 -30 -4 -55 1 -55 11 0 11 -10 19 -22 19 -16 0 -15
-10 2 -30 14 -17 19 -37 12 -45 -8 -8 -23 -1 -33 16 -16 25 -18 25 -19 -3 0
-49 24 -61 58 -29 18 15 39 29 47 29 58 4 115 31 115 53 0 14 20 30 45 35 l45
9 -45 2 c-25 2 -45 12 -45 23 0 27 -34 25 -52 -3z"/>
<path d="M101 1065 c1 -20 139 -84 139 -64 0 9 -11 20 -25 26 -15 6 -10 11 11
11 20 1 31 11 23 23 -8 14 -23 12 -44 -5 -25 -21 -33 -21 -40 -1 -9 27 -65 35
-64 10z"/>
<path d="M2820 1031 c0 -16 -18 -39 -40 -51 -22 -12 -39 -37 -38 -56 2 -30 4
-30 11 -1 5 18 25 37 45 42 37 10 73 95 40 95 -10 0 -18 -13 -18 -29z"/>
<path d="M4466 1007 c-14 -35 13 -90 50 -102 32 -11 30 26 -3 59 -14 14 -22
38 -18 51 12 37 -14 30 -29 -8z"/>
<path d="M5931 996 c23 -71 69 -109 69 -56 0 23 -9 37 -20 30 -11 -7 -20 6
-20 29 0 22 -10 41 -21 41 -13 0 -16 -17 -8 -44z"/>
<path d="M520 978 c0 -10 -13 -18 -30 -18 -16 0 -30 -9 -30 -21 0 -13 15 -13
43 2 33 18 46 17 59 -4 13 -20 17 -20 18 -2 0 14 2 31 5 38 3 7 -11 15 -30 18
-19 3 -35 -3 -35 -13z"/>
<path d="M5454 946 c-31 -31 -38 -32 -54 -6 -12 18 -20 20 -20 6 0 -25 34 -53
75 -59 14 -2 20 6 13 17 -8 13 4 15 34 7 27 -8 38 -6 26 3 -12 9 -26 27 -30
42 -6 18 -18 16 -44 -10z"/>
<path d="M1030 920 c-6 -10 -4 -35 6 -55 10 -19 14 -48 9 -65 -8 -23 -4 -25
15 -6 16 14 19 37 10 60 -9 20 -14 47 -12 61 5 30 -11 33 -28 5z"/>
<path d="M3560 916 c0 -21 25 -29 90 -29 88 0 107 21 23 25 -23 1 -59 9 -78
17 -24 11 -35 6 -35 -13z"/>
<path d="M3782 872 c-1 -21 -8 -33 -15 -26 -15 15 -67 -22 -67 -48 0 -9 14
-12 30 -5 33 13 42 -23 10 -43 -11 -7 -20 -23 -19 -36 0 -13 14 -6 30 15 16
22 26 51 21 64 -6 13 0 28 11 31 12 4 17 25 12 47 -10 37 -10 38 -13 1z"/>
<path d="M5829 862 c6 -10 0 -23 -14 -28 -46 -16 2 -39 55 -26 45 12 48 17 22
43 -32 32 -81 40 -63 11z"/>
<path d="M905 805 c1 -36 10 -65 20 -65 11 0 9 -13 -5 -30 -14 -17 -16 -30 -5
-30 35 0 40 47 14 120 l-25 70 1 -65z"/>
<path d="M2525 847 c-14 -6 -25 -20 -25 -32 0 -12 6 -16 13 -9 6 7 37 -1 69
-17 31 -16 68 -28 82 -27 14 1 -4 14 -40 30 -36 16 -60 38 -54 48 13 21 -4 23
-45 7z"/>
<path d="M5268 834 c2 -13 10 -35 19 -49 8 -14 8 -25 -1 -25 -9 0 -4 -8 11
-18 15 -9 47 -12 70 -6 41 11 41 12 -7 24 -29 8 -49 26 -47 45 1 18 -9 37 -23
42 -15 6 -24 0 -22 -13z"/>
<path d="M3965 756 c9 -24 2 -29 -31 -20 -41 10 -42 9 -11 -21 20 -21 52 -30
85 -24 33 6 53 1 53 -16 1 -14 9 -7 18 15 21 52 13 58 -37 31 -34 -18 -42 -17
-42 7 0 16 -11 36 -23 44 -16 10 -20 4 -12 -16z"/>
<path d="M4590 740 c-14 -43 -50 -55 -50 -17 0 13 -5 19 -10 13 -13 -13 10
-76 27 -76 45 1 110 120 66 120 -11 0 -26 -18 -33 -40z"/>
<path d="M4758 665 c-6 -35 -2 -73 8 -83 21 -21 74 -7 74 20 0 9 -13 12 -29 6
-20 -8 -30 7 -35 55 l-7 67 -11 -65z"/>
<path d="M744 645 c10 -73 -14 -88 -35 -22 -13 41 -14 41 -61 -14 -28 -33 -48
-44 -48 -27 -1 24 -3 24 -18 0 -10 -15 -28 -21 -40 -13 -12 7 -22 5 -22 -6 0
-11 10 -23 22 -27 14 -5 10 -18 -10 -35 -28 -23 -31 -22 -21 4 6 17 2 37 -10
44 -12 8 -16 23 -9 35 8 12 2 17 -13 12 -15 -5 -30 -19 -35 -33 -4 -13 0 -22
9 -19 22 8 27 -9 27 -88 0 -60 -2 -61 -29 -25 -33 45 -31 21 9 -107 22 -70 22
-90 0 -110 -21 -19 -23 -18 -10 4 10 18 8 23 -5 15 -34 -21 -6 -92 32 -80 28
9 28 8 4 -10 -17 -11 -23 -27 -16 -35 8 -8 4 -27 -8 -42 -18 -21 -16 -24 9
-15 17 7 53 -3 81 -21 54 -35 364 -41 385 -6 7 10 21 10 35 -1 16 -14 24 -5
26 32 2 32 -3 42 -12 26 -29 -46 -40 11 -16 76 16 43 34 60 55 53 24 -8 23 -5
-3 16 -35 27 -54 110 -33 144 7 11 0 47 -16 80 -17 36 -23 42 -16 15 8 -35 4
-42 -21 -33 -17 7 -26 20 -20 30 16 25 -30 101 -52 87 -10 -6 -19 -2 -19 10 0
11 -13 21 -30 21 -16 0 -30 9 -30 19 0 11 16 15 35 9 19 -6 13 3 -15 19 -27
16 -47 36 -43 43 3 7 0 19 -8 27 -8 7 -10 -16 -5 -52z m20 -180 c44 -50 52
-87 34 -151 -14 -50 -11 -55 23 -44 41 13 54 -18 18 -41 -14 -8 -14 -21 2 -41
13 -15 18 -42 11 -61 -12 -30 -16 -30 -42 5 -26 35 -29 35 -29 3 -1 -39 -41
-49 -41 -11 0 19 -5 19 -24 0 -38 -38 -60 -28 -45 21 14 45 14 45 -28 7 -51
-45 -82 -27 -48 28 15 24 17 43 5 50 -43 27 -22 73 22 49 37 -20 39 -18 20 18
-70 130 33 270 122 168z"/>
<path d="M668 412 c-15 -39 26 -112 63 -112 30 0 38 53 17 108 -15 40 -66 42
-80 4z"/>
<path d="M4240 659 c0 -10 -13 -13 -30 -6 -16 6 -30 3 -30 -7 0 -10 32 -18 70
-18 39 1 67 10 64 20 -8 24 -74 34 -74 11z"/>
<path d="M5464 640 c5 -40 -2 -49 -34 -45 -38 6 -38 5 -3 -17 57 -35 102 17
61 72 -28 38 -29 38 -24 -10z"/>
<path d="M1367 603 c18 -20 28 -41 23 -47 -6 -5 -2 -32 9 -58 18 -44 19 -42
17 22 -3 74 -27 120 -62 120 -11 0 -5 -16 13 -37z"/>
<path d="M5240 611 c0 -30 74 -63 96 -42 7 7 -8 18 -34 25 -34 9 -39 16 -19
28 21 13 19 17 -8 18 -19 0 -35 -13 -35 -29z"/>
<path d="M4060 600 c0 -11 -7 -19 -15 -18 -8 2 -31 2 -50 0 -43 -3 -47 -42 -5
-42 17 0 30 9 30 19 0 11 12 15 27 9 15 -6 33 4 40 21 6 17 3 31 -8 31 -10 0
-19 -9 -19 -20z"/>
<path d="M4460 570 c-14 -17 -20 -37 -13 -44 7 -7 13 -2 13 11 0 13 10 23 22
23 13 0 18 -18 12 -40 -9 -35 -5 -37 33 -16 27 14 34 26 18 31 -14 5 -25 21
-25 37 0 37 -29 36 -60 -2z"/>
<path d="M5127 546 c5 -37 0 -68 -14 -73 -13 -6 -8 -11 10 -11 46 -3 55 39 23
98 l-28 50 9 -64z"/>
<path d="M3402 556 c-1 -19 17 -45 40 -57 34 -18 41 -17 34 4 -5 15 5 39 22
54 18 15 8 13 -22 -4 -49 -30 -54 -30 -62 2 -9 33 -10 33 -12 1z"/>
<path d="M5822 497 c-1 -19 -10 -37 -20 -40 -10 -4 -4 -20 14 -36 28 -26 30
-26 18 7 -11 27 -7 34 15 25 16 -6 35 -3 42 8 6 10 -2 19 -18 19 -16 0 -34 11
-40 25 -6 16 -10 12 -11 -8z"/>
<path d="M1162 465 c-24 -26 -22 -28 14 -16 30 9 50 2 68 -28 14 -23 36 -41
49 -41 12 0 28 -22 35 -50 12 -48 52 -71 52 -30 0 11 -8 20 -18 20 -10 0 -23
23 -30 50 -7 28 -26 50 -43 50 -17 0 -35 13 -41 28 -17 43 -55 51 -86 17z"/>
<path d="M355 438 c-19 -11 -44 -15 -54 -9 -11 7 -28 -5 -40 -26 -26 -49 24
-40 99 18 54 41 51 50 -5 17z"/>
<path d="M1051 422 c-6 -10 0 -23 14 -28 14 -5 0 -16 -30 -24 -30 -8 -50 -22
-44 -31 18 -29 109 25 109 64 0 39 -30 50 -49 19z"/>
<path d="M1472 397 c8 -13 16 -47 17 -75 3 -43 12 -51 52 -45 68 9 93 37 60
68 -22 20 -25 18 -14 -11 10 -28 4 -35 -22 -30 -19 4 -34 23 -32 42 1 18 -6
29 -15 23 -10 -6 -18 3 -18 20 0 17 -10 31 -21 31 -12 0 -15 -11 -7 -23z"/>
<path d="M5368 372 c-18 -39 -17 -47 5 -38 15 6 27 23 27 39 0 23 9 22 50 -5
46 -30 50 -30 38 -1 -7 18 -20 33 -29 33 -8 0 -28 5 -42 10 -15 6 -37 -11 -49
-38z"/>
<path d="M3469 358 c-34 -54 60 -103 102 -54 39 46 39 46 -1 13 -43 -36 -91
-11 -75 38 10 31 -8 33 -26 3z"/>
<path d="M5860 310 c-13 -16 -31 -26 -38 -21 -7 4 -15 -12 -17 -36 -3 -32 7
-44 36 -44 43 0 51 21 16 43 -15 9 -12 19 11 32 18 10 41 13 52 6 11 -7 14 1
8 19 -15 39 -36 39 -68 1z"/>
<path d="M4244 125 c18 -4 36 -21 40 -39 5 -26 13 -25 53 8 l48 38 -88 1 c-48
0 -72 -3 -53 -8z"/>
</g>
</svg>
