<?xml version="1.0" standalone="no"?>
<!DOCTYPE svg PUBLIC "-//W3C//DTD SVG 20010904//EN"
 "http://www.w3.org/TR/2001/REC-SVG-20010904/DTD/svg10.dtd">
<svg version="1.0" xmlns="http://www.w3.org/2000/svg"
 width="900.000000pt" height="1599.000000pt" viewBox="0 0 900.000000 1599.000000"
 preserveAspectRatio="xMidYMid meet">
<metadata>
Created by potrace 1.10, written by Peter Selinger 2001-2011
</metadata>
<g transform="translate(0.000000,1599.000000) scale(0.100000,-0.100000)"
fill="#000000" stroke="none">
<path d="M3811 15150 c-46 -10 -88 -23 -94 -29 -6 -6 -28 -11 -48 -11 -20 0
-42 -6 -48 -14 -6 -8 -31 -19 -54 -24 -50 -13 -94 -56 -99 -96 -4 -39 -17 -41
-62 -11 -20 14 -45 25 -54 25 -9 0 -28 9 -42 20 -36 28 -101 26 -137 -3 -76
-62 -139 -101 -172 -106 -26 -5 -39 -14 -48 -33 -8 -14 -25 -29 -40 -33 -32
-8 -43 -21 -43 -54 0 -14 -16 -39 -42 -65 -37 -36 -75 -81 -158 -188 -11 -15
-37 -32 -58 -39 -64 -21 -157 -77 -181 -110 -21 -28 -27 -31 -64 -26 -39 5
-43 3 -93 -47 -29 -30 -55 -67 -59 -84 -3 -17 -17 -38 -31 -46 -31 -21 -63
-84 -71 -142 -4 -29 -16 -59 -33 -78 -14 -17 -43 -60 -64 -96 -20 -36 -50 -74
-66 -85 -16 -11 -56 -57 -89 -103 -34 -45 -86 -100 -116 -122 -35 -26 -61 -54
-70 -77 -9 -21 -19 -40 -24 -43 -17 -11 -64 -96 -88 -159 -13 -36 -31 -73 -38
-81 -7 -8 -17 -28 -21 -45 -4 -16 -13 -42 -20 -57 -16 -31 -44 -218 -44 -290
0 -51 27 -144 60 -206 11 -20 20 -42 20 -48 0 -18 32 -77 62 -114 15 -19 28
-39 28 -45 1 -22 109 -142 160 -178 69 -48 76 -60 60 -107 -9 -26 -11 -93 -7
-241 7 -229 19 -320 47 -357 12 -14 20 -40 20 -62 0 -58 20 -150 41 -189 10
-20 19 -46 19 -59 0 -12 27 -78 61 -147 33 -68 60 -132 60 -142 -2 -168 -8
-253 -20 -266 -7 -9 -11 -24 -9 -34 3 -15 14 -18 58 -18 68 0 78 -6 72 -45 -5
-38 15 -80 39 -80 22 0 30 -12 20 -28 -4 -6 -4 -42 0 -79 4 -39 3 -72 -2 -78
-14 -14 -11 -43 11 -85 31 -61 27 -137 -9 -186 -46 -63 -70 -84 -96 -84 -25 0
-55 -33 -55 -61 0 -15 32 -39 131 -95 10 -6 27 -18 37 -27 20 -18 42 -22 42
-9 0 5 -8 24 -17 43 -24 46 -23 193 1 217 36 36 56 -3 106 -205 22 -90 22
-154 0 -168 -9 -6 -45 8 -72 27 -14 10 -20 10 -30 0 -21 -21 26 -54 71 -50
l36 3 0 -54 c0 -48 3 -54 28 -68 16 -8 32 -12 35 -8 13 12 2 219 -13 251 -11
23 -12 39 -4 66 7 28 6 46 -7 80 -8 23 -19 61 -24 83 -5 22 -21 81 -36 130
-29 99 -31 148 -25 620 1 116 2 219 1 230 -2 23 -3 65 -3 280 -1 168 9 265 34
355 5 19 14 82 19 140 5 58 14 128 19 155 24 134 30 161 36 177 5 13 0 17 -22
20 -30 3 -35 21 -6 26 21 3 48 52 29 52 -7 0 -20 6 -30 13 -17 13 -17 16 -2
44 15 29 14 33 -5 57 -27 34 -35 33 -54 -8 -13 -27 -14 -39 -5 -55 8 -16 7
-27 -7 -48 -10 -16 -21 -30 -24 -33 -15 -11 -47 -128 -42 -153 6 -32 6 -32 39
-11 30 20 39 14 29 -23 -5 -15 -7 -34 -6 -42 4 -24 -40 -61 -66 -55 -19 5 -23
2 -23 -15 0 -23 19 -28 37 -10 13 13 33 4 33 -15 0 -8 -7 -27 -15 -42 -8 -16
-15 -41 -15 -56 0 -25 -3 -27 -30 -21 -23 4 -30 2 -30 -10 0 -9 4 -18 9 -22 5
-3 10 -18 11 -33 0 -15 1 -40 3 -57 1 -22 -2 -29 -13 -27 -11 3 -11 -1 3 -16
9 -10 17 -28 17 -40 0 -24 -31 -45 -53 -36 -8 3 -18 1 -21 -5 -4 -6 5 -13 21
-17 15 -3 33 -7 38 -9 16 -4 6 -85 -11 -85 -8 0 -14 -4 -14 -10 0 -5 6 -10 14
-10 16 0 28 -79 15 -95 -5 -5 -9 -25 -9 -45 0 -19 -4 -41 -9 -49 -7 -10 -3
-23 10 -39 24 -32 24 -53 -2 -75 -19 -17 -20 -26 -2 -73 5 -14 -44 -47 -58
-38 -6 3 -7 19 -4 35 5 21 1 36 -14 55 -11 14 -17 32 -14 40 12 31 -7 84 -37
99 -20 10 -27 20 -23 34 3 11 -3 27 -15 39 -10 10 -22 40 -25 66 -4 25 -16 59
-28 75 -12 16 -23 47 -25 68 -1 21 -5 45 -9 54 -3 9 3 23 15 34 11 10 20 23
20 28 0 6 10 21 21 33 14 15 19 29 14 41 -6 16 -8 15 -16 -7 -13 -33 -14 -33
-38 -20 -16 8 -20 17 -15 35 5 20 1 26 -31 39 -32 14 -36 19 -30 38 14 44 17
100 6 111 -13 13 -15 89 -2 102 13 15 22 93 11 100 -19 12 -10 45 15 55 23 9
24 11 11 40 -7 17 -22 37 -34 46 -21 15 -20 44 2 44 6 0 22 9 36 20 24 18 24
20 7 37 -16 17 -18 17 -47 0 -23 -14 -34 -15 -50 -7 -29 16 -26 50 4 50 17 0
29 9 39 29 8 17 12 32 9 35 -8 9 -55 -5 -74 -21 -21 -19 -58 -8 -58 18 0 11
-16 29 -42 45 -54 34 -60 42 -54 76 4 20 1 28 -14 33 -14 4 -20 15 -20 36 0
19 -5 29 -15 29 -25 0 -55 38 -55 69 0 16 -7 34 -15 41 -10 8 -15 31 -15 66 0
29 -4 56 -10 59 -13 8 -13 48 0 61 7 7 3 23 -10 49 -21 42 -26 85 -10 85 6 0
10 -14 10 -31 0 -29 2 -31 28 -24 43 10 47 21 27 64 -18 41 -18 58 3 173 5 27
16 56 25 66 9 10 22 34 28 53 7 19 18 41 26 50 8 9 17 28 21 42 7 24 74 109
142 177 19 19 42 52 52 72 12 27 25 39 45 43 52 11 78 29 78 56 1 34 50 116
75 124 15 5 20 15 20 40 0 21 9 44 24 62 21 24 26 26 40 14 9 -8 15 -23 14
-34 -2 -11 3 -22 9 -24 23 -8 25 26 4 70 -29 60 -26 87 13 139 27 35 45 48 80
57 44 11 45 12 48 53 3 38 6 43 29 46 15 2 37 14 50 28 12 13 30 24 39 24 9 0
25 9 35 20 12 14 25 18 41 14 19 -5 24 -2 24 14 0 28 64 78 109 86 40 6 64 27
76 64 12 41 178 212 205 212 9 0 22 11 28 25 9 19 19 25 41 25 26 0 36 8 66
55 19 30 38 55 42 55 18 -1 31 -17 30 -35 -1 -10 7 -24 18 -29 11 -6 20 -20
20 -31 0 -31 27 -24 37 10 33 109 90 122 150 34 34 -48 48 -50 48 -6 0 17 5
39 10 47 8 13 14 13 44 -4 35 -19 61 -14 52 9 -7 19 14 33 60 43 30 6 45 17
63 45 26 40 59 49 81 22 7 -8 21 -15 31 -15 12 0 21 -10 25 -25 3 -14 13 -25
22 -25 12 0 13 3 4 12 -19 19 -14 46 12 64 14 8 26 25 28 37 2 17 11 23 36 25
31 3 32 2 26 -22 -5 -20 -2 -26 10 -26 17 0 36 -29 36 -57 0 -10 4 -24 9 -32
8 -12 12 -12 25 -2 23 19 20 45 -10 74 -25 26 -25 47 0 47 7 0 27 -13 44 -30
35 -33 50 -37 58 -15 9 21 37 19 52 -5 10 -17 16 -18 37 -8 30 13 71 -9 85
-48 12 -30 30 -23 30 12 0 41 44 32 96 -21 40 -41 48 -45 78 -39 20 3 36 1 40
-5 4 -6 15 -11 25 -11 28 0 46 -26 31 -45 -10 -12 -10 -18 0 -30 17 -20 43 0
35 26 -7 20 -2 22 54 19 30 -2 41 6 91 59 67 71 96 78 129 32 12 -16 21 -39
21 -50 0 -26 8 -26 40 -1 25 19 25 19 5 34 -16 11 -17 17 -8 27 9 9 17 8 37
-5 14 -9 38 -16 53 -16 38 0 72 -25 66 -48 -3 -14 6 -23 37 -37 43 -19 75 -55
75 -84 0 -11 8 -15 23 -13 18 1 26 -5 34 -26 15 -40 76 -72 136 -72 39 0 53
-5 73 -26 15 -16 32 -24 44 -21 18 3 20 -1 17 -26 -4 -25 -2 -29 13 -24 46 18
61 18 79 -2 11 -12 25 -21 31 -21 7 0 20 -11 29 -25 9 -14 25 -25 35 -25 10 0
26 -9 36 -20 10 -11 28 -20 41 -20 35 0 54 -11 54 -30 0 -10 12 -25 26 -35 23
-15 25 -22 20 -53 -4 -26 -1 -41 11 -54 15 -17 15 -19 0 -36 -21 -23 -22 -42
-2 -42 16 0 35 -30 35 -55 0 -32 104 -156 153 -181 32 -17 35 -39 7 -54 -26
-14 -16 -30 19 -30 47 0 71 -48 34 -69 -15 -8 -13 -10 12 -16 52 -11 55 -14
55 -37 0 -32 7 -39 70 -77 105 -63 151 -126 128 -176 -9 -20 -8 -28 5 -43 10
-10 17 -24 17 -31 0 -8 6 -11 15 -7 9 3 19 -3 25 -15 9 -16 6 -31 -14 -74 -15
-29 -26 -71 -26 -93 0 -23 -6 -45 -15 -52 -8 -7 -15 -22 -15 -34 0 -12 -5 -27
-12 -34 -9 -9 -9 -15 0 -24 15 -15 16 -54 2 -63 -6 -3 4 -18 21 -33 18 -14 43
-49 56 -77 13 -27 37 -68 53 -90 31 -43 38 -92 20 -141 -8 -21 -7 -29 6 -39
11 -8 15 -20 11 -35 -3 -12 1 -40 10 -62 14 -36 14 -40 -3 -59 -17 -19 -17
-20 5 -26 18 -4 21 -10 16 -27 -4 -11 -7 -36 -6 -54 0 -18 -6 -44 -15 -57 -9
-14 -14 -32 -10 -40 3 -9 -4 -25 -15 -36 -13 -13 -22 -38 -25 -72 -3 -29 -7
-61 -9 -72 -2 -11 -4 -24 -4 -28 -1 -5 -10 -6 -21 -2 -19 6 -19 3 -13 -56 5
-48 3 -64 -8 -73 -8 -6 -21 -38 -28 -71 -8 -33 -24 -82 -37 -110 -18 -35 -22
-58 -18 -82 4 -20 1 -39 -6 -48 -7 -9 -10 -26 -6 -41 5 -17 0 -36 -15 -60 -13
-21 -18 -41 -14 -52 4 -9 9 -38 11 -64 3 -38 -1 -53 -19 -74 -21 -24 -28 -26
-65 -19 -44 7 -53 23 -27 45 18 15 20 51 3 68 -6 6 -13 42 -15 78 -4 71 -14
94 -43 94 -25 0 -34 -54 -16 -94 21 -47 30 -104 27 -169 -2 -39 2 -65 13 -81
12 -19 13 -25 2 -29 -8 -3 -15 -31 -19 -71 -3 -36 -11 -75 -17 -85 -5 -11 -10
-42 -10 -70 0 -27 -5 -62 -12 -78 -6 -15 -12 -62 -14 -103 -3 -81 -6 -111 -23
-240 -6 -46 -11 -136 -11 -200 -1 -143 -29 -271 -99 -453 -16 -42 -32 -96 -36
-119 -4 -24 -14 -50 -21 -59 -8 -9 -16 -38 -18 -65 -4 -62 -26 -165 -39 -181
-5 -7 -6 -16 -3 -22 4 -5 1 -21 -5 -35 -9 -20 -9 -32 -1 -51 9 -18 9 -32 0
-52 -6 -16 -12 -48 -13 -72 -2 -32 -9 -49 -24 -60 -15 -11 -20 -23 -15 -34 4
-12 0 -23 -11 -31 -10 -7 -15 -18 -12 -23 13 -20 -22 -171 -59 -261 -8 -18
-14 -37 -14 -43 0 -6 -11 -25 -24 -42 -14 -18 -27 -45 -31 -62 -15 -67 -39
-131 -66 -174 -16 -25 -29 -52 -29 -61 0 -8 -8 -31 -19 -50 -10 -19 -24 -52
-31 -74 -7 -21 -23 -55 -36 -74 -14 -20 -27 -46 -30 -59 -3 -12 -21 -32 -40
-44 -22 -13 -34 -28 -34 -42 0 -32 -91 -123 -130 -130 -25 -6 -30 -10 -25 -26
6 -20 -10 -43 -69 -99 -81 -76 -156 -154 -156 -161 0 -4 -11 -13 -25 -19 -14
-6 -25 -19 -25 -27 0 -9 -12 -18 -31 -22 -23 -4 -31 -12 -36 -34 -3 -15 -19
-42 -36 -59 -26 -27 -37 -31 -71 -28 -38 3 -41 1 -41 -24 0 -36 -4 -38 -71
-41 -57 -2 -59 -3 -59 -30 -1 -33 -18 -47 -57 -47 -18 0 -28 -5 -28 -14 0 -25
-16 -27 -43 -6 -36 29 -47 25 -47 -15 0 -27 5 -38 23 -46 19 -9 41 -2 137 45
63 31 123 56 132 56 9 0 43 18 74 40 32 22 62 40 68 40 24 0 281 269 375 391
27 35 65 80 85 98 20 19 36 40 36 45 0 6 18 28 39 48 22 21 57 63 78 95 21 32
47 59 57 61 18 4 18 -2 12 -100 -10 -145 -8 -295 5 -341 6 -22 8 -45 5 -52 -2
-7 4 -26 14 -42 11 -18 21 -62 25 -108 7 -70 11 -82 42 -116 19 -21 47 -40 62
-44 18 -4 35 -18 46 -38 16 -31 73 -77 95 -77 5 0 10 -8 10 -17 0 -11 17 -25
43 -37 23 -11 58 -32 78 -48 20 -16 52 -31 75 -33 101 -13 164 -37 203 -79 30
-31 25 -83 -11 -142 -14 -21 -29 -50 -33 -64 -7 -22 -52 -78 -166 -205 -161
-179 -217 -235 -334 -340 -43 -38 -120 -109 -169 -156 -88 -83 -129 -120 -287
-260 -126 -113 -171 -150 -211 -176 -21 -14 -38 -29 -38 -33 0 -3 -21 -21 -46
-39 -25 -18 -57 -45 -72 -59 -15 -13 -49 -40 -77 -58 -27 -19 -71 -49 -96 -66
-159 -113 -295 -188 -338 -188 -11 0 -23 -4 -26 -10 -3 -5 -59 -26 -123 -45
-64 -20 -132 -42 -150 -50 -18 -8 -41 -15 -52 -15 -23 0 -88 -28 -113 -49 -15
-13 -25 -13 -64 -3 -63 17 -207 79 -264 114 -25 15 -51 28 -56 28 -11 0 -159
102 -212 147 -19 15 -63 56 -99 91 -36 34 -69 62 -72 62 -4 0 -31 33 -60 73
-29 39 -68 92 -86 115 -18 24 -36 57 -39 74 -4 17 -17 34 -31 40 -31 14 -80
112 -89 179 -4 30 -18 102 -31 161 -31 136 -43 281 -34 400 9 119 37 176 125
260 37 35 69 74 74 92 5 17 12 40 17 51 7 19 6 19 -12 4 -10 -9 -30 -20 -44
-24 -30 -9 -100 -55 -100 -65 0 -4 -19 -15 -42 -24 -24 -10 -58 -24 -76 -32
-18 -8 -45 -14 -60 -15 -69 -2 -338 -185 -403 -275 -27 -39 -257 -203 -305
-220 -27 -9 -56 -24 -64 -33 -45 -52 -204 -171 -270 -202 -44 -21 -56 -26
-150 -65 -25 -11 -80 -38 -123 -61 -79 -42 -183 -83 -213 -83 -8 0 -39 -11
-67 -24 -29 -14 -72 -34 -97 -45 -25 -11 -54 -26 -65 -33 -133 -83 -286 -188
-355 -246 -19 -16 -62 -45 -95 -64 -107 -64 -291 -279 -355 -414 -13 -27 -32
-61 -42 -76 -22 -32 -37 -102 -45 -208 l-5 -75 27 25 c46 41 85 101 85 129 0
29 67 105 101 116 11 4 17 11 14 16 -4 5 -14 5 -25 -1 -10 -5 -23 -10 -29 -10
-18 0 -12 38 8 52 11 8 22 25 26 38 3 14 33 58 66 99 32 41 59 78 59 83 0 4 7
8 15 8 8 0 29 18 47 41 29 36 116 89 145 89 6 0 18 17 26 38 9 22 27 44 44 52
15 8 48 31 73 50 90 70 126 88 148 72 44 -32 72 -17 72 39 0 33 22 53 50 44
25 -8 116 48 124 78 4 17 10 19 40 14 20 -3 38 -1 41 4 4 5 17 9 30 9 13 0 27
5 30 10 10 16 82 60 98 60 7 0 28 11 47 25 18 13 37 22 42 19 5 -3 15 0 23 6
18 15 72 -6 79 -30 3 -8 2 1 -1 21 -4 30 -1 39 18 53 26 18 69 22 69 6 0 -5 6
-10 13 -10 17 0 49 34 41 43 -4 3 10 14 30 23 20 10 36 21 36 26 0 4 13 8 30
8 19 0 33 7 40 20 6 11 22 23 35 26 14 3 25 12 25 19 0 24 125 115 158 115 10
0 31 18 48 40 19 26 37 40 52 40 13 0 42 15 65 33 23 18 61 42 85 52 24 10 49
26 55 36 7 9 21 18 32 20 11 3 21 14 23 26 2 13 17 32 33 43 16 12 29 30 29
40 0 18 68 80 89 80 6 0 22 10 36 22 29 25 96 58 106 52 4 -2 14 -19 23 -39
15 -32 15 -37 1 -66 -13 -23 -15 -50 -12 -109 2 -43 7 -83 11 -88 4 -6 4 -28
0 -49 -4 -29 -2 -42 10 -52 12 -10 16 -31 16 -81 0 -37 4 -80 9 -96 6 -16 15
-55 21 -86 10 -49 15 -59 36 -64 28 -7 29 -10 9 -58 -14 -33 -14 -39 1 -62 10
-14 30 -28 45 -31 23 -4 30 -12 35 -39 3 -18 17 -47 30 -65 13 -18 24 -41 24
-50 0 -10 12 -31 28 -47 57 -61 92 -111 86 -125 -3 -10 3 -17 20 -21 14 -3 45
-25 68 -47 24 -22 51 -45 60 -50 10 -5 21 -21 24 -34 5 -19 13 -25 34 -25 35
0 52 -20 48 -57 -3 -29 7 -33 44 -18 13 5 20 0 28 -19 5 -14 16 -26 24 -26 24
0 124 -50 130 -65 3 -8 14 -15 23 -15 10 0 26 -9 36 -20 9 -11 25 -20 36 -20
10 0 21 -7 25 -15 3 -8 14 -15 24 -15 11 0 36 -7 55 -15 20 -8 55 -15 78 -15
42 0 109 -25 109 -41 0 -20 16 -7 27 21 11 29 13 30 76 30 38 0 77 6 93 15 27
14 29 13 36 -6 13 -34 42 -20 42 21 1 29 5 36 25 38 13 2 28 -1 34 -7 6 -6 19
-11 28 -11 13 0 17 7 16 28 -2 26 0 27 46 27 36 0 51 5 58 18 6 9 22 17 37 17
16 0 43 13 65 31 26 22 41 28 50 21 14 -11 97 21 97 38 0 5 11 10 24 10 16 0
32 11 45 29 12 16 38 38 58 48 22 12 39 28 41 41 5 30 28 46 75 48 36 2 42 5
49 30 9 33 83 101 154 140 27 15 63 43 79 62 51 60 99 103 130 117 17 7 40 24
52 37 12 12 28 29 35 36 7 7 33 33 57 58 36 36 50 44 70 39 14 -3 31 -2 37 3
18 11 34 49 34 76 0 19 7 27 25 32 14 3 35 20 47 38 29 42 47 56 75 56 17 0
23 6 23 21 0 22 73 99 95 99 7 0 19 7 26 16 7 9 23 20 36 25 13 5 25 20 29 36
8 32 56 83 79 83 8 0 15 5 15 12 0 6 18 26 40 45 22 19 40 40 40 48 0 7 20 35
44 61 24 27 53 67 64 89 28 53 57 85 75 85 45 0 60 30 35 70 -12 18 -9 23 20
46 17 14 32 32 32 40 0 12 10 14 43 12 38 -3 42 -6 45 -30 3 -28 16 -36 27
-18 8 13 102 13 110 0 4 -6 23 -9 43 -8 36 3 37 2 34 -29 -3 -29 0 -33 22 -33
13 0 26 6 29 13 6 16 62 -36 77 -74 7 -16 24 -32 41 -38 20 -7 29 -17 29 -32
0 -21 8 -22 50 -5 8 3 21 2 29 -3 12 -8 12 -12 2 -24 -10 -13 -7 -16 21 -22
35 -8 84 -38 106 -63 11 -14 14 -14 27 4 15 19 16 19 31 -3 9 -13 25 -23 35
-23 10 0 21 -4 24 -10 3 -6 27 -10 53 -10 28 0 64 -8 86 -19 21 -11 43 -18 50
-15 7 3 29 -7 50 -21 38 -26 80 -33 91 -15 10 16 23 12 30 -10 7 -22 35 -26
66 -10 14 8 25 7 41 -5 13 -8 34 -15 48 -15 14 -1 36 -7 50 -15 14 -8 35 -14
46 -15 12 0 33 -9 47 -20 14 -11 32 -20 40 -20 32 0 105 -42 147 -84 24 -25
51 -45 60 -43 9 1 22 -13 33 -35 15 -30 25 -39 55 -44 20 -3 42 -11 47 -18 12
-13 44 -34 65 -42 8 -3 29 -12 45 -19 17 -8 38 -16 47 -19 9 -3 18 -15 20 -28
3 -20 8 -23 39 -20 30 3 37 -1 47 -22 13 -29 23 -32 53 -13 18 11 23 8 47 -21
22 -27 34 -32 67 -32 22 0 49 -6 60 -13 27 -18 133 -57 155 -57 10 0 23 -7 30
-15 7 -8 25 -15 41 -15 24 0 29 4 29 26 0 14 -4 22 -10 19 -5 -3 -15 7 -22 22
-18 42 -39 63 -62 63 -26 0 -124 45 -151 69 -18 17 -206 99 -265 116 -14 4
-62 29 -108 54 -46 25 -100 55 -121 66 -21 11 -70 47 -111 80 -104 86 -110 90
-165 109 -27 10 -74 31 -104 47 -30 16 -67 29 -82 29 -15 0 -31 5 -34 10 -3 6
-21 10 -40 10 -19 0 -46 5 -62 11 -43 16 -144 43 -308 82 -33 7 -76 19 -95 25
-19 6 -62 18 -95 25 -90 21 -160 70 -259 179 -63 70 -98 100 -124 109 -20 6
-58 22 -84 35 -38 19 -63 24 -126 24 -69 0 -86 4 -146 34 -38 19 -80 46 -95
59 -43 41 -92 60 -166 65 -83 5 -112 19 -179 81 -28 26 -83 72 -122 103 -93
74 -189 221 -199 303 -11 99 -16 183 -20 375 -4 168 -2 226 9 265 24 84 46
139 70 170 13 17 26 41 29 55 14 56 65 189 90 234 15 27 27 51 27 55 0 3 12
29 26 56 18 35 24 60 20 82 -2 18 0 35 5 39 5 3 9 38 7 77 -3 71 -3 72 24 75
16 2 43 -7 68 -23 41 -26 45 -26 119 -17 72 10 78 13 113 54 21 24 38 53 38
66 0 12 14 52 30 89 24 53 30 79 30 135 0 72 8 97 43 136 18 19 19 26 9 43
-15 23 0 84 38 160 19 39 23 65 27 216 5 152 4 175 -12 199 -12 18 -15 36 -10
61 8 45 -4 120 -22 138 -8 8 -28 15 -45 15 -17 0 -39 7 -49 16 -14 13 -22 13
-39 4 -14 -7 -26 -8 -31 -3 -17 17 2 89 30 119 50 53 61 77 61 134 0 30 6 72
14 95 35 98 46 158 52 265 5 93 11 123 29 155 16 29 24 64 28 128 3 49 11 95
18 103 7 9 11 52 10 117 l-2 104 40 53 c32 42 41 65 46 109 4 31 10 67 15 81
5 14 11 45 15 69 3 25 19 75 35 112 17 37 30 76 30 87 0 11 7 33 15 48 30 58
13 267 -30 376 -4 10 8 47 30 92 42 88 39 103 -28 137 -74 38 -117 80 -117
115 0 17 -7 37 -16 45 -21 17 -10 113 17 148 14 18 18 33 13 54 -4 19 0 43 12
68 15 34 16 51 7 134 -8 74 -15 101 -31 118 -12 12 -30 43 -42 69 -24 54 -64
91 -117 109 -21 6 -56 27 -77 46 -22 18 -43 33 -47 33 -5 0 -7 22 -6 48 2 42
-2 54 -30 86 -18 20 -33 43 -33 51 0 7 -24 27 -53 44 -30 17 -59 42 -65 56 -7
14 -23 30 -37 35 -30 11 -29 5 -9 101 21 96 14 145 -24 161 -40 17 -62 39 -62
60 0 10 -8 21 -17 25 -10 3 -31 18 -48 34 -16 15 -43 29 -60 31 -19 2 -34 11
-42 28 -14 28 -44 42 -63 30 -28 -18 -83 34 -100 95 -3 12 -16 21 -30 23 -14
2 -35 8 -48 14 -17 9 -37 9 -81 0 -78 -16 -91 -15 -91 7 0 11 -18 38 -40 61
-23 23 -47 55 -56 71 -8 16 -23 29 -33 29 -22 0 -53 33 -80 87 -24 48 -46 63
-93 64 -120 2 -187 8 -205 18 -36 19 -61 13 -78 -18 -8 -16 -30 -38 -48 -50
-18 -11 -39 -32 -45 -46 -15 -32 -33 -32 -61 1 -15 18 -28 23 -39 18 -37 -15
-107 8 -150 49 -17 16 -39 27 -55 27 -15 0 -39 7 -52 16 -14 9 -34 14 -46 11
-11 -3 -41 3 -66 14 -24 10 -57 19 -73 19 -16 0 -41 6 -57 14 -83 42 -174 50
-282 26z m-1901 -3106 c0 -8 -4 -14 -10 -14 -5 0 -10 9 -10 21 0 11 5 17 10
14 6 -3 10 -13 10 -21z m4417 -811 c5 -13 -25 -26 -38 -17 -6 3 -5 11 2 20 13
16 31 14 36 -3z m-34 -154 c5 -33 3 -37 -19 -42 -28 -5 -41 8 -26 26 5 7 12
25 16 41 9 35 21 24 29 -25z m-13 -123 c0 -8 -5 -18 -11 -21 -6 -4 -8 -13 -5
-21 3 -7 1 -16 -4 -19 -11 -7 -13 34 -4 59 8 20 24 21 24 2z m-4008 -151 c-2
-11 -3 -62 -3 -113 1 -51 -1 -97 -4 -102 -10 -16 -35 1 -35 24 0 12 -6 46 -14
76 -13 50 -13 56 7 97 22 45 55 57 49 18z m4050 -425 c4 -25 13 -54 19 -66 11
-21 7 -216 -6 -300 -4 -25 0 -73 9 -120 14 -70 14 -87 2 -154 -30 -155 -41
-177 -113 -221 -17 -11 -35 -29 -38 -39 -5 -15 -15 -20 -41 -20 -23 0 -34 -5
-34 -14 0 -11 9 -13 35 -9 21 3 41 1 49 -6 12 -10 21 -6 45 21 l30 33 1 -28
c0 -20 -7 -31 -25 -39 -16 -7 -24 -17 -20 -26 17 -45 16 -61 -4 -74 -12 -7
-21 -20 -21 -29 0 -17 -32 -50 -67 -68 -52 -26 -136 -2 -165 47 -26 46 -30
124 -7 161 15 26 21 57 24 139 7 156 8 162 48 245 20 42 37 80 37 85 0 4 16
23 35 42 25 24 35 43 35 64 0 17 9 45 20 61 11 17 20 41 20 55 0 14 10 58 22
98 20 70 20 75 4 108 -15 33 -15 38 0 70 16 33 20 35 58 32 40 -3 41 -4 48
-48z m-3582 -3625 c0 -8 -7 -15 -15 -15 -8 0 -15 7 -15 15 0 8 7 15 15 15 8 0
15 -7 15 -15z"/>
<path d="M6177 9796 c-14 -37 -8 -56 18 -56 31 0 32 -10 3 -41 -13 -14 -31
-36 -40 -50 -9 -15 -29 -29 -45 -32 -31 -6 -83 -43 -83 -58 0 -23 104 1 114
27 3 8 16 14 28 14 13 1 37 12 53 25 28 23 30 30 30 89 0 68 -8 87 -27 68 -8
-8 -15 -5 -28 10 -15 19 -17 20 -23 4z"/>
<path d="M4080 14920 c0 -11 5 -20 10 -20 6 0 10 9 10 20 0 11 -4 20 -10 20
-5 0 -10 -9 -10 -20z"/>
<path d="M3560 14811 c0 -11 5 -23 10 -26 6 -4 10 5 10 19 0 14 -4 26 -10 26
-5 0 -10 -9 -10 -19z"/>
<path d="M4826 14794 c-4 -10 -1 -14 6 -12 15 5 23 28 10 28 -5 0 -13 -7 -16
-16z"/>
<path d="M4320 14773 c0 -25 0 -26 20 -8 11 10 20 22 20 27 0 4 -9 8 -20 8
-15 0 -20 -7 -20 -27z"/>
<path d="M4963 14763 c-3 -10 -12 -33 -19 -52 -8 -18 -12 -37 -9 -42 9 -14 35
2 35 23 0 11 7 26 15 34 8 9 15 24 15 35 0 24 -28 25 -37 2z"/>
<path d="M3437 14739 c-3 -22 0 -39 9 -48 21 -23 28 8 11 48 l-14 34 -6 -34z"/>
<path d="M4800 14750 c0 -11 5 -20 10 -20 6 0 10 9 10 20 0 11 -4 20 -10 20
-5 0 -10 -9 -10 -20z"/>
<path d="M4504 14726 c4 -16 0 -29 -14 -41 -22 -20 -27 -60 -8 -71 16 -10 58
42 58 72 0 30 -17 64 -31 64 -7 0 -9 -10 -5 -24z"/>
<path d="M4277 14713 c-16 -15 -6 -44 19 -53 34 -13 34 -13 34 13 0 35 -33 60
-53 40z"/>
<path d="M5030 14658 c0 -7 5 -20 10 -28 8 -12 10 -9 10 13 0 15 -4 27 -10 27
-5 0 -10 -6 -10 -12z"/>
<path d="M3960 14628 c0 -19 2 -20 10 -8 13 19 13 30 0 30 -5 0 -10 -10 -10
-22z"/>
<path d="M3581 14602 c-12 -23 2 -47 23 -39 20 8 22 57 1 57 -8 0 -19 -8 -24
-18z"/>
<path d="M3410 14596 c0 -8 5 -18 10 -21 6 -3 10 1 10 9 0 8 -4 18 -10 21 -5
3 -10 -1 -10 -9z"/>
<path d="M5150 14590 c0 -11 5 -20 10 -20 6 0 10 9 10 20 0 11 -4 20 -10 20
-5 0 -10 -9 -10 -20z"/>
<path d="M4650 14583 c0 -10 -7 -31 -15 -47 -10 -18 -13 -41 -10 -58 6 -24 3
-28 -15 -28 -14 0 -24 8 -27 21 -8 31 -23 3 -23 -45 0 -36 1 -38 26 -32 43 11
72 54 81 121 10 78 10 78 -4 83 -7 2 -13 -4 -13 -15z"/>
<path d="M3966 14509 c-15 -17 -26 -39 -24 -47 6 -30 26 -22 47 19 29 54 14
72 -23 28z"/>
<path d="M2930 14520 c0 -5 11 -10 25 -10 14 0 25 5 25 10 0 6 -11 10 -25 10
-14 0 -25 -4 -25 -10z"/>
<path d="M3616 14494 c-8 -32 10 -57 24 -34 13 21 12 36 -4 49 -11 9 -15 6
-20 -15z"/>
<path d="M3465 14480 c-3 -5 -1 -18 5 -29 5 -11 10 -28 10 -38 0 -21 36 -48
45 -33 7 11 -36 110 -47 110 -4 0 -10 -4 -13 -10z"/>
<path d="M3278 14459 c-13 -7 -18 -23 -18 -55 0 -38 3 -45 18 -42 10 2 16 11
14 22 -2 11 2 30 9 43 15 28 2 46 -23 32z"/>
<path d="M5376 14455 c-10 -7 -15 -18 -11 -24 8 -13 55 -15 55 -2 0 5 3 16 6
25 8 20 -23 21 -50 1z"/>
<path d="M4326 14425 c-18 -14 -16 -45 3 -45 11 0 31 32 31 49 0 15 -11 13
-34 -4z"/>
<path d="M5424 14376 c-8 -21 3 -66 16 -66 13 0 13 67 0 75 -6 3 -13 -1 -16
-9z"/>
<path d="M5636 14364 c-9 -23 10 -42 26 -26 10 10 9 16 -4 28 -14 14 -16 14
-22 -2z"/>
<path d="M4540 14355 c-13 -16 -6 -35 15 -35 15 0 24 19 17 38 -6 16 -17 15
-32 -3z"/>
<path d="M3490 14325 c0 -8 5 -15 10 -15 6 0 10 7 10 15 0 8 -4 15 -10 15 -5
0 -10 -7 -10 -15z"/>
<path d="M5037 14313 c-13 -12 -7 -33 8 -33 8 0 15 9 15 20 0 20 -11 26 -23
13z"/>
<path d="M2522 14277 c-30 -32 -28 -39 11 -35 27 2 33 8 35 31 4 34 -16 36
-46 4z"/>
<path d="M4298 14279 c-20 -21 -23 -35 -8 -44 8 -5 40 43 40 60 0 10 -15 3
-32 -16z"/>
<path d="M4706 14273 c-8 -19 8 -38 23 -29 16 10 13 46 -3 46 -8 0 -17 -8 -20
-17z"/>
<path d="M3360 14240 c0 -16 4 -30 9 -30 10 0 22 40 15 52 -11 18 -24 6 -24
-22z"/>
<path d="M3205 14231 c-6 -11 9 -23 19 -14 9 9 7 23 -3 23 -6 0 -12 -4 -16 -9z"/>
<path d="M2923 14214 c-3 -8 1 -23 10 -32 15 -14 17 -14 23 1 8 21 -1 47 -16
47 -6 0 -13 -7 -17 -16z"/>
<path d="M2490 14163 c0 -28 3 -34 10 -23 13 20 13 60 0 60 -5 0 -10 -17 -10
-37z"/>
<path d="M3356 14185 c-9 -25 -7 -75 4 -75 13 0 24 70 13 81 -7 7 -12 5 -17
-6z"/>
<path d="M4380 14185 c-10 -12 -10 -19 -2 -27 13 -13 42 6 42 28 0 19 -24 18
-40 -1z"/>
<path d="M5460 14045 c0 -8 5 -15 10 -15 6 0 10 7 10 15 0 8 -4 15 -10 15 -5
0 -10 -7 -10 -15z"/>
<path d="M5816 14052 c-3 -6 -1 -14 5 -17 15 -10 25 3 12 16 -7 7 -13 7 -17 1z"/>
<path d="M5335 14039 c-4 -6 -5 -13 -2 -16 7 -7 27 6 27 18 0 12 -17 12 -25
-2z"/>
<path d="M3207 14033 c-4 -3 -7 -17 -7 -30 0 -33 24 -24 28 10 3 26 -7 35 -21
20z"/>
<path d="M3300 14020 c0 -11 2 -20 5 -20 2 0 9 9 15 20 9 16 8 20 -5 20 -8 0
-15 -9 -15 -20z"/>
<path d="M2405 13991 c-3 -5 -1 -12 4 -15 13 -8 42 4 35 15 -7 12 -31 12 -39
0z"/>
<path d="M2755 13970 c-3 -6 1 -13 10 -16 19 -8 30 0 20 15 -8 14 -22 14 -30
1z"/>
<path d="M3444 13956 c-8 -22 3 -33 18 -18 9 9 9 15 0 24 -9 9 -13 7 -18 -6z"/>
<path d="M3724 13936 c-8 -22 3 -33 18 -18 9 9 9 15 0 24 -9 9 -13 7 -18 -6z"/>
<path d="M5637 13944 c-16 -16 -6 -34 19 -34 19 0 25 5 22 17 -3 19 -29 29
-41 17z"/>
<path d="M4460 13930 c0 -5 7 -10 15 -10 8 0 15 5 15 10 0 6 -7 10 -15 10 -8
0 -15 -4 -15 -10z"/>
<path d="M5800 13926 c0 -10 9 -16 21 -16 24 0 21 23 -4 28 -10 2 -17 -3 -17
-12z"/>
<path d="M2495 13901 c-6 -11 9 -23 19 -14 9 9 7 23 -3 23 -6 0 -12 -4 -16 -9z"/>
<path d="M2397 13811 c-8 -45 -3 -62 12 -45 5 5 6 27 2 49 l-7 40 -7 -44z"/>
<path d="M2130 13780 c0 -14 26 -23 41 -15 8 6 7 10 -2 16 -19 12 -39 11 -39
-1z"/>
<path d="M3679 13769 c-8 -16 -8 -24 1 -33 8 -8 16 -5 30 14 25 32 25 40 0 40
-10 0 -24 -9 -31 -21z"/>
<path d="M5366 13751 c-3 -5 1 -11 9 -15 15 -6 29 7 18 18 -9 9 -21 8 -27 -3z"/>
<path d="M3262 13728 c-16 -16 -15 -38 2 -38 7 0 19 6 25 14 16 19 -10 41 -27
24z"/>
<path d="M5720 13701 c0 -10 -7 -24 -15 -31 -18 -15 -11 -30 15 -30 21 0 34
31 25 60 -8 25 -25 26 -25 1z"/>
<path d="M2160 13673 c0 -25 1 -25 18 -10 10 10 25 17 33 18 8 0 6 4 -6 9 -35
15 -45 11 -45 -17z"/>
<path d="M2050 13605 c-14 -16 -10 -18 14 -9 9 3 16 10 16 15 0 14 -16 11 -30
-6z"/>
<path d="M3528 13595 c-10 -11 5 -55 19 -55 10 0 13 9 11 27 -3 25 -18 40 -30
28z"/>
<path d="M1902 13528 c-6 -17 -9 -34 -6 -37 11 -11 39 17 42 43 5 37 -21 34
-36 -6z"/>
<path d="M2400 13515 c0 -8 5 -15 10 -15 6 0 10 7 10 15 0 8 -4 15 -10 15 -5
0 -10 -7 -10 -15z"/>
<path d="M3466 13504 c-9 -25 -7 -34 9 -34 12 0 35 28 35 44 0 14 -38 5 -44
-10z"/>
<path d="M4152 13504 c-12 -8 -22 -21 -22 -28 0 -29 -43 -26 -74 4 -28 28 -30
29 -49 13 -17 -16 -19 -16 -28 -1 -8 15 -13 15 -44 2 -31 -13 -36 -13 -41 1
-8 20 -26 19 -57 -5 -14 -11 -32 -20 -41 -20 -25 0 -30 -26 -9 -49 21 -26 43
-27 43 -3 0 20 55 57 70 47 6 -3 10 -13 10 -21 0 -22 48 -18 55 6 7 22 30 26
42 8 4 -7 25 -22 45 -32 l38 -19 21 26 c14 18 30 27 50 27 34 0 49 24 28 46
-13 12 -18 12 -37 -2z"/>
<path d="M3675 13471 c-6 -21 9 -61 24 -61 16 0 33 29 29 52 -4 31 -44 37 -53
9z"/>
<path d="M3251 13451 c-17 -13 -22 -24 -17 -37 7 -18 9 -18 27 5 10 13 19 29
19 37 0 17 0 17 -29 -5z"/>
<path d="M3526 13441 c-9 -9 -16 -26 -16 -36 0 -15 6 -17 38 -11 20 3 49 6 65
6 20 0 27 5 27 20 0 16 -7 20 -31 20 -17 0 -38 4 -48 10 -14 7 -23 5 -35 -9z"/>
<path d="M3375 13439 c-4 -6 -13 -8 -20 -5 -8 3 -17 -3 -20 -13 -3 -9 -19 -28
-36 -40 l-30 -23 37 -19 c51 -26 60 -24 78 13 19 38 20 55 4 61 -7 2 -10 8 -5
12 4 5 13 2 20 -7 6 -9 24 -18 40 -22 22 -5 27 -3 27 13 0 34 -78 58 -95 30z"/>
<path class="out" d="M4178 13428 l-27 -9 37 -38 c20 -20 51 -55 69 -77 24 -30 34 -36 43
-27 10 9 10 18 0 42 -7 17 -16 31 -21 31 -4 0 -20 20 -35 45 -14 25 -29 45
-32 44 -4 0 -19 -5 -34 -11z"/>
<path d="M4287 13433 c-10 -9 -9 -63 1 -63 14 0 42 35 42 53 0 17 -30 24 -43
10z"/>
<path d="M3116 13423 c-11 -11 -6 -23 9 -23 8 0 15 4 15 9 0 13 -16 22 -24 14z"/>
<path  class="out" d="M4422 13414 c-32 -22 -27 -69 7 -69 28 0 38 -19 21 -40 -9 -11 -17
-11 -35 -3 -13 6 -31 8 -40 4 -29 -11 0 -33 53 -40 26 -3 58 -13 71 -22 15
-11 26 -13 33 -6 7 7 0 23 -23 51 -35 44 -33 56 9 56 18 0 28 6 30 19 6 29
-14 42 -36 23 -27 -25 -40 -21 -47 13 -8 34 -12 36 -43 14z"/>
<path d="M1856 13404 c-7 -18 0 -34 15 -34 12 0 12 37 0 44 -5 3 -12 -1 -15
-10z"/>
<path d="M3168 13393 c-9 -9 -30 -16 -47 -15 -21 0 -34 -6 -46 -24 -24 -38 -1
-57 43 -36 59 29 77 43 80 57 6 27 -12 37 -30 18z"/>
<path d="M3869 13387 c-19 -13 -42 -26 -51 -30 -10 -3 -18 -11 -18 -17 0 -13
17 -13 25 0 11 18 44 10 61 -14 22 -35 44 -23 44 24 0 54 -19 66 -61 37z"/>
<path d="M3462 13374 l-23 -16 41 -20 c22 -11 43 -18 45 -16 7 6 -24 68 -34
68 -3 0 -17 -7 -29 -16z"/>
<path d="M3720 13370 c-8 -5 -25 -10 -37 -10 -25 0 -29 -10 -11 -28 18 -18 53
-14 72 7 27 29 8 52 -24 31z"/>
<path d="M3592 13343 c4 -39 28 -42 28 -4 0 21 -5 31 -16 31 -11 0 -14 -8 -12
-27z"/>
<path d="M2016 13344 c-4 -9 -4 -19 -1 -22 6 -6 35 18 35 29 0 16 -28 10 -34
-7z"/>
<path d="M2962 13349 c2 -6 8 -10 13 -10 5 0 11 4 13 10 2 6 -4 11 -13 11 -9
0 -15 -5 -13 -11z"/>
<path d="M4105 13342 c-8 -9 -6 -40 5 -47 9 -6 50 15 50 25 0 8 -49 28 -55 22z"/>
<path class="out" d="M4010 13332 c0 -5 -12 -14 -26 -21 -21 -9 -24 -14 -14 -26 18 -21 47
-18 53 5 3 11 13 20 22 20 9 0 15 6 13 13 -5 14 -48 23 -48 9z"/>
<path d="M4565 13328 c-2 -7 -5 -25 -8 -40 -4 -25 -2 -26 28 -21 18 3 35 1 38
-5 8 -12 87 8 87 23 0 13 -20 35 -32 35 -4 0 -8 -9 -8 -20 0 -15 -7 -20 -25
-20 -27 0 -32 9 -13 28 10 10 10 15 -2 22 -22 14 -60 12 -65 -2z"/>
<path d="M2984 13297 c-9 -25 0 -62 16 -62 10 0 15 10 15 34 0 36 -21 54 -31
28z"/>
<path d="M4972 13288 c2 -13 10 -23 18 -23 8 0 16 10 18 23 3 17 -2 22 -18 22
-16 0 -21 -5 -18 -22z"/>
<path d="M3191 13276 c-10 -12 -8 -17 8 -25 22 -12 37 0 27 24 -7 19 -20 19
-35 1z"/>
<path d="M1814 13215 c-4 -15 -1 -32 7 -41 12 -14 14 -14 26 2 7 10 13 28 13
41 0 33 -38 31 -46 -2z"/>
<path d="M2909 13211 c-11 -15 -38 -38 -60 -50 -22 -13 -39 -30 -39 -39 0 -12
-14 -22 -45 -31 -40 -12 -46 -18 -57 -53 -10 -35 -10 -41 6 -50 12 -7 16 -17
12 -34 -4 -14 -2 -24 4 -24 5 0 10 11 10 24 0 18 7 25 31 30 21 4 30 11 28 23
-4 24 11 83 20 83 4 0 12 -5 19 -12 10 -10 19 -5 43 21 27 31 31 32 47 18 23
-21 38 -10 46 36 6 30 4 37 -9 37 -9 0 -15 9 -15 25 0 33 -14 32 -41 -4z"/>
<path d="M3080 13215 c0 -26 14 -31 39 -16 12 8 12 12 2 25 -20 24 -41 19 -41
-9z"/>
<path class="out" d="M4885 13230 c-3 -5 -27 -9 -53 -9 -65 1 -66 1 -52 -16 9 -11 22 -14
42 -10 33 8 58 -8 58 -36 0 -21 20 -25 38 -7 9 9 17 7 34 -9 22 -20 116 -44
169 -43 17 0 34 -10 49 -30 13 -16 31 -30 40 -30 10 0 24 -7 31 -16 25 -30
149 -80 149 -60 0 21 -23 56 -37 56 -10 0 -27 7 -37 15 -11 8 -26 15 -34 15
-7 0 -37 24 -66 53 -29 28 -72 69 -96 89 -41 35 -45 36 -62 21 -9 -8 -20 -24
-23 -34 -11 -34 -52 -23 -81 21 -25 38 -56 51 -69 30z"/>
<path d="M1695 13190 c-8 -13 6 -40 21 -40 19 0 18 36 -1 43 -8 4 -17 2 -20
-3z"/>
<path d="M5510 13170 c0 -5 6 -10 14 -10 8 0 18 5 21 10 3 6 -3 10 -14 10 -12
0 -21 -4 -21 -10z"/>
<path d="M2637 13124 c-10 -11 3 -24 24 -24 10 0 19 7 19 15 0 15 -31 21 -43
9z"/>
<path d="M5607 13058 c27 -26 34 -29 47 -19 14 12 11 16 -21 32 -54 27 -62 23
-26 -13z"/>
<path d="M1765 13030 c-8 -12 5 -63 19 -72 20 -14 26 -8 26 25 0 43 -29 73
-45 47z"/>
<path d="M2607 13023 c-9 -15 9 -35 28 -31 16 3 15 5 -3 21 -11 10 -22 14 -25
10z"/>
<path d="M2842 12998 c-12 -33 -3 -56 17 -44 12 8 15 76 3 76 -4 0 -13 -14
-20 -32z"/>
<path d="M2637 12933 c-3 -5 -3 -23 1 -38 13 -45 81 -55 82 -12 0 4 -14 10
-31 14 -18 3 -34 14 -38 26 -4 11 -11 16 -14 10z"/>
<path d="M5407 12924 c-10 -11 -8 -42 3 -49 17 -11 98 -16 104 -6 7 10 -22 36
-49 43 -11 3 -27 9 -36 12 -8 4 -18 3 -22 0z"/>
<path d="M1773 12868 c-14 -7 -23 -20 -23 -34 0 -50 42 -36 55 19 8 29 2 32
-32 15z"/>
<path d="M5760 12845 c0 -15 4 -24 10 -20 6 3 10 12 10 20 0 8 -4 17 -10 20
-6 4 -10 -5 -10 -20z"/>
<path  class="out" d="M2517 12825 c-23 -22 -37 -45 -37 -60 0 -14 3 -25 8 -25 42 -1 31
-70 -12 -70 -23 0 -36 -16 -36 -46 0 -8 7 -14 15 -14 8 0 15 -4 15 -10 0 -5
-4 -10 -8 -10 -5 0 -14 -19 -20 -42 -6 -24 -18 -68 -26 -98 -18 -63 -10 -80
27 -55 25 16 44 65 33 84 -4 5 -1 13 5 17 6 3 17 21 25 38 8 17 20 39 27 48 9
14 9 22 -1 38 -14 23 -8 40 12 40 18 0 46 33 46 53 0 19 -11 22 -26 7 -8 -8
-11 3 -12 35 0 36 3 45 17 45 9 0 22 -5 28 -11 18 -18 33 -1 33 37 0 33 -1 34
-38 34 -31 0 -46 -7 -75 -35z"/>
<path d="M5781 12767 c-8 -11 -5 -16 15 -25 36 -17 54 -15 54 7 0 30 -48 42
-69 18z"/>
<path d="M5855 12700 c-3 -11 -17 -23 -31 -26 -27 -7 -30 -14 -13 -31 9 -9 24
-3 60 20 55 37 62 57 20 57 -21 0 -32 -6 -36 -20z"/>
<path d="M5902 12604 c-11 -23 -9 -30 25 -70 20 -25 45 -50 56 -55 13 -7 17
-17 13 -32 -5 -20 17 -57 35 -57 4 0 23 14 41 30 28 26 31 32 18 40 -8 6 -25
8 -37 5 -20 -5 -23 -1 -23 25 0 24 -12 42 -57 85 -31 30 -57 55 -58 55 -1 0
-7 -12 -13 -26z"/>
<path d="M2380 12569 c0 -14 5 -19 17 -17 26 5 29 38 4 38 -15 0 -21 -6 -21
-21z"/>
<path d="M2364 12345 c-9 -23 3 -44 31 -55 14 -5 25 -14 25 -20 0 -5 5 -10 10
-10 18 0 11 60 -7 67 -10 4 -22 12 -26 20 -11 17 -26 17 -33 -2z"/>
<path d="M6131 12316 c-9 -11 -10 -20 -1 -36 15 -28 35 -20 35 15 0 32 -16 42
-34 21z"/>
<path d="M2267 12249 c-9 -6 -17 -14 -17 -19 0 -16 30 -11 37 5 8 21 1 25 -20
14z"/>
<path d="M6174 12085 c-8 -20 3 -48 16 -40 13 8 13 55 0 55 -6 0 -13 -7 -16
-15z"/>
<path d="M6150 12015 c0 -9 42 -47 47 -42 9 9 -17 47 -32 47 -8 0 -15 -2 -15
-5z"/>
<path d="M4466 11964 c-9 -22 3 -32 14 -14 12 19 12 30 1 30 -5 0 -12 -7 -15
-16z"/>
<path d="M6125 11903 c4 -10 11 -39 14 -64 10 -69 60 -111 62 -51 0 15 1 44 3
64 2 30 -2 41 -20 53 -33 22 -68 20 -59 -2z"/>
<path d="M2245 11900 c-7 -12 2 -30 16 -30 5 0 9 9 9 20 0 21 -15 27 -25 10z"/>
<path d="M2040 11792 c0 -21 3 -41 6 -45 7 -6 54 13 54 22 -1 8 -48 61 -55 61
-3 0 -5 -17 -5 -38z"/>
<path  class="out" d="M2791 11774 c-19 -9 -42 -25 -51 -37 -10 -12 -35 -28 -56 -36 -50
-18 -88 -46 -138 -99 -69 -74 -83 -109 -87 -210 -2 -50 -1 -93 3 -97 11 -12
45 14 52 39 4 15 17 28 36 34 20 7 30 18 30 31 0 11 6 23 13 28 20 13 81 33
100 33 11 0 21 8 24 18 2 10 21 26 40 35 32 14 39 14 57 1 12 -8 45 -14 81
-14 90 0 246 -19 261 -31 7 -6 47 -19 88 -29 42 -10 92 -28 112 -41 28 -17 40
-20 54 -11 13 8 21 6 36 -11 l19 -22 3 34 c3 26 -3 40 -22 60 l-26 25 -29 -22
c-28 -20 -30 -21 -35 -4 -9 28 -74 94 -86 87 -5 -3 -10 -17 -10 -31 0 -29 -4
-30 -38 -5 -17 12 -61 23 -122 31 -79 10 -100 16 -122 38 -25 23 -30 24 -51
13 -13 -7 -35 -11 -48 -9 -19 2 -23 9 -24 39 -1 21 6 47 16 60 16 22 20 23 51
11 42 -15 73 -15 98 -2 12 6 21 6 25 1 3 -6 27 -24 52 -41 46 -31 48 -31 80
-16 31 15 33 14 44 -5 9 -18 17 -20 54 -14 36 5 47 3 64 -14 24 -24 41 -27 41
-7 0 28 36 41 111 41 71 0 74 -1 72 -22 -2 -15 3 -23 12 -23 8 0 18 -7 23 -16
7 -13 13 -14 30 -5 12 6 31 16 42 21 11 6 32 7 47 4 25 -7 26 -6 19 27 -10 49
-38 73 -106 88 -47 11 -67 11 -86 2 -14 -6 -37 -11 -51 -11 -15 0 -37 -10 -50
-22 -18 -17 -26 -19 -35 -10 -7 7 -24 12 -39 12 -16 0 -33 9 -43 23 l-16 22
-22 -26 c-24 -28 -84 -45 -107 -30 -7 5 -17 30 -22 56 -5 27 -10 50 -12 51 -1
2 -46 4 -100 5 -75 1 -102 -2 -122 -15 -14 -9 -25 -21 -25 -26 0 -6 -11 -10
-25 -10 -13 0 -28 -6 -32 -14 -12 -19 -53 -31 -53 -14 1 17 65 58 91 58 14 0
19 6 17 18 -4 23 -61 26 -107 6z m24 -165 c10 -30 -10 -47 -36 -31 -12 8 -22
12 -23 10 -16 -27 -61 -90 -67 -94 -4 -2 -13 5 -19 16 -10 18 -7 25 14 47 14
14 26 33 26 43 0 25 9 30 56 30 35 0 44 -4 49 -21z"/>
<path d="M3909 11763 c-18 -22 -43 -92 -35 -100 12 -12 32 7 54 51 29 58 16
91 -19 49z"/>
<path d="M3200 11711 c0 -12 6 -21 16 -21 9 0 14 7 12 17 -5 25 -28 28 -28 4z"/>
<path d="M6161 11696 l-22 -23 26 -17 c23 -15 27 -15 50 0 28 18 33 49 9 58
-27 10 -40 7 -63 -18z"/>
<path d="M3970 11655 c-6 -8 -10 -18 -8 -23 5 -15 48 6 48 23 0 19 -24 20 -40
0z"/>
<path class="out" d="M5264 11662 c-36 -2 -57 -9 -69 -22 -10 -11 -24 -20 -32 -20 -7 0
-13 -10 -13 -23 0 -25 -28 -57 -48 -57 -15 0 -15 25 -1 52 18 33 -4 45 -46 25
-19 -9 -35 -22 -35 -28 0 -8 -17 -10 -51 -7 -38 4 -52 2 -56 -9 -3 -8 -27 -24
-52 -35 -46 -19 -46 -20 -22 -32 17 -9 20 -15 11 -21 -6 -4 -17 -2 -23 4 -15
15 -27 14 -27 -4 0 -8 -9 -15 -19 -15 -24 0 -33 -13 -25 -34 8 -22 25 -20 31
4 7 25 11 25 33 -2 29 -36 90 -31 133 10 18 17 40 32 48 32 9 0 21 11 27 25
12 26 20 29 46 19 10 -4 16 -18 16 -40 0 -33 17 -47 24 -21 15 47 17 50 28 39
7 -7 19 -12 28 -12 15 -1 42 -51 54 -100 3 -14 10 -32 16 -40 9 -13 12 -13 21
3 8 14 18 17 36 12 15 -3 31 0 40 7 17 13 38 16 185 21 52 1 92 7 100 15 18
18 55 15 67 -5 9 -16 13 -17 43 -4 97 41 167 16 187 -66 10 -39 14 -43 39 -41
22 2 28 -1 30 -21 2 -14 14 -39 27 -55 12 -17 26 -41 30 -53 17 -58 41 0 31
75 -18 137 -23 162 -37 179 -8 10 -25 39 -38 66 -12 26 -31 52 -41 57 -10 5
-21 19 -25 29 -7 22 -81 65 -96 55 -6 -4 -4 -13 6 -24 9 -10 14 -24 10 -29 -8
-13 -42 -14 -49 -2 -3 5 -15 7 -26 4 -11 -3 -26 0 -34 6 -10 8 -17 6 -30 -8
-15 -16 -15 -22 -4 -40 13 -22 68 -30 68 -11 0 6 5 10 10 10 6 0 10 -11 10
-24 0 -28 -61 -72 -82 -60 -34 20 -58 51 -58 77 0 30 -11 35 -29 13 -14 -16
-4 -46 15 -46 8 0 14 -7 14 -15 0 -18 -27 -20 -32 -3 -3 8 -16 6 -44 -8 -62
-33 -89 -36 -146 -18 -50 17 -52 17 -68 -3 -12 -15 -25 -19 -55 -17 -22 1 -48
3 -57 3 -12 1 -18 9 -18 24 0 33 10 40 32 20 17 -15 18 -15 18 5 0 31 -29 43
-57 25 -32 -21 -53 -10 -53 27 0 31 17 39 38 18 6 -6 15 -8 19 -4 5 4 0 13
-10 20 -9 7 -17 23 -17 36 0 20 4 22 33 16 102 -18 134 -18 140 -2 8 20 26 20
48 0 22 -20 49 -12 49 15 0 40 -28 44 -216 33z m646 -148 c0 -16 -43 -64 -59
-64 -18 0 -13 28 10 60 21 28 49 31 49 4z"/>
<path d="M5762 11653 c2 -10 13 -19 26 -21 26 -4 28 6 5 24 -25 18 -35 17 -31
-3z"/>
<path d="M2896 11651 c-3 -5 0 -11 8 -14 15 -6 26 1 26 15 0 11 -27 10 -34 -1z"/>
<path d="M5575 11648 c-11 -37 -11 -68 0 -68 15 0 65 45 65 58 0 5 -10 12 -22
16 -33 8 -38 8 -43 -6z"/>
<path d="M3866 11594 c-4 -15 -2 -32 3 -37 12 -12 18 -8 21 13 7 50 -13 70
-24 24z"/>
<path d="M4728 11560 c-7 -11 -20 -20 -30 -20 -29 0 -31 -20 -4 -47 19 -19 26
-22 26 -10 0 8 11 29 25 45 14 17 25 35 25 41 0 18 -29 12 -42 -9z"/>
<path d="M5277 11566 c-7 -17 22 -31 36 -17 5 5 6 14 3 20 -10 16 -33 14 -39
-3z"/>
<path d="M3354 11539 c-10 -17 13 -36 27 -22 12 12 4 33 -11 33 -5 0 -12 -5
-16 -11z"/>
<path d="M5395 11540 c-7 -11 35 -40 57 -40 9 0 20 -4 23 -10 12 -20 36 -11
33 12 -2 18 -13 25 -56 34 -28 7 -54 8 -57 4z"/>
<path d="M3750 11499 c0 -15 39 -69 51 -69 12 0 12 37 -1 61 -11 20 -50 27
-50 8z"/>
<path d="M3587 11444 c-33 -12 -97 -63 -97 -77 0 -3 12 -7 27 -10 42 -8 71 8
75 40 2 16 8 27 16 26 6 -2 18 -4 24 -5 7 -2 14 7 16 20 4 25 -5 26 -61 6z"/>
<path d="M3960 11432 c0 -16 -7 -37 -15 -48 -8 -10 -15 -29 -15 -42 0 -19 5
-23 23 -20 16 2 23 11 25 33 2 17 8 35 13 41 9 11 -10 64 -23 64 -5 0 -8 -13
-8 -28z"/>
<path d="M2050 11380 c-12 -7 -12 -12 -2 -22 9 -9 17 -10 30 -2 9 6 16 15 15
20 -3 13 -26 15 -43 4z"/>
<path d="M4903 11374 c-7 -18 9 -51 23 -46 14 3 11 55 -3 59 -7 3 -16 -3 -20
-13z"/>
<path d="M4987 11383 c-9 -9 12 -33 29 -33 8 0 14 9 14 20 0 19 -28 28 -43 13z"/>
<path d="M4380 11360 c0 -13 7 -20 20 -20 13 0 20 7 20 20 0 13 -7 20 -20 20
-13 0 -20 -7 -20 -20z"/>
<path d="M5150 11356 c0 -20 14 -28 36 -19 16 6 16 7 -2 20 -23 17 -34 17 -34
-1z"/>
<path d="M4883 11291 c-9 -12 -25 -21 -35 -21 -21 0 -23 -11 -6 -28 16 -16 28
-15 28 3 0 8 14 18 33 23 17 4 32 15 32 22 0 23 -32 23 -52 1z"/>
<path d="M3137 11294 c-11 -11 5 -34 25 -34 14 0 18 5 14 16 -3 9 -6 18 -6 20
0 6 -26 5 -33 -2z"/>
<path d="M4707 11293 c-4 -3 -7 -17 -7 -30 0 -16 6 -23 19 -23 27 0 34 15 19
40 -14 21 -20 24 -31 13z"/>
<path d="M4211 11259 l-23 -30 25 -25 c30 -29 53 -25 36 7 -7 15 -6 27 5 49
13 27 13 30 -2 29 -9 0 -28 -14 -41 -30z"/>
<path d="M2126 11194 c-11 -29 -6 -44 14 -44 16 0 20 7 20 30 0 32 -23 42 -34
14z"/>
<path class="out" d="M3025 11180 c-157 -13 -219 -41 -352 -159 -30 -26 -29 -41 1 -41 13
0 40 16 61 36 21 20 48 40 59 45 12 5 36 18 55 30 38 23 83 34 221 55 105 15
156 11 212 -17 21 -11 47 -19 59 -19 12 0 30 -7 39 -15 9 -8 31 -18 49 -21 29
-6 33 -4 30 12 -5 24 -105 76 -136 70 -13 -2 -28 3 -35 11 -8 10 -30 13 -72
12 -34 -1 -70 0 -81 3 -11 3 -60 2 -110 -2z"/>
<path d="M5362 11083 c-20 -8 -3 -23 28 -23 36 0 47 16 17 24 -25 6 -27 6 -45
-1z"/>
<path d="M5123 11063 c-24 -8 -43 -19 -43 -24 0 -15 104 -10 126 6 16 13 17
16 4 25 -20 13 -36 12 -87 -7z"/>
<path d="M5245 11070 c-8 -13 45 -13 65 0 11 7 6 10 -22 10 -20 0 -40 -4 -43
-10z"/>
<path d="M5480 11057 c0 -8 34 -22 90 -36 49 -13 95 -30 101 -37 14 -17 62
-19 57 -2 -5 14 -17 21 -78 46 -94 40 -170 53 -170 29z"/>
<path d="M3582 11038 c-20 -20 -14 -28 19 -28 24 0 30 3 25 16 -3 9 -6 18 -6
20 0 9 -27 3 -38 -8z"/>
<path d="M4990 11026 c-25 -7 -59 -19 -75 -27 -35 -17 -46 -49 -17 -49 33 0
157 57 160 74 4 19 -6 19 -68 2z"/>
<path  class="out" d="M4030 10980 c-7 -16 -18 -35 -26 -41 -8 -6 -14 -25 -14 -41 0 -37
-16 -68 -35 -68 -8 0 -15 -6 -15 -14 0 -7 -12 -26 -26 -41 -14 -16 -23 -34
-19 -43 3 -9 -3 -21 -15 -29 -11 -8 -20 -23 -20 -34 0 -12 -7 -19 -19 -19 -10
0 -26 -11 -35 -25 -9 -14 -23 -25 -31 -25 -8 0 -15 -4 -15 -9 0 -5 -9 -11 -20
-14 -11 -3 -20 -10 -20 -16 0 -17 37 -13 44 4 3 10 19 15 43 15 46 0 49 3 90
62 26 37 32 52 27 77 -7 35 11 44 21 11 12 -38 75 -19 75 22 0 11 9 31 20 46
27 36 39 196 16 205 -9 4 -19 -5 -26 -23z"/>
<path class="out" d="M3066 10969 c-39 -4 -73 -6 -78 -3 -4 3 -58 -12 -119 -32 l-111 -36
-21 -50 c-15 -37 -28 -52 -54 -63 -32 -14 -59 -57 -47 -76 8 -14 37 -11 64 9
14 9 48 29 77 43 63 31 79 22 68 -39 l-6 -38 66 -14 c36 -8 68 -17 71 -22 3
-4 21 -8 40 -8 45 0 46 26 2 46 -18 8 -40 18 -48 24 -8 5 -36 19 -62 31 -58
27 -63 54 -16 93 57 47 168 26 168 -32 0 -19 52 -72 71 -72 5 0 9 -7 9 -15 0
-31 46 -40 106 -21 70 22 122 75 149 153 23 63 48 78 79 48 9 -10 23 -14 32
-11 9 4 18 -3 24 -19 5 -14 12 -25 14 -25 11 0 56 24 56 30 0 15 -27 30 -56
30 -21 0 -36 7 -46 22 -11 16 -26 22 -64 24 -27 1 -78 7 -114 12 -109 16 -182
19 -254 11z m244 -100 c0 -12 -8 -23 -20 -26 -14 -4 -20 -14 -20 -32 0 -34
-10 -48 -43 -60 -47 -18 -76 -14 -87 13 -5 14 -19 26 -32 28 -15 2 -24 11 -26
26 -4 27 14 28 48 2 32 -25 43 -25 35 -1 -7 22 2 29 65 53 63 23 80 22 80 -3z"/>
<path class="out" d="M5259 10926 c-3 -3 -46 -7 -96 -9 -110 -5 -123 -11 -89 -42 13 -12
30 -42 36 -66 30 -112 80 -165 162 -175 31 -4 67 -4 80 -1 39 10 106 85 124
139 9 27 22 52 30 55 23 9 68 -15 109 -57 36 -37 37 -40 25 -69 -9 -22 -30
-39 -78 -63 -36 -19 -67 -39 -70 -46 -5 -16 47 -27 69 -13 10 6 29 11 42 11
27 0 67 26 67 44 0 22 39 51 51 39 15 -15 65 2 82 28 17 23 10 79 -9 79 -7 0
-16 11 -20 25 -5 19 -13 25 -35 25 -15 0 -36 8 -46 19 -12 12 -39 21 -77 25
-33 4 -66 12 -73 18 -7 6 -32 15 -56 21 -48 11 -220 21 -228 13z m56 -76 c17
-33 25 -36 43 -18 15 15 52 -17 52 -45 0 -21 -27 -57 -42 -57 -5 0 -24 -11
-42 -25 -40 -30 -50 -31 -87 -4 -42 29 -38 82 6 90 14 3 21 13 23 34 6 64 22
73 47 25z"/>
<path class="out" d="M4940 10865 c-7 -8 -23 -15 -36 -15 -12 0 -26 -4 -29 -10 -3 -5 -14
-10 -23 -10 -20 0 -132 -77 -132 -91 0 -11 12 -13 65 -9 48 3 92 32 97 63 3
22 13 24 53 12 30 -9 82 40 65 60 -16 19 -44 19 -60 0z"/>
<path class="out" d="M3625 10829 c-8 -35 -58 -79 -90 -79 -13 0 -27 -5 -30 -11 -4 -5 -18
-15 -32 -20 -14 -5 -23 -12 -21 -15 3 -2 28 4 55 15 41 16 66 18 150 14 95 -4
101 -4 108 16 8 27 -54 91 -100 101 -32 7 -34 6 -40 -21z"/>
<path d="M4473 10834 c-3 -8 -1 -25 5 -37 17 -36 25 -117 12 -132 -8 -10 -8
-15 0 -20 21 -13 30 16 29 95 0 14 0 44 0 68 0 35 -3 42 -20 42 -11 0 -22 -7
-26 -16z"/>
<path d="M5840 10745 c0 -8 5 -15 10 -15 6 0 10 7 10 15 0 8 -4 15 -10 15 -5
0 -10 -7 -10 -15z"/>
<path d="M4923 10724 c-9 -25 45 -63 89 -64 20 0 45 -3 55 -7 17 -6 17 -5 -1
15 -10 12 -34 24 -53 28 -18 3 -38 15 -44 25 -12 23 -37 25 -46 3z"/>
<path d="M4667 10694 c-4 -4 -7 -18 -7 -31 0 -18 5 -24 18 -21 10 2 17 12 17
27 0 24 -15 37 -28 25z"/>
<path d="M3079 10648 c-9 -42 -8 -49 8 -46 20 4 24 39 6 46 -7 2 -13 2 -14 0z"/>
<path d="M3542 10630 c-7 -12 -23 -20 -41 -20 -16 0 -31 -6 -35 -15 -3 -9 -18
-15 -34 -15 -16 0 -37 -9 -46 -19 -9 -10 -25 -17 -34 -14 -10 2 -31 -10 -51
-31 -29 -30 -32 -38 -21 -51 10 -12 10 -18 0 -30 -7 -9 -10 -18 -7 -21 12 -12
35 5 48 35 11 25 20 31 45 31 22 0 36 7 47 23 15 23 45 39 97 51 37 9 94 62
87 80 -9 22 -40 20 -55 -4z"/>
<path class="out" d="M4947 10603 c-15 -14 -6 -40 18 -51 21 -10 26 -9 36 9 11 21 11 20
25 -6 8 -15 14 -35 14 -44 0 -22 19 -41 41 -41 10 0 25 -7 34 -16 8 -9 35 -17
58 -19 80 -5 152 -18 175 -33 15 -10 26 -11 35 -4 6 5 51 13 99 17 69 5 90 11
105 27 10 11 27 24 38 28 17 6 15 8 -13 15 -19 4 -38 2 -45 -3 -33 -28 -103
-42 -163 -32 -32 6 -82 10 -109 10 -28 0 -57 6 -64 13 -6 6 -29 12 -49 12 -35
0 -37 2 -40 33 -2 18 -9 35 -15 36 -70 19 -105 32 -122 43 -21 14 -48 17 -58
6z"/>
<path d="M2876 10511 c-7 -11 3 -41 14 -41 11 0 21 30 14 41 -3 5 -9 9 -14 9
-5 0 -11 -4 -14 -9z"/>
<path d="M4550 10498 c0 -29 16 -46 31 -31 6 6 2 19 -10 34 l-20 24 -1 -27z"/>
<path class="out" d="M2944 10495 c-18 -14 -18 -15 11 -40 24 -21 37 -26 64 -21 19 3 41 2
50 -3 9 -5 32 -11 52 -14 32 -5 42 -1 73 28 20 18 36 35 36 38 0 3 -40 3 -89
0 -70 -5 -98 -2 -130 11 -50 19 -43 19 -67 1z"/>
<path d="M1974 10452 c-26 -17 -43 -69 -34 -101 6 -21 3 -104 -7 -237 -13
-168 -14 -212 -3 -247 7 -23 14 -48 16 -54 8 -30 23 -9 27 40 4 49 42 176 71
242 16 34 46 163 46 193 0 12 5 33 12 47 11 24 9 29 -18 55 -16 15 -37 37 -46
49 -18 21 -44 27 -64 13z"/>
<path d="M4310 10404 c0 -17 22 -14 28 4 2 7 -3 12 -12 12 -9 0 -16 -7 -16
-16z"/>
<path d="M4661 10153 c1 -20 36 -143 42 -149 4 -4 15 4 26 17 l19 24 37 -19
c23 -13 39 -16 45 -10 15 15 -15 51 -59 73 -21 11 -49 31 -62 45 -23 24 -50
35 -48 19z"/>
<path d="M3805 10060 c-7 -12 2 -30 16 -30 5 0 9 9 9 20 0 21 -15 27 -25 10z"/>
<path d="M3585 9952 c-20 -13 -54 -82 -49 -96 3 -8 1 -17 -5 -21 -16 -9 -13
-71 4 -85 17 -14 16 -15 35 65 6 28 20 64 31 81 30 49 20 82 -16 56z"/>
<path d="M3207 9933 c-15 -14 -7 -43 12 -43 17 0 31 18 31 41 0 10 -33 12 -43
2z"/>
<path d="M4904 9788 c-5 -8 -17 -17 -27 -21 -14 -5 -16 -11 -7 -26 5 -11 10
-35 10 -53 1 -31 1 -32 15 -14 8 11 15 31 15 44 0 13 5 33 11 44 13 24 -4 49
-17 26z"/>
<path d="M3342 9738 c-19 -19 -14 -30 11 -26 12 2 22 9 22 17 0 19 -18 24 -33
9z"/>
<path d="M2130 9732 c0 -12 44 -52 58 -52 18 0 14 9 -15 35 -29 25 -43 31 -43
17z"/>
<path d="M3753 9729 c-37 -11 -48 -28 -56 -86 -6 -50 -1 -58 28 -39 26 17 136
23 247 12 87 -8 103 1 67 41 -31 32 -49 42 -112 58 -79 19 -139 24 -174 14z"/>
<path class="out" d="M4610 9723 c-61 -16 -146 -82 -240 -185 -66 -74 -52 -100 35 -64 26
11 35 21 35 39 0 36 48 73 115 90 77 20 111 33 120 46 3 6 29 11 56 11 44 0
51 3 61 26 11 22 10 28 -7 40 -24 18 -103 17 -175 -3z"/>
<path class="out" d="M2014 9629 c5 -27 1 -42 -14 -62 -24 -31 -26 -91 -4 -135 8 -17 19
-53 23 -79 9 -62 81 -157 126 -168 55 -13 213 -17 235 -5 15 8 27 8 48 -2 24
-12 28 -20 33 -78 4 -36 3 -72 -2 -81 -5 -11 0 -27 15 -50 13 -20 26 -58 30
-90 4 -31 14 -65 21 -75 8 -11 15 -29 15 -42 0 -13 13 -49 29 -82 16 -32 32
-71 35 -88 4 -16 21 -52 39 -79 18 -28 48 -76 67 -108 19 -31 63 -92 96 -135
53 -68 62 -86 68 -134 4 -31 12 -58 17 -61 5 -4 9 -30 9 -58 0 -29 5 -70 10
-92 5 -22 11 -71 15 -108 3 -37 10 -80 16 -95 6 -15 12 -56 14 -92 4 -70 29
-236 46 -310 6 -25 15 -94 19 -154 5 -59 11 -110 13 -112 2 -2 18 3 35 12 28
13 31 18 21 36 -6 11 -13 48 -16 82 -2 33 -9 88 -14 121 -6 33 -12 78 -14 100
-2 22 -10 74 -19 115 -8 41 -15 93 -15 114 -1 22 -5 53 -10 70 -33 105 -42
149 -38 168 3 12 0 33 -7 47 -7 14 -16 49 -20 76 -4 28 -9 58 -12 68 -10 33
32 19 59 -20 37 -56 145 -163 163 -163 8 0 21 -15 29 -33 7 -18 25 -44 39 -59
15 -14 31 -38 36 -54 6 -16 27 -40 47 -54 21 -14 53 -42 71 -62 19 -21 39 -38
44 -38 5 0 20 -8 33 -17 12 -10 33 -25 45 -33 13 -8 35 -24 49 -36 45 -35 124
-84 136 -84 7 0 20 -9 30 -20 10 -11 24 -20 30 -20 7 0 20 -11 28 -24 9 -14
30 -26 50 -30 19 -4 38 -13 41 -21 3 -8 26 -25 52 -37 45 -23 46 -23 60 -3 8
11 14 31 12 44 -2 19 -13 26 -53 38 -27 8 -63 21 -78 29 -16 8 -34 14 -41 14
-15 0 -50 38 -60 64 -5 13 -12 17 -31 12 -18 -5 -27 -1 -35 14 -6 11 -17 20
-26 20 -8 0 -19 11 -24 24 -11 31 -26 40 -34 21 -8 -21 -36 -19 -36 3 0 12
-15 25 -42 38 -38 17 -44 23 -48 59 -4 33 -9 40 -27 40 -12 0 -28 8 -35 17 -7
9 -26 18 -42 20 -23 2 -31 10 -40 38 -7 23 -19 36 -36 40 -20 5 -25 12 -27 44
-3 56 -9 66 -38 66 -14 0 -28 7 -31 15 -4 8 -14 15 -24 15 -16 0 -47 35 -61
69 -3 8 -21 19 -40 25 -25 8 -40 23 -60 59 -14 26 -39 62 -56 80 -17 17 -34
46 -37 63 -4 17 -22 46 -41 64 -19 19 -35 42 -35 52 0 10 -17 37 -39 61 -21
23 -41 52 -45 63 -4 12 -15 29 -26 39 -11 10 -20 26 -20 35 0 9 -16 39 -35 66
-24 33 -35 60 -35 84 0 23 -11 48 -30 73 -20 28 -31 55 -35 95 -4 32 -15 73
-24 92 -10 19 -21 64 -24 99 -4 35 -16 78 -26 95 -24 40 -51 130 -51 173 0 18
-4 33 -9 33 -5 0 -23 -21 -40 -47 -18 -26 -45 -53 -62 -60 -47 -19 -171 -17
-209 5 -36 19 -80 97 -80 139 0 16 -9 52 -19 81 -16 42 -17 59 -9 82 5 17 12
30 14 30 3 0 18 -16 35 -35 56 -64 105 -33 52 32 -16 20 -44 41 -62 48 -17 6
-37 17 -42 25 -8 11 -9 5 -5 -21z"/>
<path d="M4800 9565 c-14 -8 -67 -36 -119 -62 -83 -42 -91 -48 -75 -60 21 -15
62 -16 124 -2 54 12 120 75 120 114 0 28 -14 31 -50 10z"/>
<path d="M3740 9550 c0 -5 4 -10 10 -10 5 0 12 -11 16 -25 7 -28 31 -45 63
-45 49 0 33 39 -30 71 -43 21 -59 24 -59 9z"/>
<path d="M4290 9424 c0 -45 24 -42 28 4 2 24 -1 32 -12 32 -12 0 -16 -10 -16
-36z"/>
<path class="out" d="M3987 9410 c-3 -8 -10 -41 -17 -72 -13 -55 -12 -58 14 -88 14 -17 26
-40 26 -50 0 -22 16 -35 25 -20 11 19 24 10 36 -25 10 -26 19 -35 36 -35 12 0
27 -9 33 -20 6 -11 34 -26 65 -36 54 -17 56 -17 99 4 24 12 46 22 51 22 4 0
17 8 30 18 16 13 21 23 15 32 -5 8 -5 19 1 26 11 13 2 44 -12 44 -6 0 -21 -7
-35 -16 -23 -15 -26 -15 -43 0 -21 19 -37 7 -43 -33 -1 -13 -11 -29 -20 -35
-23 -14 -65 31 -74 78 -7 41 -23 49 -79 40 -38 -5 -45 -3 -74 26 -32 32 -32
33 -17 65 20 41 20 46 2 71 -12 16 -15 16 -19 4z"/>
<path d="M4616 9351 c-9 -10 -14 -25 -10 -35 11 -29 18 -22 52 47 8 15 -26 6
-42 -12z"/>
<path d="M4734 9296 c-4 -10 -2 -22 4 -28 8 -8 13 -7 18 6 4 10 2 22 -4 28 -8
8 -13 7 -18 -6z"/>
<path d="M3676 9245 c-18 -27 -21 -45 -7 -45 16 0 41 31 41 51 0 26 -14 24
-34 -6z"/>
<path d="M4727 9203 c-24 -23 8 -81 38 -69 25 9 36 49 17 64 -17 13 -45 16
-55 5z"/>
<path class="out" d="M3326 9178 c-9 -12 -16 -28 -16 -35 0 -6 -14 -22 -31 -36 -23 -18
-33 -36 -40 -72 -5 -27 -16 -56 -24 -65 -21 -23 -19 -64 4 -84 22 -20 41 -14
41 14 0 28 11 50 24 50 29 0 50 29 55 76 6 45 9 50 44 67 40 19 45 28 22 47
-8 7 -15 23 -15 36 0 32 -43 33 -64 2z"/>
<path d="M4620 9173 c0 -13 5 -23 10 -23 13 0 13 11 0 30 -8 12 -10 11 -10 -7z"/>
<path d="M4878 9165 c-13 -28 -6 -40 17 -32 17 7 21 57 5 57 -6 0 -16 -11 -22
-25z"/>
<path d="M4945 9129 c-11 -16 16 -70 39 -79 35 -12 46 -1 46 46 l0 44 -39 0
c-22 0 -43 -5 -46 -11z"/>
<path d="M3530 9112 c0 -23 30 -52 53 -52 25 0 21 36 -5 54 -30 21 -48 20 -48
-2z"/>
<path d="M5112 9041 l-22 -59 22 -36 c13 -19 31 -35 40 -36 15 0 15 3 2 28
-14 27 -11 78 6 112 8 15 -5 50 -18 50 -4 0 -17 -27 -30 -59z"/>
<path d="M4010 8954 c-110 -36 -124 -54 -42 -54 27 0 57 -7 70 -16 28 -19 42
-11 40 24 -3 46 -23 60 -68 46z"/>
<path d="M4105 8940 c-4 -6 7 -10 27 -9 27 0 30 2 13 9 -27 12 -33 12 -40 0z"/>
<path d="M4370 8945 c0 -9 40 -45 49 -45 9 0 21 24 21 41 0 5 -16 9 -35 9 -19
0 -35 -2 -35 -5z"/>
<path d="M3340 8916 c0 -7 6 -19 14 -25 11 -9 15 -8 20 5 3 9 4 20 0 25 -8 14
-34 11 -34 -5z"/>
<path d="M3791 8906 c-16 -19 -6 -36 20 -36 15 0 20 6 17 22 -4 27 -21 33 -37
14z"/>
<path d="M5195 8890 c-8 -13 20 -24 41 -16 20 8 9 26 -16 26 -10 0 -22 -5 -25
-10z"/>
<path d="M4380 8854 c0 -9 5 -14 12 -12 18 6 21 28 4 28 -9 0 -16 -7 -16 -16z"/>
<path class="out" d="M4700 8840 c0 -38 -78 -62 -133 -41 -19 7 -43 3 -98 -16 -73 -25 -76
-25 -203 -14 -71 7 -134 15 -140 19 -15 10 -91 12 -451 13 -308 1 -309 1 -327
-21 -23 -28 -23 -49 0 -56 9 -3 25 -10 34 -15 25 -13 222 -11 253 3 27 12 199
-1 320 -25 72 -15 336 -7 357 11 9 7 19 8 28 2 22 -14 63 -12 86 4 11 8 36 14
55 14 19 -1 95 1 169 4 74 3 158 3 185 -1 42 -5 51 -10 53 -28 4 -28 22 -31
22 -4 0 25 51 34 160 29 63 -3 75 0 78 14 9 45 -108 95 -163 70 -13 -6 -46
-14 -73 -18 -51 -6 -66 2 -74 41 -5 27 -34 31 -41 5 -3 -13 -13 -20 -29 -20
-33 0 -50 14 -42 33 4 12 1 17 -10 17 -9 0 -16 -8 -16 -20z"/>
<path d="M5632 8781 c2 -7 7 -12 11 -12 12 1 9 15 -3 20 -7 2 -11 -2 -8 -8z"/>
<path d="M4791 8563 c-10 -21 -9 -29 2 -40 11 -11 17 -9 37 12 19 20 21 27 10
40 -18 22 -35 18 -49 -12z"/>
<path d="M4664 8509 c-11 -18 13 -32 43 -24 27 6 27 7 9 21 -24 17 -42 18 -52
3z"/>
<path class="out" d="M4130 8289 c-14 -6 -49 -8 -79 -4 -37 5 -51 3 -47 -4 4 -6 18 -11 32
-11 14 0 24 -6 24 -14 0 -25 19 -28 71 -11 61 20 79 15 79 -24 0 -23 -7 -33
-32 -45 -17 -9 -40 -16 -50 -16 -24 0 -34 -26 -18 -45 19 -23 36 -18 81 25 29
27 51 40 70 40 18 0 32 7 39 20 6 11 26 27 45 35 39 16 45 39 16 55 -29 15
-65 12 -99 -7 -29 -17 -31 -17 -50 0 -21 19 -45 21 -82 6z"/>
<path d="M4537 8294 c-10 -11 3 -24 24 -24 10 0 19 7 19 15 0 15 -31 21 -43 9z"/>
<path d="M4467 8253 c-13 -12 -7 -43 7 -43 16 0 25 19 18 38 -5 13 -15 16 -25
5z"/>
<path d="M4340 8135 c0 -9 5 -15 11 -13 6 2 11 8 11 13 0 5 -5 11 -11 13 -6 2
-11 -4 -11 -13z"/>
<path d="M5115 7901 c-7 -12 12 -24 25 -16 11 7 4 25 -10 25 -5 0 -11 -4 -15
-9z"/>
<path d="M3824 7445 c-8 -21 4 -35 32 -35 28 0 44 28 23 41 -21 13 -49 11 -55
-6z"/>
<path d="M4388 7340 c-23 -26 -26 -54 -7 -58 23 -4 49 24 49 54 0 28 -18 30
-42 4z"/>
<path class="out" d="M4220 7312 c0 -21 -3 -23 -29 -17 -32 7 -81 -17 -81 -40 0 -22 65
-27 123 -10 75 22 94 37 81 65 -8 17 -19 23 -52 24 -38 2 -42 0 -42 -22z"/>
<path d="M4034 7274 c-7 -28 10 -54 25 -38 5 5 13 21 16 37 6 23 4 27 -14 27
-14 0 -23 -8 -27 -26z"/>
<path d="M8006 6301 c-8 -13 4 -43 16 -39 5 2 9 7 9 11 -1 4 -1 14 -1 22 0 17
-16 20 -24 6z"/>
<path d="M2370 5940 c0 -13 11 -13 30 0 12 8 11 10 -7 10 -13 0 -23 -4 -23
-10z"/>
<path d="M8940 5815 c0 -8 5 -15 10 -15 6 0 10 7 10 15 0 8 -4 15 -10 15 -5 0
-10 -7 -10 -15z"/>
<path d="M6980 5701 c0 -11 21 -19 38 -14 21 8 13 23 -13 23 -14 0 -25 -4 -25
-9z"/>
<path d="M1877 5689 c-20 -12 -23 -29 -3 -29 17 0 40 26 29 33 -5 3 -16 1 -26
-4z"/>
<path class="out" d="M2818 5563 c-2 -4 -1 -21 2 -38 l7 -30 8 28 c7 27 -7 60 -17 40z"/>
<path d="M2880 5437 c0 -14 16 -39 40 -62 22 -21 40 -45 40 -51 0 -16 17 -27
30 -19 18 11 -72 155 -97 155 -7 0 -13 -10 -13 -23z"/>
<path d="M1055 5346 c-53 -20 -61 -28 -36 -38 17 -6 30 -2 51 14 46 36 40 45
-15 24z"/>
<path d="M808 5258 c-17 -19 -25 -34 -19 -36 19 -6 61 27 61 48 0 27 -7 25
-42 -12z"/>
<path d="M2990 5256 c0 -18 30 -30 43 -17 5 5 6 14 3 20 -10 16 -46 13 -46 -3z"/>
<path d="M677 5204 c-4 -4 -4 -10 -1 -15 6 -10 34 0 34 12 0 10 -24 12 -33 3z"/>
<path d="M585 5160 c-3 -5 3 -10 14 -10 11 0 23 5 26 10 3 6 -3 10 -14 10 -11
0 -23 -4 -26 -10z"/>
<path d="M4644 5086 c-8 -22 3 -33 18 -18 9 9 9 15 0 24 -9 9 -13 7 -18 -6z"/>
<path d="M315 5051 c-3 -5 -1 -12 5 -16 13 -8 50 3 50 16 0 12 -47 12 -55 0z"/>
<path d="M3974 4814 c-17 -14 -17 -15 -1 -10 10 3 23 6 28 6 5 0 9 5 9 10 0
14 -13 12 -36 -6z"/>
<path d="M8620 4685 c-18 -47 -22 -75 -12 -75 5 0 13 11 16 25 4 14 11 25 16
25 13 0 13 37 0 45 -6 3 -14 -6 -20 -20z"/>
<path d="M230 4685 c0 -8 7 -15 15 -15 8 0 15 7 15 15 0 8 -7 15 -15 15 -8 0
-15 -7 -15 -15z"/>
<path d="M8970 4595 c0 -8 7 -15 15 -15 8 0 15 7 15 15 0 8 -7 15 -15 15 -8 0
-15 -7 -15 -15z"/>
<path d="M8120 4443 c0 -43 13 -72 25 -54 9 15 -4 91 -16 91 -5 0 -9 -17 -9
-37z"/>
<path d="M1005 4380 c-7 -12 2 -30 16 -30 5 0 9 9 9 20 0 21 -15 27 -25 10z"/>
<path d="M8557 4374 c-4 -4 -7 -19 -7 -33 l0 -25 16 23 c15 21 7 51 -9 35z"/>
<path d="M8816 4332 c-4 -13 -5 -26 -2 -29 10 -11 18 4 14 29 l-4 23 -8 -23z"/>
<path d="M65 4209 c-10 -15 3 -25 16 -12 7 7 7 13 1 17 -6 3 -14 1 -17 -5z"/>
<path d="M4165 4140 c-4 -6 -3 -16 3 -22 13 -13 23 4 13 21 -7 10 -10 10 -16
1z"/>
<path d="M8650 4120 c0 -15 5 -20 18 -18 9 2 17 10 17 18 0 8 -8 16 -17 18
-13 2 -18 -3 -18 -18z"/>
<path d="M4440 3820 c0 -5 7 -10 15 -10 8 0 15 5 15 10 0 6 -7 10 -15 10 -8 0
-15 -4 -15 -10z"/>
<path d="M8450 3756 c0 -22 17 -28 24 -10 9 22 8 24 -9 24 -8 0 -15 -6 -15
-14z"/>
<path d="M8451 3706 c-15 -17 -11 -48 5 -53 14 -5 28 47 16 59 -5 5 -14 3 -21
-6z"/>
<path d="M652 3638 c-20 -20 -14 -40 11 -36 14 2 22 10 22 22 0 24 -16 31 -33
14z"/>
<path d="M3757 3513 c-14 -13 -6 -33 13 -33 11 0 20 4 20 9 0 13 -26 32 -33
24z"/>
<path d="M8650 3474 c0 -17 22 -14 28 4 2 7 -3 12 -12 12 -9 0 -16 -7 -16 -16z"/>
<path d="M8300 3451 c0 -5 10 -15 22 -23 20 -14 21 -17 9 -47 -15 -35 -12 -45
11 -36 12 5 15 20 14 61 -1 52 -2 54 -28 54 -16 0 -28 -4 -28 -9z"/>
<path d="M7710 3392 c0 -4 9 -13 20 -20 22 -13 27 -3 8 16 -14 14 -28 16 -28
4z"/>
<path d="M8740 3355 c-21 -25 -1 -31 23 -7 17 18 18 22 5 22 -8 0 -21 -7 -28
-15z"/>
<path d="M8243 3265 c-8 -22 6 -33 17 -15 13 20 12 30 0 30 -6 0 -13 -7 -17
-15z"/>
<path d="M7206 3263 c-11 -11 -6 -23 9 -23 8 0 15 4 15 9 0 13 -16 22 -24 14z"/>
<path d="M8272 3219 c2 -6 8 -10 13 -10 5 0 11 4 13 10 2 6 -4 11 -13 11 -9 0
-15 -5 -13 -11z"/>
<path d="M817 3112 c-20 -22 -22 -62 -4 -62 11 0 37 51 37 73 0 13 -17 7 -33
-11z"/>
<path d="M7700 3110 c0 -11 6 -20 13 -20 19 0 27 10 20 26 -8 21 -33 17 -33
-6z"/>
<path d="M8637 3103 c-4 -3 -7 -15 -7 -25 0 -26 24 -17 28 10 3 21 -8 29 -21
15z"/>
<path d="M7660 3022 c0 -5 7 -16 16 -23 14 -12 16 -11 13 5 -4 20 -29 35 -29
18z"/>
<path d="M4925 3011 c-7 -12 12 -24 25 -16 11 7 4 25 -10 25 -5 0 -11 -4 -15
-9z"/>
<path d="M8617 2989 c-27 -31 -31 -49 -10 -56 15 -5 45 44 41 68 -3 18 -6 17
-31 -12z"/>
<path d="M789 2909 c-8 -16 -8 -28 0 -47 15 -31 29 -19 38 31 4 30 2 37 -10
37 -9 0 -21 -10 -28 -21z"/>
<path d="M8539 2900 c-32 -18 -71 -79 -64 -100 9 -28 21 -25 35 10 7 17 27 40
44 52 17 12 33 23 36 25 4 4 -21 23 -30 23 -3 -1 -12 -5 -21 -10z"/>
<path d="M8243 2879 c3 -12 1 -30 -6 -40 -14 -23 6 -50 23 -33 13 13 2 94 -12
94 -6 0 -8 -10 -5 -21z"/>
<path d="M8970 2890 c-12 -8 -11 -10 8 -10 12 0 22 5 22 10 0 13 -11 13 -30 0z"/>
<path d="M672 2858 c3 -7 15 -15 27 -16 16 -3 22 1 19 10 -3 7 -15 15 -27 16
-16 3 -22 -1 -19 -10z"/>
<path d="M7355 2840 c-4 -7 -3 -16 3 -22 14 -14 45 -2 40 15 -6 16 -34 21 -43
7z"/>
<path d="M2697 2814 c-13 -13 -7 -24 14 -24 11 0 19 5 17 12 -5 14 -22 21 -31
12z"/>
<path d="M5920 2810 c0 -5 7 -10 15 -10 8 0 15 5 15 10 0 6 -7 10 -15 10 -8 0
-15 -4 -15 -10z"/>
<path d="M8893 2803 c-18 -6 -16 -23 1 -23 17 0 30 16 19 23 -5 2 -14 2 -20 0z"/>
<path d="M3910 2775 c0 -8 7 -15 15 -15 8 0 15 7 15 15 0 8 -7 15 -15 15 -8 0
-15 -7 -15 -15z"/>
<path d="M747 2764 c-15 -16 -7 -64 14 -74 19 -11 20 -9 17 31 -3 40 -16 58
-31 43z"/>
<path d="M8416 2724 c-9 -22 -8 -24 9 -24 8 0 15 9 15 20 0 24 -15 27 -24 4z"/>
<path d="M4435 2711 c-6 -11 9 -23 19 -14 9 9 7 23 -3 23 -6 0 -12 -4 -16 -9z"/>
<path d="M355 2700 c-8 -13 13 -40 31 -40 17 0 18 22 2 38 -15 15 -25 15 -33
2z"/>
<path d="M476 2558 c-3 -18 -2 -49 2 -68 7 -29 12 -34 30 -32 18 3 22 -2 22
-22 0 -30 33 -37 48 -10 13 24 3 54 -19 54 -12 0 -19 7 -19 20 0 11 -9 29 -20
40 -11 11 -20 27 -20 35 0 28 -18 15 -24 -17z"/>
<path d="M715 2570 c-10 -17 12 -37 25 -24 8 8 6 15 -4 23 -10 9 -16 9 -21 1z"/>
<path d="M6600 2521 c0 -5 7 -11 15 -15 9 -3 15 0 15 9 0 8 -7 15 -15 15 -8 0
-15 -4 -15 -9z"/>
<path d="M8688 2504 c-33 -17 -42 -68 -10 -57 21 8 62 55 55 65 -6 11 -14 9
-45 -8z"/>
<path class="out" d="M980 2483 c0 -11 5 -24 12 -31 6 -6 12 -33 13 -59 3 -53 45 -161 70
-179 19 -14 13 -49 -10 -58 -8 -3 -15 -13 -15 -22 0 -13 3 -14 15 -4 21 18 48
-6 41 -35 -5 -18 3 -28 34 -50 22 -15 40 -34 40 -41 0 -8 6 -14 14 -14 7 0 21
-10 29 -22 l16 -23 0 30 c1 18 -15 58 -39 99 -22 37 -40 74 -40 80 0 7 -18 38
-40 69 -23 32 -40 67 -41 84 0 15 -12 64 -27 108 -22 65 -31 81 -49 83 -17 3
-23 -2 -23 -15z"/>
<path d="M8970 2430 c0 -5 7 -10 15 -10 8 0 15 5 15 10 0 6 -7 10 -15 10 -8 0
-15 -4 -15 -10z"/>
<path d="M8970 2345 c0 -8 7 -15 15 -15 8 0 15 7 15 15 0 8 -7 15 -15 15 -8 0
-15 -7 -15 -15z"/>
<path d="M640 2270 c-11 -7 -12 -12 -3 -21 15 -15 43 -5 43 16 0 17 -18 19
-40 5z"/>
<path d="M4314 2215 c-3 -8 -3 -19 1 -25 11 -18 25 -11 25 15 0 27 -17 34 -26
10z"/>
<path d="M8430 2153 c1 -27 1 -27 15 -9 14 19 12 36 -6 36 -5 0 -9 -12 -9 -27z"/>
<path d="M3737 2033 c-12 -11 -8 -23 8 -23 8 0 15 7 15 15 0 16 -12 20 -23 8z"/>
<path d="M1225 1900 c-8 -13 13 -50 28 -50 7 0 23 -13 37 -29 13 -17 27 -28
32 -25 10 6 -17 72 -39 96 -18 20 -48 24 -58 8z"/>
<path d="M406 1884 c-8 -22 -8 -24 8 -24 12 0 26 20 26 36 0 12 -29 2 -34 -12z"/>
<path d="M8302 1808 c-16 -16 -15 -38 2 -38 19 0 48 29 41 41 -8 13 -29 11
-43 -3z"/>
<path d="M1270 1740 c0 -5 7 -10 15 -10 8 0 15 5 15 10 0 6 -7 10 -15 10 -8 0
-15 -4 -15 -10z"/>
<path d="M8600 1731 c0 -16 46 -58 55 -49 2 2 -3 18 -10 36 -15 35 -45 44 -45
13z"/>
<path d="M1296 1705 c-7 -19 13 -53 35 -60 13 -5 15 -15 11 -52 -5 -45 -5 -46
22 -41 14 3 26 2 27 -1 0 -3 2 -15 3 -27 1 -11 17 -42 34 -68 18 -26 32 -54
32 -62 0 -8 7 -25 16 -39 11 -17 13 -29 5 -42 -5 -11 -6 -25 -1 -33 6 -9 0
-23 -16 -43 -25 -29 -24 -47 2 -47 15 0 19 -25 5 -34 -11 -7 -12 -76 -2 -76 5
0 16 9 26 20 17 19 20 46 15 140 -1 14 0 65 1 114 2 77 -1 90 -16 99 -49 27
-97 107 -110 182 -11 64 -72 113 -89 70z"/>
<path d="M495 1660 c-3 -6 1 -13 10 -16 19 -8 30 0 20 15 -8 14 -22 14 -30 1z"/>
<path d="M536 1543 c-3 -3 -3 -10 0 -14 7 -12 34 -11 34 0 0 11 -26 22 -34 14z"/>
<path d="M7792 1484 c1 -9 9 -19 16 -22 9 -3 13 2 10 14 -1 9 -9 19 -16 22 -9
3 -13 -2 -10 -14z"/>
<path d="M1820 1436 c0 -24 18 -28 30 -6 9 17 8 20 -10 20 -11 0 -20 -6 -20
-14z"/>
<path class="out" d="M8633 1443 c-7 -2 -13 -10 -13 -17 0 -18 -37 -49 -49 -41 -6 3 -11
13 -11 21 0 8 -9 14 -22 14 -20 0 -20 -1 -3 -20 17 -19 17 -20 -9 -31 -14 -7
-26 -20 -26 -30 0 -10 -12 -24 -27 -31 -21 -10 -28 -21 -30 -43 0 -17 -2 -35
-2 -42 -1 -6 -15 -16 -32 -22 -28 -9 -30 -14 -24 -38 13 -53 9 -63 -24 -63
-29 0 -30 -2 -28 -42 2 -40 0 -43 -25 -46 -30 -4 -35 -11 -17 -29 7 -7 8 -24
4 -42 -7 -31 -19 -39 -30 -21 -10 17 -24 11 -41 -16 -16 -23 -16 -27 -1 -41
14 -14 14 -19 -3 -48 -11 -19 -16 -43 -13 -55 4 -13 -2 -32 -15 -50 -17 -23
-20 -38 -16 -77 4 -33 1 -54 -9 -67 -11 -15 -12 -25 -3 -48 10 -26 8 -32 -13
-49 l-24 -20 22 -6 c21 -5 22 -9 17 -89 -3 -45 -1 -96 5 -112 7 -19 6 -37 -1
-57 -8 -20 -7 -31 1 -41 13 -16 -4 -44 -27 -44 -15 0 -28 -35 -19 -50 4 -6 14
-9 23 -8 12 2 16 -3 15 -19 -3 -21 1 -23 50 -23 l52 0 3 312 c2 172 8 320 13
330 5 9 9 25 9 35 0 11 11 34 25 53 14 19 25 41 25 51 0 22 39 117 62 151 10
14 18 32 19 40 0 7 10 31 22 54 61 114 117 231 117 244 0 9 5 21 12 28 17 17
109 15 154 -4 26 -11 54 -14 86 -11 41 5 51 3 68 -16 18 -18 20 -33 18 -103
-3 -74 -1 -85 19 -106 18 -19 43 -99 43 -134 0 -2 9 -4 20 -4 19 0 20 7 20
190 l0 190 -25 0 c-14 0 -48 16 -76 35 -28 19 -59 36 -68 37 -9 0 -27 2 -41 3
-35 3 -87 31 -100 55 -10 19 -31 24 -57 13z"/>
<path d="M8967 1424 c-9 -10 2 -24 19 -24 8 0 14 7 14 15 0 15 -21 21 -33 9z"/>
<path d="M4470 1290 c0 -5 9 -10 19 -10 11 0 23 5 26 10 4 6 -5 10 -19 10 -14
0 -26 -4 -26 -10z"/>
<path d="M3165 1211 c-3 -5 -1 -12 5 -16 12 -7 30 2 30 16 0 12 -27 12 -35 0z"/>
<path d="M175 1130 c-4 -6 -3 -16 3 -22 6 -6 12 -6 17 2 4 6 3 16 -3 22 -6 6
-12 6 -17 -2z"/>
<path d="M2780 1095 c0 -8 5 -15 10 -15 6 0 10 7 10 15 0 8 -4 15 -10 15 -5 0
-10 -7 -10 -15z"/>
<path  class="out" d="M0 1027 l0 -77 35 0 c20 0 46 -7 59 -15 13 -9 42 -15 67 -14 77 3
244 -10 273 -21 15 -5 49 -10 75 -10 26 0 63 -7 81 -16 28 -14 59 -16 229 -10
108 3 207 6 220 6 13 0 29 4 35 9 6 4 36 16 66 26 30 9 69 23 85 30 17 8 41
17 55 21 14 4 38 17 53 30 16 13 34 24 41 24 7 0 22 14 35 30 19 26 20 31 6
36 -8 4 -31 -1 -50 -10 -26 -13 -35 -23 -35 -42 0 -25 -1 -26 -51 -19 -38 5
-54 3 -67 -8 -17 -15 -123 -38 -171 -37 -12 0 -36 -8 -53 -18 -28 -16 -30 -16
-42 1 -17 22 -96 25 -96 3 0 -11 -9 -13 -37 -9 -21 3 -43 10 -49 14 -6 5 -14
5 -18 1 -4 -4 -33 -7 -64 -7 -31 0 -64 -2 -72 -5 -11 -4 -16 4 -18 30 -5 45
-20 64 -38 49 -8 -6 -14 -19 -14 -29 0 -15 -9 -18 -65 -16 -58 1 -65 3 -70 24
-6 23 -35 31 -35 9 0 -19 -61 -18 -83 1 -12 11 -41 16 -102 16 -76 1 -86 3
-100 24 -9 12 -23 22 -32 22 -9 0 -25 7 -35 17 -17 15 -18 13 -18 -60z"/>
<path d="M1796 1053 c-7 -16 16 -43 36 -43 12 0 9 23 -6 43 -17 21 -22 21 -30
0z"/>
<path d="M2516 1062 c-2 -4 -1 -14 3 -21 6 -10 10 -9 14 3 6 16 -8 32 -17 18z"/>
<path d="M6864 1059 c-8 -14 11 -33 25 -25 16 10 13 36 -3 36 -8 0 -18 -5 -22
-11z"/>
<path d="M2010 1021 c0 -13 29 -35 37 -28 7 8 -15 37 -28 37 -5 0 -9 -4 -9 -9z"/>
<path d="M1462 911 c-22 -41 -20 -51 9 -51 22 0 25 5 34 53 10 51 -16 50 -43
-2z"/>
<path d="M7673 874 c-7 -18 11 -39 26 -30 17 11 13 46 -4 46 -9 0 -18 -7 -22
-16z"/>
<path d="M280 815 c-6 -15 -13 -104 -16 -199 -2 -94 -9 -220 -14 -281 -6 -60
-10 -161 -10 -222 l0 -113 31 0 c28 0 31 2 24 22 -16 48 -2 168 32 265 8 23
14 70 13 105 -1 35 -1 72 0 83 0 11 -3 46 -8 77 -5 40 -4 64 4 80 19 35 -4
175 -32 199 -11 9 -16 5 -24 -16z"/>
<path d="M1860 805 c0 -17 2 -18 24 -9 23 9 20 24 -4 24 -11 0 -20 -7 -20 -15z"/>
<path d="M1445 768 c-18 -44 -20 -58 -11 -88 4 -14 2 -48 -4 -74 -7 -34 -8
-52 -1 -59 18 -18 24 0 33 91 4 48 11 104 14 125 8 47 -12 50 -31 5z"/>
<path d="M1755 713 c8 -35 10 -37 30 -29 25 9 15 50 -14 54 -21 3 -23 1 -16
-25z"/>
<path d="M4320 685 c0 -8 5 -15 10 -15 6 0 10 7 10 15 0 8 -4 15 -10 15 -5 0
-10 -7 -10 -15z"/>
<path d="M7490 576 c0 -8 4 -17 9 -20 11 -7 33 18 24 27 -12 12 -33 7 -33 -7z"/>
<path d="M1730 565 c0 -9 5 -15 11 -13 6 2 11 8 11 13 0 5 -5 11 -11 13 -6 2
-11 -4 -11 -13z"/>
<path d="M2265 551 c-6 -11 9 -23 19 -14 9 9 7 23 -3 23 -6 0 -12 -4 -16 -9z"/>
<path d="M1410 491 c0 -5 14 -19 30 -31 24 -17 30 -18 30 -6 0 8 -7 22 -16 30
-17 18 -44 21 -44 7z"/>
<path d="M5470 491 c0 -11 26 -22 34 -14 3 3 3 10 0 14 -7 12 -34 11 -34 0z"/>
<path d="M7365 489 c-10 -15 3 -25 16 -12 7 7 7 13 1 17 -6 3 -14 1 -17 -5z"/>
<path d="M1407 383 c-13 -12 -7 -33 8 -33 8 0 15 9 15 20 0 20 -11 26 -23 13z"/>
<path d="M4910 335 c0 -8 7 -15 15 -15 8 0 15 7 15 15 0 8 -7 15 -15 15 -8 0
-15 -7 -15 -15z"/>
<path d="M1444 324 c3 -9 6 -18 6 -20 0 -2 7 -4 16 -4 11 0 14 5 10 16 -3 9
-6 18 -6 20 0 2 -7 4 -16 4 -11 0 -14 -5 -10 -16z"/>
<path d="M1514 125 c-4 -9 -19 -15 -36 -15 -19 0 -28 -4 -25 -12 2 -7 16 -13
30 -13 40 0 54 -19 40 -55 -11 -29 -10 -30 17 -30 27 0 28 2 20 33 -4 17 -11
49 -15 70 -6 38 -21 49 -31 22z"/>
</g>
</svg>
